<svg xmlns="http://www.w3.org/2000/svg" width="200" height="80" viewBox="0 0 200 80" fill="none"><path d="M134.174 52.7892C133.347 51.8314 132.717 50.7196 132.32 49.5177L132.212 49.2154L132.105 48.8459L132.038 48.6175L131.93 48.1943L131.877 47.9457C131.823 47.7106 131.776 47.4621 131.735 47.2135C131.727 47.1232 131.714 47.0335 131.695 46.9448L131.641 46.5082C131.652 46.4122 131.652 46.3153 131.641 46.2193L131.608 45.8498L150.417 41.3154C150.307 40.3415 150.018 39.3964 149.564 38.5275C148.867 37.0083 147.733 35.7313 146.306 34.8596C144.726 33.8604 142.951 33.21 141.1 32.9518L140.784 32.9048C139.668 32.7814 138.542 32.7814 137.425 32.9048C134.464 33.2251 131.683 34.4872 129.492 36.5055C127.328 38.474 125.882 41.1071 125.381 43.989V44.1032C125.347 44.2913 125.32 44.4727 125.3 44.6809C125.28 44.8892 125.3 44.9161 125.26 45.0504C125.268 45.1532 125.268 45.2566 125.26 45.3594C125.273 45.5383 125.273 45.718 125.26 45.8968V46.7634C125.303 48.319 125.631 49.8535 126.227 51.2912C127.289 53.7552 129.045 55.8575 131.28 57.3423C133.515 58.8271 136.133 59.6305 138.816 59.6547C141.085 59.7006 143.332 59.1982 145.366 58.1903C147.377 57.1969 149.112 55.7225 150.417 53.8977L150.095 53.0848C148.765 55.6241 139.589 58.7814 134.174 52.7892ZM142.732 41.6311L131.547 44.3182C131.547 43.9823 131.547 43.6464 131.594 43.3307V43.2299C131.589 43.1225 131.589 43.0149 131.594 42.9075L131.648 42.4708C131.75 41.7719 131.907 41.0823 132.118 40.4085C132.498 39.1583 133.079 37.9784 133.838 36.9153C134.531 35.9355 135.421 35.1117 136.451 34.4969C137.438 33.9073 138.567 33.6005 139.716 33.6101C141.319 33.6101 142.493 34.058 143.236 34.9537C143.507 35.2658 143.733 35.614 143.908 35.9882C144.654 37.8893 144.6 41.0534 142.732 41.6311Z" fill="#5101A0"></path><path d="M100.605 53.0646C99.2617 55.6308 90.0988 58.7814 84.6843 52.7959C83.7964 51.7612 83.133 50.5534 82.7361 49.2489C82.269 47.7698 82.0422 46.2252 82.0644 44.6742C82.0543 43.2261 82.2673 41.785 82.6958 40.4017C83.0753 39.1515 83.6562 37.9716 84.4156 36.9085C85.096 35.9367 85.9696 35.1157 86.9817 34.4968C87.9682 33.9076 89.0976 33.6008 90.2466 33.6101C91.8499 33.6101 93.0232 34.0579 93.7666 34.9536C94.5328 35.9221 94.9282 37.1322 94.8818 38.3662C94.8982 39.0071 94.8027 39.6459 94.5996 40.2539L100.31 38.9104C98.2339 33.5362 91.355 32.7905 90.0853 32.7905C79.1892 32.6159 73.2104 42.8671 76.7305 51.2172C77.794 53.6828 79.5502 55.7867 81.7861 57.2737C84.0219 58.7607 86.6412 59.5668 89.3262 59.5942C91.5955 59.6401 93.8424 59.1377 95.876 58.1298C97.8877 57.1367 99.623 55.6621 100.928 53.8372L100.605 53.0646Z" fill="#5101A0"></path><path d="M125.381 53.0647C124.038 55.6309 114.875 58.7815 109.46 52.796C108.582 51.7682 107.925 50.5697 107.532 49.2759C107.065 47.7967 106.838 46.2522 106.86 44.7012C106.85 43.253 107.063 41.812 107.492 40.4287C107.869 39.1789 108.448 37.999 109.205 36.9355C109.884 35.9551 110.757 35.125 111.771 34.497C112.757 33.9074 113.887 33.6006 115.036 33.6102C116.635 33.6102 117.808 34.0581 118.556 34.9538C119.329 35.9195 119.732 37.1298 119.691 38.3664C119.708 39.0078 119.611 39.6471 119.402 40.254L125.079 38.9105C123.017 33.5363 116.138 32.7974 114.881 32.7974C103.985 32.6227 98.0064 42.874 101.527 51.2241C102.583 53.6959 104.336 55.8071 106.571 57.3004C108.806 58.7937 111.428 59.6047 114.116 59.6347C116.389 59.6827 118.641 59.1803 120.679 58.1702C122.69 57.1769 124.425 55.7024 125.73 53.8776L125.381 53.0647Z" fill="#5101A0"></path><path d="M158.654 54.2604V20L150.592 21.9616H150.539V22.7207C150.821 22.7207 153.259 23.3924 153.259 25.0719V54.1395C153.259 57.8073 150.666 58.338 148.913 58.4522V59.0635H163V58.4522C161.253 58.338 158.714 57.8006 158.654 54.2604Z" fill="#5101A0"></path><path d="M61.2123 20L53.2316 21.9549H53.1712V22.546C53.4533 22.546 55.8247 23.3857 55.1865 24.8972C52.1568 31.6015 42.3288 53.9782 41.8115 54.9859C40.1119 58.3448 37.7003 58.3448 36.706 58.4522V59.0635H49.201V58.4388C49.201 58.4388 44.4583 58.4925 44.4583 56.0137C44.4583 54.5089 46.9103 48.5906 47.5753 46.9717L63.8524 43.0015C63.8927 43.1022 68.2726 53.7095 68.2726 55.9465C68.2726 58.3649 64.3831 58.4388 64.242 58.4388V59.0501H80.5459V58.4388C79.3886 58.4585 78.2509 58.1379 77.2741 57.517C76.2972 56.896 75.5242 56.0019 75.0508 54.9456C74.5604 53.9782 61.2123 20 61.2123 20ZM63.2881 41.6311L48.2605 45.2989C48.3411 45.1041 56.5166 25.9452 56.745 25.4615C57.0876 26.2609 63.2814 41.6311 63.2814 41.6311H63.2881Z" fill="#5101A0"></path></svg>