<svg xmlns="http://www.w3.org/2000/svg" width="180" height="80" viewBox="0 0 180 80" fill="none"><g clip-path="url(#clip0_469_255)"><path fill-rule="evenodd" clip-rule="evenodd" d="M91.1979 32.9028V45.8604H98.5101C99.0899 45.8604 99.5408 46.0021 99.8501 46.2855C100.166 46.5688 100.32 46.9295 100.32 47.3545C100.32 47.7925 100.166 48.1466 99.8629 48.4171C99.5539 48.6876 99.1028 48.8228 98.5165 48.8228H89.8063C89.0203 48.8228 88.4599 48.6491 88.1183 48.3012C87.7769 47.9535 87.603 47.3867 87.603 46.6139V32.9093C87.603 32.1816 87.7705 31.6341 88.099 31.2735C88.4276 30.9064 88.8592 30.7261 89.3939 30.7261C89.9351 30.7261 90.3733 30.9064 90.7083 31.2671C91.0304 31.6148 91.1979 32.1687 91.1979 32.9028Z" fill="#0B103A"></path><path fill-rule="evenodd" clip-rule="evenodd" d="M151.371 32.8835L158.304 43.3745V32.7869C158.304 32.0978 158.452 31.5826 158.748 31.2413C159.045 30.9 159.437 30.7261 159.94 30.7261C160.455 30.7261 160.861 30.8935 161.164 31.2413C161.467 31.589 161.609 32.1043 161.609 32.7934V46.7878C161.609 48.3527 160.964 49.1255 159.67 49.1255C159.347 49.1255 159.057 49.0804 158.793 48.9838C158.535 48.8937 158.291 48.7456 158.065 48.5459C157.84 48.3463 157.627 48.108 157.434 47.8311C157.241 47.5606 157.047 47.2837 156.848 47.0003L150.089 36.6446V47.0583C150.089 47.7345 149.935 48.2497 149.619 48.5974C149.297 48.9451 148.891 49.1191 148.402 49.1191C147.893 49.1191 147.48 48.9451 147.178 48.591C146.868 48.2368 146.714 47.728 146.714 47.0518V33.3279C146.714 32.7418 146.778 32.291 146.907 31.9561C147.061 31.589 147.319 31.2928 147.674 31.061C148.028 30.8356 148.414 30.7196 148.827 30.7196C149.155 30.7196 149.432 30.7712 149.658 30.8742C149.89 30.9837 150.096 31.1254 150.27 31.2992C150.444 31.4796 150.624 31.705 150.805 31.9883C150.985 32.2782 151.178 32.568 151.371 32.8835Z" fill="#0B103A"></path><path fill-rule="evenodd" clip-rule="evenodd" d="M116.601 46.8007L115.751 44.5659L114.778 41.8546L112.098 34.5193L109.463 41.8546L108.516 44.5659L107.666 46.8457C107.337 47.7345 107.053 48.3399 106.815 48.6491C106.583 48.9581 106.197 49.1191 105.662 49.1191C105.211 49.1191 104.805 48.9517 104.457 48.6231C104.109 48.2948 103.935 47.9148 103.935 47.4962C103.935 47.2515 103.974 47.0003 104.058 46.7427C104.141 46.4787 104.27 46.1245 104.457 45.6608L109.006 34.1071C109.141 33.7787 109.289 33.3794 109.476 32.9157C109.656 32.4456 109.856 32.0592 110.062 31.7565C110.268 31.4474 110.539 31.2026 110.874 31.0094C111.209 30.8162 111.621 30.7261 112.117 30.7261C112.62 30.7261 113.039 30.8227 113.38 31.0094C113.715 31.2026 113.986 31.4474 114.192 31.7436C114.398 32.0399 114.572 32.3619 114.714 32.7096C114.855 33.051 115.036 33.5147 115.255 34.0878L119.906 45.5706C120.273 46.4465 120.454 47.0776 120.454 47.4769C120.454 47.8891 120.286 48.269 119.938 48.6104C119.597 48.9517 119.178 49.1255 118.689 49.1255C118.405 49.1255 118.16 49.074 117.961 48.9711C117.761 48.8743 117.593 48.7327 117.452 48.5589C117.316 48.3849 117.168 48.1144 117.014 47.7602C116.846 47.3932 116.717 47.0712 116.601 46.8007Z" fill="#0B103A"></path><path fill-rule="evenodd" clip-rule="evenodd" d="M137.326 46.8007L136.476 44.5659L135.503 41.8546L132.823 34.5193L130.188 41.8546L129.241 44.5659L128.391 46.8457C128.062 47.7345 127.779 48.3399 127.54 48.6491C127.308 48.9581 126.922 49.1191 126.387 49.1191C125.936 49.1191 125.53 48.9517 125.182 48.6231C124.835 48.2948 124.66 47.9148 124.66 47.4962C124.66 47.2515 124.699 47.0003 124.783 46.7427C124.867 46.4787 124.996 46.1245 125.182 45.6608L129.731 34.1071C129.866 33.7787 130.014 33.3794 130.201 32.9157C130.381 32.4456 130.581 32.0592 130.787 31.7565C130.993 31.4474 131.264 31.2026 131.599 31.0094C131.934 30.8162 132.346 30.7261 132.843 30.7261C133.351 30.7261 133.764 30.8227 134.105 31.0094C134.44 31.2026 134.711 31.4474 134.917 31.7436C135.123 32.0399 135.297 32.3619 135.439 32.7096C135.58 33.051 135.761 33.5147 135.98 34.0878L140.631 45.5706C140.999 46.4465 141.179 47.0776 141.179 47.4769C141.179 47.8891 141.012 48.269 140.664 48.6104C140.322 48.9517 139.903 49.1255 139.414 49.1255C139.13 49.1255 138.886 49.074 138.686 48.9711C138.486 48.8743 138.318 48.7327 138.177 48.5589C138.042 48.3849 137.893 48.1144 137.739 47.7602C137.578 47.3932 137.442 47.0712 137.326 46.8007Z" fill="#0B103A"></path><path fill-rule="evenodd" clip-rule="evenodd" d="M78.3327 46.8007L77.4823 44.5659L76.5095 41.8546L73.8294 34.5193L71.1944 41.8546L70.2473 44.5659L69.3969 46.8457C69.0684 47.7345 68.7849 48.3399 68.5465 48.6491C68.3146 48.9581 67.9281 49.1191 67.3933 49.1191C66.9424 49.1191 66.5365 48.9517 66.1886 48.6231C65.8407 48.2948 65.6667 47.9148 65.6667 47.4962C65.6667 47.2515 65.7054 47.0003 65.7892 46.7427C65.8729 46.4787 66.0018 46.1245 66.1886 45.6608L70.737 34.1071C70.8723 33.7787 71.0205 33.3794 71.2073 32.9157C71.3877 32.4456 71.5874 32.0592 71.7936 31.7565C71.9997 31.4474 72.2703 31.2026 72.6053 31.0094C72.9403 30.8162 73.3526 30.7261 73.8487 30.7261C74.3577 30.7261 74.77 30.8227 75.1114 31.0094C75.4464 31.2026 75.717 31.4474 75.9232 31.7436C76.1293 32.0399 76.3033 32.3619 76.445 32.7096C76.5868 33.051 76.7672 33.5147 76.9862 34.0878L81.6377 45.5706C82.0049 46.4465 82.1853 47.0776 82.1853 47.4769C82.1853 47.8891 82.0178 48.269 81.6699 48.6104C81.3284 48.9517 80.9097 49.1255 80.42 49.1255C80.1366 49.1255 79.8917 49.074 79.692 48.9711C79.4923 48.8743 79.3248 48.7327 79.1831 48.5589C79.0478 48.3849 78.8996 48.1144 78.745 47.7602C78.5839 47.3932 78.4486 47.0712 78.3327 46.8007Z" fill="#0B103A"></path><path fill-rule="evenodd" clip-rule="evenodd" d="M116.601 46.8007L115.751 44.5659L114.778 41.8546L112.098 34.5193L109.463 41.8546L108.516 44.5659L107.666 46.8457C107.337 47.7345 107.053 48.3399 106.815 48.6491C106.583 48.9581 106.197 49.1191 105.662 49.1191C105.211 49.1191 104.805 48.9517 104.457 48.6231C104.109 48.2948 103.935 47.9148 103.935 47.4962C103.935 47.2515 103.974 47.0003 104.058 46.7427C104.141 46.4787 104.27 46.1245 104.457 45.6608L109.006 34.1071C109.141 33.7787 109.289 33.3794 109.476 32.9157C109.656 32.4456 109.856 32.0592 110.062 31.7565C110.268 31.4474 110.539 31.2026 110.874 31.0094C111.209 30.8162 111.621 30.7261 112.117 30.7261C112.626 30.7261 113.039 30.8227 113.38 31.0094C113.715 31.2026 113.986 31.4474 114.192 31.7436C114.398 32.0399 114.572 32.3619 114.714 32.7096C114.855 33.051 115.036 33.5147 115.255 34.0878L119.906 45.5706C120.273 46.4465 120.454 47.0776 120.454 47.4769C120.454 47.8891 120.286 48.269 119.938 48.6104C119.597 48.9517 119.178 49.1255 118.689 49.1255C118.405 49.1255 118.16 49.074 117.961 48.9711C117.761 48.8743 117.593 48.7327 117.452 48.5589C117.316 48.3849 117.168 48.1144 117.014 47.7602C116.846 47.3932 116.717 47.0712 116.601 46.8007Z" fill="#0B103A"></path><path fill-rule="evenodd" clip-rule="evenodd" d="M137.326 46.8007L136.476 44.5659L135.503 41.8546L132.823 34.5193L130.188 41.8546L129.241 44.5659L128.391 46.8457C128.062 47.7345 127.779 48.3399 127.54 48.6491C127.308 48.9581 126.922 49.1191 126.387 49.1191C125.936 49.1191 125.53 48.9517 125.182 48.6231C124.835 48.2948 124.66 47.9148 124.66 47.4962C124.66 47.2515 124.699 47.0003 124.783 46.7427C124.867 46.4787 124.996 46.1245 125.182 45.6608L129.731 34.1071C129.866 33.7787 130.014 33.3794 130.201 32.9157C130.381 32.4456 130.581 32.0592 130.787 31.7565C130.993 31.4474 131.264 31.2026 131.599 31.0094C131.934 30.8162 132.346 30.7261 132.843 30.7261C133.351 30.7261 133.764 30.8227 134.105 31.0094C134.44 31.2026 134.711 31.4474 134.917 31.7436C135.123 32.0399 135.297 32.3619 135.439 32.7096C135.58 33.051 135.761 33.5147 135.98 34.0878L140.631 45.5706C140.999 46.4465 141.179 47.0776 141.179 47.4769C141.179 47.8891 141.012 48.269 140.664 48.6104C140.322 48.9517 139.903 49.1255 139.414 49.1255C139.13 49.1255 138.886 49.074 138.686 48.9711C138.486 48.8743 138.318 48.7327 138.177 48.5589C138.042 48.3849 137.893 48.1144 137.739 47.7602C137.578 47.3932 137.442 47.0712 137.326 46.8007Z" fill="#0B103A"></path></g><path fill-rule="evenodd" clip-rule="evenodd" d="M36.4572 22.0039C38.8898 21.9756 39.7101 22.0886 41.6902 22.7665C42.9631 23.1902 44.8865 24.0941 45.9614 24.8002C47.0363 25.5063 48.6204 26.8339 49.4407 27.766C50.3458 28.7545 51.449 30.421 52.0713 31.7203C52.6653 32.9631 53.3159 34.6861 53.5139 35.5335C53.7119 36.3808 53.8816 38.1603 53.8533 39.4878C53.8533 40.8154 53.627 42.6796 53.3725 43.6681C53.1179 44.6285 52.4673 46.3515 51.9016 47.453C51.1661 48.8936 50.2044 50.1646 48.7052 51.6899C47.008 53.3846 46.0463 54.0907 44.1511 54.9946C42.8216 55.616 40.8133 56.3221 39.7101 56.5763C38.5787 56.8023 37.0795 57 36.3723 57C35.6652 57 34.166 56.8023 33.0628 56.5481C31.9314 56.2939 29.9796 55.616 28.735 55.0228C27.4904 54.4014 25.7084 53.2434 24.7749 52.396C23.8415 51.5486 22.5403 50.0516 21.8897 49.063C21.2108 48.0744 20.3339 46.295 19.9379 45.1369C19.4288 43.6964 19.1459 42.1994 19.0328 40.4764C18.9479 38.9794 19.0328 37.1717 19.2308 36.0984C19.4288 35.0815 20.0228 33.3868 20.5037 32.2852C21.0128 31.1837 22.0311 29.5454 22.7383 28.6133C23.4454 27.6812 24.7183 26.4102 25.5386 25.7605C26.3589 25.1109 27.745 24.2353 28.5936 23.8116C29.4422 23.3597 30.9131 22.7948 31.8465 22.5123C32.9497 22.2016 34.562 22.0039 36.4572 22.0039V22.0039ZM27.4621 38.2168C22.0311 43.6117 21.1825 44.572 21.6634 44.7415C21.9746 44.8545 23.1343 44.8545 24.2092 44.7697L26.1892 44.6002C35.6369 35.138 36.2875 34.6014 36.6552 34.9685C36.8815 35.1945 37.7018 37.7648 38.4938 40.7024C39.2576 43.6117 40.0779 46.2385 40.2759 46.5492C40.4456 46.8599 40.8982 47.2271 41.2659 47.3965C41.6053 47.5378 42.3691 47.679 42.9631 47.679C43.9248 47.679 44.2925 47.3683 47.9698 43.7246L51.9299 39.7703C48.3941 39.7703 47.2343 39.9115 46.7817 40.1657C46.3292 40.3917 45.4806 41.0978 44.8583 41.7192C44.236 42.3689 43.5005 42.8773 43.2459 42.8773C42.8782 42.8773 42.6519 42.5101 42.4256 41.691C42.2559 41.0131 41.6902 38.8947 41.1527 36.9457C40.6153 34.9968 39.993 33.1326 39.7667 32.7936C39.5404 32.4265 38.9181 31.8898 38.4372 31.5791C37.9281 31.2684 37.0512 31.0142 36.5138 31.0142C35.9763 31.0142 35.156 31.2119 34.6752 31.4379C34.2226 31.6638 30.9696 34.7143 27.4621 38.2168V38.2168Z" fill="#564194"></path><defs><clipPath id="clip0_469_255"><rect width="96.25" height="25.5208" fill="white" transform="translate(65.6667 27.1042)"></rect></clipPath></defs></svg>