<svg xmlns="http://www.w3.org/2000/svg" width="180" height="80" viewBox="0 0 180 80" fill="none"><path d="M106.061 31.689H108.363V48.4178H103.962L95.9708 32.4774V48.4178H93.6692V31.689H98.0486L106.072 47.6719L106.061 31.689ZM84.1594 31.689H81.714L79.8546 36.8461C79.2526 38.6735 79.7641 40.1546 81.1172 40.3304L83.893 32.4295L86.8606 40.9165H80.8456C80.1122 40.9186 79.399 41.1557 78.8103 41.593C78.2216 42.0301 77.7885 42.6445 77.5744 43.3458L77.5425 43.4417C77.5401 43.4522 77.5401 43.4632 77.5425 43.4737L75.8909 48.3432H78.3416L80.169 43.186H87.6597L89.4657 48.3432H91.9164L86.056 31.6677L84.1594 31.689ZM124.948 42.2004C125.304 43.1174 125.341 44.1278 125.05 45.0678C124.76 46.0079 124.16 46.8223 123.35 47.3789C122.205 48.2172 120.86 48.7391 119.45 48.8919C117.749 49.1406 116.012 48.9367 114.415 48.3006C113.217 47.8602 112.195 47.0433 111.501 45.9724C111.128 45.3766 110.942 44.6824 110.968 43.9799H113.184C113.318 45.0987 114.106 45.6633 115.033 46.063C116.078 46.5489 117.224 46.7787 118.376 46.7333C119.527 46.6879 120.652 46.3686 121.655 45.8019C121.905 45.6482 122.139 45.4697 122.353 45.2691C123.419 44.3421 123.073 42.3656 121.645 41.7635C120.799 41.436 119.914 41.2193 119.013 41.1189C117.766 40.9431 116.52 40.7992 115.284 40.5861C113.976 40.4047 112.78 39.7509 111.922 38.7481C111.575 38.3488 111.312 37.8842 111.147 37.3816C110.982 36.8791 110.92 36.3486 110.963 35.8216C111.006 35.2945 111.154 34.7813 111.398 34.3123C111.643 33.8431 111.978 33.4276 112.385 33.0901C113.474 32.1276 114.817 31.4987 116.253 31.2787C118.097 30.9278 120.004 31.1128 121.746 31.8115C122.943 32.2504 123.964 33.0678 124.655 34.1397C125.036 34.7401 125.238 35.437 125.236 36.1482H123.019C123.019 36.1482 123.019 36.1482 123.019 36.1109C122.955 35.6827 122.778 35.2795 122.505 34.9431C122.232 34.6067 121.875 34.3496 121.469 34.1983C120.397 33.637 119.201 33.3537 117.991 33.3741C116.781 33.3946 115.596 33.7183 114.543 34.3155C114.161 34.5214 113.824 34.8022 113.552 35.1413C113.295 35.4389 113.157 35.8208 113.164 36.2139C113.17 36.6071 113.322 36.9839 113.589 37.2723C114.04 37.8374 114.683 38.2167 115.395 38.3379C116.397 38.5083 117.409 38.6469 118.422 38.7748C119.674 38.8884 120.909 39.1458 122.103 39.5419C122.748 39.7383 123.338 40.0808 123.829 40.5429C124.32 41.0049 124.698 41.574 124.932 42.2057M144.111 48.1567C143.874 48.1567 143.643 48.0864 143.446 47.9547C143.249 47.823 143.095 47.6357 143.004 47.4167C142.913 47.1977 142.89 46.9567 142.936 46.7241C142.982 46.4916 143.096 46.2781 143.264 46.1103C143.432 45.9427 143.645 45.8285 143.878 45.7823C144.11 45.7361 144.351 45.7598 144.571 45.8506C144.789 45.9413 144.977 46.0949 145.108 46.292C145.24 46.4892 145.31 46.7209 145.31 46.958C145.31 47.2759 145.184 47.5808 144.959 47.8056C144.735 48.0304 144.429 48.1567 144.111 48.1567ZM144.111 45.5462C143.832 45.5462 143.559 45.629 143.328 45.7841C143.095 45.9392 142.914 46.1597 142.807 46.4177C142.7 46.6757 142.672 46.9595 142.727 47.2335C142.781 47.5073 142.916 47.7588 143.113 47.9563C143.311 48.1538 143.562 48.2882 143.836 48.3427C144.11 48.3972 144.393 48.3692 144.651 48.2624C144.91 48.1555 145.13 47.9746 145.285 47.7423C145.441 47.5102 145.523 47.2372 145.523 46.958C145.523 46.5836 145.374 46.2244 145.11 45.9597C144.845 45.6949 144.486 45.5462 144.111 45.5462ZM144.335 46.8514C144.363 46.8489 144.388 46.841 144.412 46.8282C144.436 46.8153 144.457 46.7979 144.474 46.7769C144.491 46.7554 144.502 46.7302 144.508 46.7034C144.513 46.6766 144.513 46.6488 144.506 46.6224C144.497 46.5792 144.472 46.5407 144.437 46.5141C144.402 46.4877 144.358 46.475 144.314 46.4785H143.738V46.8514H144.335ZM144.367 47.0912L144.751 47.6666H144.516C144.504 47.6678 144.493 47.6655 144.483 47.6597C144.471 47.654 144.463 47.6453 144.458 47.6346L144.266 47.3522L144.09 47.0912H143.738V47.6773H143.493V46.2388H144.319C144.423 46.2366 144.524 46.273 144.603 46.3409C144.681 46.4087 144.732 46.5033 144.745 46.6064C144.759 46.7087 144.736 46.8126 144.679 46.8989C144.622 46.9851 144.536 47.0477 144.437 47.0752H144.367M142.322 35.8658C142.163 34.6929 141.582 33.618 140.688 32.843C139.793 32.0681 138.646 31.6464 137.463 31.657H128.086H127.825V34.7577C127.825 36.5957 128.491 37.9543 130.063 38.2047C130.063 36.8728 130.063 35.5409 130.063 34.1983V33.9159H130.329H137.431C137.77 33.8995 138.108 33.9499 138.428 34.0645C138.748 34.1791 139.041 34.3553 139.293 34.5834C139.544 34.8115 139.748 35.0868 139.893 35.3937C140.038 35.7005 140.12 36.033 140.137 36.372C140.153 36.711 140.103 37.0499 139.988 37.3693C139.874 37.6888 139.698 37.9825 139.47 38.2338C139.242 38.4852 138.966 38.6891 138.66 38.834C138.352 38.979 138.02 39.0619 137.681 39.0784C137.26 39.1051 136.833 39.0784 136.413 39.0784C134.399 39.0784 132.38 39.0784 130.361 39.0784C129.498 39.0784 127.819 39.1903 127.819 41.5345V48.3432H130.068V48.0342C130.068 45.9031 130.068 43.772 130.068 41.641C130.068 41.4172 130.127 41.348 130.35 41.348C131.771 41.348 133.191 41.348 134.613 41.348C134.688 41.3447 134.763 41.363 134.827 41.4008C134.892 41.4386 134.945 41.4942 134.98 41.5611C136.45 43.7401 137.931 45.9191 139.402 48.1035C139.445 48.1789 139.51 48.2404 139.587 48.2809C139.665 48.3214 139.752 48.3393 139.839 48.3325C140.51 48.3325 141.182 48.3325 141.853 48.3325H142.145L137.526 41.3959C137.99 41.3161 138.416 41.2734 138.832 41.1668C139.959 40.8566 140.937 40.1492 141.584 39.1751C142.232 38.2008 142.504 37.0256 142.353 35.8658" fill="#003946"></path><path d="M52.5882 20H54.1119V30.1545H52.5882V20ZM48.7576 20.618L50.6862 30.4849L52.1833 30.1918L50.2547 20.3303L48.7576 20.618ZM48.8695 31.1934L45.1401 22.1843L46.5467 21.5983L50.2759 30.6126L48.8695 31.1934ZM47.2712 32.2269L48.5391 31.3799L43.398 23.6494L42.9984 23.9211L42.8705 23.7294L42.407 24.0383L42.5349 24.2248L42.13 24.4965L47.2712 32.2269ZM40.0842 27.1177L39.4768 26.5104L39.8658 26.1215L40.4571 26.7235L40.7981 26.3772L46.9196 32.4934L45.854 33.5588L39.7379 27.4428L40.0842 27.1177ZM38.1822 30.7352L44.7565 35.1518L45.6036 33.8839L39.0293 29.4672L38.7629 29.8721L37.4417 28.9824L37.1327 29.4459L38.4539 30.3303L38.1822 30.7352ZM37.5962 33.7773L35.3639 32.8556L35.577 32.3228L37.8093 33.2446L37.9957 32.797L44.5488 35.5141L43.9681 36.9206L37.4097 34.2036L37.5962 33.7773ZM37.415 37.5813L43.5525 38.8119L43.8509 37.3202L37.7187 36.0842L37.6228 36.5584L34.4262 35.919L34.3197 36.4518L37.5163 37.0911L37.415 37.5813ZM38.0916 40.2877H34V39.755H38.0916V39.2701H43.5046V40.7938H38.0757L38.0916 40.2877ZM39.2957 43.5535L43.8402 42.6585L43.5471 41.1614L38.9654 42.0565L39.0613 42.5306L34.2664 43.4737L34.3729 44.0064L39.1678 43.0634L39.2957 43.5535ZM40.7608 45.5302L35.577 47.6612L35.3639 47.1284L40.5477 44.9974L40.3666 44.5498L43.9681 43.0581L44.5488 44.4646L40.9473 45.9563L40.7608 45.5302ZM42.8546 47.9116L45.577 46.1055L44.7192 44.8375L41.9968 46.6489L42.2632 47.0539L37.0687 50.5061L37.3777 50.9696L42.5722 47.512L42.8546 47.9116ZM44.65 49.1156L39.8551 53.9105L39.4662 53.5162L44.261 48.7214L43.9148 48.3804L45.838 46.4358L46.9036 47.5013L44.9643 49.4407L44.65 49.1156ZM47.2019 50.5594L48.5019 48.6202L47.2392 47.7677L45.9339 49.707L46.3388 49.9787L42.3378 55.935L42.8013 56.244L46.7971 50.2877L47.2019 50.5594ZM49.0666 51.0922L46.2109 58.0181L45.6783 57.805L48.5339 50.8791L48.0863 50.6926L48.8642 48.8173L50.2759 49.398L49.4981 51.2786L49.0666 51.0922ZM50.3079 51.332L50.7821 51.4278L49.2744 58.9292L49.8072 59.041L51.3149 51.5397L51.7891 51.6356L52.1567 49.8136L50.6596 49.5152L50.3079 51.332ZM52.6041 49.8455H54.1279V60H52.6041V49.8562V49.8455ZM54.5168 49.8082L56.456 59.6751L57.9531 59.382L56.0138 49.5259L54.5168 49.8082ZM57.8413 48.8066L61.5706 57.8157L60.1588 58.4018L56.4294 49.3873L57.8413 48.8066ZM59.4395 47.773L58.1716 48.6202L63.3127 56.3506L63.7123 56.0842L63.8402 56.276L64.3037 55.9723L64.1758 55.7752L64.5807 55.5035L59.4395 47.773ZM66.6266 52.8823L67.2393 53.495L66.8449 53.8892L66.2376 53.2765L65.8967 53.6175L59.7805 47.5013L60.8461 46.4358L66.9622 52.5519L66.6266 52.8823ZM68.5339 49.2648L61.9595 44.8375L61.1071 46.1055L67.6814 50.5222L67.9478 50.1226L69.2744 51.0123L69.5834 50.5541L68.2675 49.6857L68.5339 49.2648ZM69.1145 46.228L71.3468 47.155L71.1337 47.6878L68.9014 46.7608L68.7203 47.203L62.1619 44.4859L62.7481 43.0794L69.301 45.7965L69.1145 46.228ZM69.2957 42.4188L63.1636 41.1881L62.8599 42.6799L68.9974 43.9159L69.0879 43.447L72.2845 44.0917L72.3964 43.5589L69.1998 42.9142L69.2957 42.4188ZM67.5109 36.9313L72.3058 35.9883L72.4124 36.5211L67.6175 37.4641L67.7081 37.9329L63.1689 38.8226L62.8759 37.3309L67.415 36.4358L67.5109 36.9313ZM65.7635 34.0224L62.1619 35.5141L62.7481 36.9206L66.3495 35.4289L66.163 34.9866L71.3468 32.8556L71.1337 32.3228L65.9553 34.454L65.7635 34.0224ZM64.1279 32.4987L69.3224 29.041L69.626 29.5045L64.4369 32.9569L64.7032 33.3564L61.9808 35.1679L61.1337 33.8946L63.8562 32.0885L64.1279 32.4987ZM61.7198 30.5435L59.7805 32.4827L60.8461 33.5482L62.7853 31.6089L62.4443 31.268L67.2393 26.4731L66.8449 26.0842L62.0501 30.8791L61.7198 30.5435ZM59.9191 29.7176L63.9148 23.7667L64.3729 24.0757L60.3772 30.0213L60.7768 30.2931L59.4769 32.2323L58.2089 31.3799L59.5088 29.4406L59.9191 29.7176ZM57.1966 28.7107L56.4135 30.5914L57.8253 31.1721L58.6031 29.2968L58.1555 29.1103L61.0165 22.211L60.4837 21.9979L57.6229 28.9238L57.1966 28.7107ZM56.0405 30.4742L54.5434 30.1759L54.911 28.3537L55.3906 28.4496L56.8983 20.959L57.431 21.0655L55.9233 28.5616L56.3974 28.6574L56.0405 30.4742ZM68.6191 39.723V39.2275H63.2062V40.7512H68.6191V40.2771H72.716V39.7443L68.6191 39.723Z" fill="#FF5400"></path></svg>