<svg xmlns="http://www.w3.org/2000/svg" width="180" height="80" viewBox="0 0 180 80" fill="none"><path fill-rule="evenodd" clip-rule="evenodd" d="M59.2533 27H64.7793L64.8145 36.6387C64.8262 42.518 64.8849 46.3712 65.0726 46.8162L62.7613 46.7811C60.6377 46.7342 60.4266 46.7108 60.1215 46.4883C59.9455 46.3477 59.6874 46.0667 59.5584 45.8441C59.3354 45.4577 59.3237 45.2 59.2885 36.2171L59.2533 27ZM66.4101 27H71.9361L71.9595 36.6973C71.983 42.8811 72.0299 46.4649 72.1121 46.6054C72.2177 46.8162 72.1355 46.8279 69.9416 46.7811C68.0057 46.7459 67.5951 46.7108 67.3018 46.5351C67.1023 46.418 66.8442 46.1486 66.7151 45.9495C66.4805 45.5748 66.4805 45.3405 66.4453 36.2874L66.4101 27ZM27.7634 33.2658L27.8221 39.8243C27.8573 43.8532 27.916 46.4649 27.9981 46.6054C28.1037 46.8162 27.9864 46.8162 23.8917 46.7694C20.2664 46.7225 19.5742 46.6874 19.0228 46.5117C18.6591 46.3946 18.0021 46.1135 17.5562 45.8793C17.04 45.6216 16.4416 45.1649 15.9606 44.6847C15.4444 44.1694 15.0572 43.6423 14.7522 43.045C14.5175 42.5649 14.2359 41.7685 14.1303 41.2883C14.013 40.7027 13.9778 40.1171 14.013 39.5315C14.06 39.0514 14.189 38.3135 14.3181 37.8919C14.4471 37.4703 14.7052 36.873 14.893 36.545C15.0807 36.2288 15.4209 35.7486 15.6438 35.491C15.8667 35.2333 16.3595 34.8117 16.7349 34.5541C17.1221 34.3081 17.8026 33.9568 18.2602 33.7811C18.706 33.6054 19.4217 33.4063 19.844 33.3477C20.2547 33.2892 22.214 33.2423 27.7634 33.2658V33.2658ZM19.5859 38.6532C19.3982 38.8757 19.2222 39.2622 19.1753 39.5081C19.1401 39.7423 19.1284 40.1288 19.1518 40.3514C19.187 40.5739 19.3161 40.9252 19.4451 41.1126C19.5742 41.3117 19.8792 41.5577 20.1139 41.6748C20.3485 41.7802 20.7709 41.8739 21.0408 41.8739C21.3341 41.8739 21.7212 41.7685 21.9911 41.6045C22.2492 41.464 22.5542 41.1595 22.6833 40.9369C22.8475 40.6324 22.8945 40.3514 22.871 39.8595C22.8475 39.4261 22.7537 39.0865 22.6012 38.8874C22.4721 38.7117 22.2257 38.4658 22.0732 38.3486C21.909 38.2315 21.5335 38.1027 21.2519 38.0676C20.9586 38.0441 20.5363 38.0676 20.3133 38.1261C20.0904 38.1964 19.7736 38.4189 19.5859 38.6532ZM29.5585 33.1838L33.7001 33.2306C37.1494 33.2775 37.9707 33.3243 38.5573 33.4883C38.9445 33.5937 39.6015 33.8514 40.0238 34.0622C40.5049 34.2964 41.068 34.718 41.5491 35.1982C42.0066 35.655 42.4759 36.2874 42.7458 36.7793C42.9804 37.236 43.2503 37.9387 43.3559 38.3604C43.4497 38.782 43.5318 39.4613 43.5318 39.8829C43.5318 40.3045 43.4614 40.9838 43.3793 41.4054C43.2855 41.827 43.0039 42.5883 42.734 43.1036C42.4525 43.6658 41.9832 44.3216 41.5725 44.7432C41.2088 45.1297 40.587 45.645 40.1998 45.8793C39.8127 46.1135 39.1439 46.418 38.7333 46.5703C38.1115 46.7811 37.6891 46.8279 36.5628 46.8396C35.765 46.8514 35.108 46.8982 35.061 46.9685C35.0141 47.0387 34.9789 48.1162 34.9789 49.3694C34.9789 51.3018 34.9437 51.7117 34.7677 52.0631C34.6387 52.3324 34.3805 52.5667 34.0403 52.7423C33.5475 52.9766 33.3481 53 29.6993 53L29.6876 44.0757C29.6876 39.1568 29.6641 34.6946 29.6289 34.1676L29.5585 33.1838ZM34.8733 38.9342C34.6856 39.227 34.6152 39.5198 34.6152 39.9297C34.6152 40.2811 34.709 40.691 34.8381 40.9252C34.9554 41.1595 35.2605 41.464 35.5069 41.6045C35.7767 41.7568 36.1639 41.8622 36.4689 41.8622C36.7388 41.8622 37.1611 41.7685 37.4075 41.6514C37.6422 41.5342 37.9237 41.3 38.0293 41.1477C38.1349 40.9955 38.2874 40.6559 38.3578 40.3982C38.44 40.0937 38.4517 39.7892 38.3696 39.5198C38.3109 39.2973 38.1467 38.9577 37.9941 38.7703C37.8416 38.5829 37.5131 38.3369 37.255 38.2198C36.9969 38.1027 36.6566 38.009 36.4924 38.009C36.3281 37.9973 35.9644 38.1144 35.6711 38.2667C35.3778 38.4072 35.0258 38.7117 34.8733 38.9342Z" fill="#603084"></path><path d="M154.192 33.9802C154.673 33.7343 155.377 33.4532 155.764 33.3712C156.257 33.2658 157.806 33.2189 161.009 33.2189C164.986 33.2072 165.561 33.2306 165.561 33.3829C165.561 33.4766 165.315 34.0973 165.021 34.7649C164.716 35.4207 164.388 36.0532 164.282 36.182C164.177 36.2991 163.989 36.4514 163.86 36.5333C163.707 36.6153 162.44 36.6856 160.094 36.7207C157.031 36.7676 156.527 36.8027 156.339 36.9667C156.21 37.0721 155.999 37.4352 155.588 38.3604H158.486C160.094 38.3604 161.595 38.4189 161.83 38.4775C162.076 38.5478 162.44 38.7352 162.64 38.9108C162.851 39.0982 163.109 39.4261 163.214 39.6487C163.332 39.8712 163.449 40.2928 163.496 40.5856C163.543 40.9018 163.508 41.4406 163.414 41.9324C163.32 42.3775 163.074 43.0919 162.862 43.5135C162.651 43.9352 162.182 44.5793 161.818 44.9541C161.443 45.3406 160.833 45.809 160.399 46.0315C159.976 46.2541 159.261 46.5117 158.815 46.6054C158.158 46.7577 157.067 46.7928 153.453 46.7928C149.886 46.7928 148.901 46.7577 148.901 46.6523C148.901 46.5703 149.077 46.0198 149.3 45.446C149.511 44.8721 149.769 44.2397 149.851 44.0523C149.945 43.8766 150.156 43.6424 150.332 43.5604C150.59 43.4315 151.412 43.3964 154.122 43.3964C156.938 43.3964 157.665 43.3613 157.994 43.2207C158.267 43.1036 158.463 42.9084 158.58 42.6352C158.733 42.2721 158.733 42.1901 158.58 41.9324C158.486 41.7685 158.392 41.6279 158.381 41.6162C158.357 41.6045 157.078 41.5694 155.53 41.5343C153.031 41.4757 152.667 41.4406 152.256 41.2297C151.998 41.1009 151.658 40.7847 151.494 40.5388C151.247 40.164 151.177 39.8946 151.142 39.1919C151.118 38.5829 151.165 38.0793 151.306 37.5991C151.412 37.2126 151.623 36.6622 151.775 36.3694C151.916 36.0766 152.327 35.5261 152.679 35.1397C153.113 34.6595 153.606 34.2847 154.192 33.9802Z" fill="#A588BE"></path><path fill-rule="evenodd" clip-rule="evenodd" d="M51.6389 33.0432C52.0613 33.0784 52.6714 33.1604 52.9882 33.2189C53.3167 33.2892 53.9737 33.5351 54.4547 33.7694C55.0765 34.0739 55.581 34.4369 56.1677 35.0225C56.766 35.6198 57.1297 36.1 57.47 36.7793C57.7281 37.2946 58.0097 38.0324 58.0918 38.4189C58.1856 38.8523 58.2208 39.5901 58.1856 40.3514C58.1387 41.2063 58.0449 41.8036 57.8689 42.2838C57.7281 42.6703 57.4465 43.2793 57.2353 43.6306C57.0359 43.982 56.5431 44.5793 56.1559 44.9775C55.7453 45.3757 55.0883 45.8676 54.6307 46.1135C54.1731 46.3478 53.4927 46.6288 53.1055 46.7459C52.6362 46.8865 52.0144 46.9568 51.2283 46.9568C50.4305 46.9568 49.8321 46.8865 49.3511 46.7459C48.9639 46.6288 48.3539 46.3829 48.0019 46.2072C47.6499 46.0315 47.0633 45.645 46.7113 45.364C46.3593 45.0712 45.8196 44.4739 45.5029 44.0288C45.1978 43.5838 44.8107 42.8225 44.6347 42.3423C44.4118 41.6982 44.3179 41.1595 44.271 40.2928C44.2358 39.4496 44.2827 38.8874 44.4235 38.3018C44.5291 37.8568 44.8107 37.1189 45.0453 36.6622C45.28 36.2171 45.7258 35.5847 46.0191 35.2568C46.3124 34.9405 46.8404 34.4721 47.1923 34.2378C47.5443 34.0036 48.1779 33.6757 48.6237 33.5117C49.0578 33.3478 49.7383 33.1604 50.1489 33.1018C50.5478 33.0432 51.2166 33.0198 51.6389 33.0432V33.0432ZM49.5623 39.0631C49.3276 39.4964 49.2807 39.6955 49.3394 40.1757C49.3746 40.5036 49.5036 40.8901 49.6327 41.0541C49.75 41.218 49.9964 41.4523 50.1607 41.5811C50.407 41.7568 50.6651 41.8153 51.2283 41.8153C51.7915 41.8153 52.0496 41.7568 52.296 41.5811C52.4602 41.4523 52.7066 41.218 52.8356 41.0541C52.9647 40.8901 53.0938 40.5036 53.129 40.1757C53.1759 39.7072 53.129 39.4847 52.8943 39.0631C52.6949 38.7 52.4602 38.4541 52.0965 38.2667C51.8149 38.1261 51.416 38.009 51.2283 38.009C51.0289 38.009 50.6417 38.1261 50.3601 38.2784C49.9964 38.4541 49.7617 38.7 49.5623 39.0631V39.0631ZM80.5007 33.055C81.0052 33.0901 81.7913 33.2541 82.3193 33.4297C82.8355 33.6054 83.5746 33.9568 83.9501 34.2027C84.3372 34.4604 84.8887 34.9405 85.182 35.2568C85.4753 35.5847 85.9211 36.2171 86.1558 36.6622C86.3904 37.1189 86.672 37.8568 86.7776 38.3018C86.9301 38.9108 86.9653 39.4378 86.9184 40.3514C86.8715 41.136 86.7659 41.827 86.6133 42.2838C86.4843 42.6703 86.1558 43.3261 85.8859 43.7478C85.6161 44.1694 85.1233 44.7667 84.7831 45.0946C84.4546 45.4108 83.8093 45.8676 83.3635 46.1135C82.9176 46.3478 82.2371 46.6288 81.85 46.7459C81.4041 46.8748 80.7471 46.9568 80.0314 46.9568C79.4214 46.9568 78.6236 46.8865 78.2716 46.8045C77.9196 46.7108 77.286 46.4766 76.8754 46.2775C76.4648 46.0784 75.8312 45.6802 75.4793 45.3874C75.1155 45.0946 74.5524 44.4622 74.2239 43.982C73.8954 43.5018 73.4965 42.764 73.3557 42.3423C73.1562 41.7919 73.0624 41.218 73.0272 40.2928C72.9802 39.3324 73.0154 38.8171 73.1562 38.2432C73.2618 37.8216 73.5199 37.1423 73.7311 36.7324C73.9306 36.3225 74.3764 35.6901 74.7049 35.327C75.0334 34.964 75.5848 34.4721 75.9368 34.2378C76.2888 34.0036 76.9341 33.6757 77.3916 33.5C77.8492 33.3243 78.5297 33.1487 78.9169 33.0901C79.304 33.0432 80.0197 33.0198 80.5007 33.055V33.055ZM78.295 39.0631C78.0839 39.473 78.0369 39.7189 78.0839 40.1757C78.1073 40.5036 78.2364 40.8901 78.3654 41.0541C78.4945 41.218 78.7409 41.4523 78.9051 41.5811C79.1515 41.7568 79.4096 41.8153 79.9728 41.8153C80.5359 41.8153 80.794 41.7568 81.0404 41.5811C81.2047 41.4523 81.4511 41.218 81.5684 41.0541C81.6974 40.8901 81.8265 40.5036 81.8617 40.1757C81.9204 39.6955 81.8734 39.4964 81.6388 39.0631C81.4393 38.7 81.2047 38.4541 80.841 38.2667C80.5594 38.1261 80.1605 38.009 79.9728 38.009C79.7851 38.009 79.3862 38.1261 79.0928 38.2667C78.7057 38.4658 78.4945 38.6766 78.295 39.0631V39.0631Z" fill="#603084"></path><path d="M90.5437 34.964C90.837 34.1559 91.1421 33.4297 91.2007 33.3477C91.2946 33.2423 92.6673 33.2072 97.6184 33.2306C103.496 33.2658 103.907 33.2775 103.93 33.4649C103.954 33.582 103.684 34.273 103.344 34.9874C102.98 35.7604 102.605 36.3928 102.44 36.5216C102.194 36.6856 101.877 36.7207 100.411 36.7207C98.7916 36.7207 98.6743 36.7324 98.3927 36.9784C98.1815 37.1775 97.6653 38.3838 96.5273 41.3468C95.6708 43.5955 94.8847 45.6333 94.7909 45.8559C94.697 46.0784 94.4976 46.3712 94.345 46.5C94.1104 46.7108 93.8875 46.7342 92.3036 46.7694C91.3298 46.7811 90.4968 46.7577 90.4499 46.7108C90.4029 46.664 91.1538 44.5324 92.1159 41.991C93.0897 39.4495 93.864 37.236 93.8171 36.7793L92.0572 36.7559C90.8136 36.7324 90.2504 36.6856 90.1566 36.5802C90.0392 36.4631 90.1214 36.1234 90.5437 34.964Z" fill="#A588BE"></path><path d="M106.16 36.2523C105.338 34.6712 104.705 33.3477 104.752 33.2892C104.787 33.2423 105.538 33.2072 106.418 33.2072C107.884 33.1955 108.049 33.2189 108.412 33.4649C108.717 33.664 109.011 34.1324 109.644 35.3387C110.102 36.2288 110.536 36.9432 110.618 36.9198C110.7 36.9081 111.568 36.2054 112.554 35.3622C113.539 34.5189 114.56 33.6991 114.818 33.5468C115.264 33.2775 115.405 33.2658 117.693 33.2306C119.018 33.2072 120.133 33.2423 120.18 33.2892C120.227 33.336 118.373 35.0108 116.05 37.0135C112.39 40.164 111.791 40.7144 111.603 41.1712C111.486 41.464 111.04 42.6234 110.606 43.7477C110.172 44.8721 109.726 45.973 109.597 46.1721C109.433 46.4414 109.222 46.5937 108.917 46.6757C108.682 46.7342 107.779 46.7928 106.922 46.7928C105.972 46.7928 105.374 46.7459 105.374 46.6757C105.374 46.6054 105.948 45.0126 106.664 43.127C107.837 40.0117 107.943 39.6838 107.802 39.4144C107.72 39.2505 106.981 37.8333 106.16 36.2523Z" fill="#A588BE"></path><path d="M120.485 34.7532C120.684 34.2613 120.907 33.6991 120.978 33.5234L121.095 33.1955L127.29 33.2306C132.921 33.2658 133.508 33.2892 133.848 33.4649C134.083 33.5937 134.306 33.8514 134.423 34.109C134.548 34.4057 134.583 34.6907 134.529 34.964C134.482 35.1865 134.059 36.3694 133.59 37.5991C133.121 38.8171 132.628 40.0468 132.487 40.3162C132.358 40.5973 132.018 41.0306 131.736 41.3C131.466 41.5694 130.927 41.9559 130.54 42.1784C130.152 42.3892 129.589 42.6468 128.721 42.9279L130.117 44.7667C130.892 45.7856 131.502 46.6523 131.466 46.6991C131.443 46.7577 130.727 46.7928 129.894 46.7928C129.05 46.7928 128.123 46.7225 127.818 46.6405C127.501 46.5586 127.067 46.3243 126.809 46.0901C126.562 45.8676 125.894 45.0712 124.321 42.9865L123.113 42.9514C122.01 42.9279 121.893 42.9514 121.646 43.1856C121.506 43.3378 121.13 44.0991 120.825 44.8838C120.356 46.1018 120.215 46.3595 119.887 46.5586C119.558 46.7694 119.3 46.7928 117.775 46.7928C116.472 46.7928 116.05 46.7577 116.05 46.6405C116.05 46.5703 116.543 45.2117 117.141 43.6306C117.74 42.0495 118.338 40.5739 118.467 40.3514C118.596 40.1288 118.878 39.8477 119.1 39.7423C119.464 39.555 119.945 39.5315 123.617 39.5315C127.454 39.5315 127.759 39.5081 128.217 39.2973C128.498 39.1685 128.791 38.9459 128.885 38.7937C128.979 38.6532 129.19 38.1613 129.366 37.7162C129.531 37.2595 129.66 36.8613 129.66 36.8027C129.66 36.7559 127.63 36.7207 125.143 36.7207C122.362 36.7207 120.532 36.6739 120.391 36.6036C120.227 36.5216 120.156 36.3577 120.145 36.0766C120.133 35.8423 120.285 35.2568 120.485 34.7532Z" fill="#A588BE"></path><path d="M139.175 33.7694C139.527 33.5937 140.16 33.4063 140.583 33.3477C140.993 33.2892 143.539 33.2306 146.238 33.2189C148.936 33.2189 151.154 33.2541 151.189 33.3009C151.212 33.3477 150.931 34.0387 150.567 34.8351C150.133 35.7838 149.804 36.3577 149.617 36.4748C149.37 36.6387 148.666 36.6739 144.9 36.7207C141.169 36.7676 140.442 36.8144 140.289 36.955C140.195 37.0486 140.008 37.4117 139.644 38.3604H143.363C145.416 38.3604 147.129 38.3955 147.176 38.4423C147.223 38.5009 146.977 39.0865 146.625 39.7658C146.285 40.445 145.886 41.1009 145.745 41.2297C145.498 41.4523 145.276 41.464 142.108 41.5225C139.351 41.5694 138.694 41.6162 138.529 41.7568C138.412 41.8505 138.224 42.1432 138.119 42.4009C138.001 42.6586 137.884 42.9865 137.767 43.3964H147.094L146.531 44.6027C146.214 45.2586 145.897 45.9261 145.827 46.0901C145.745 46.2541 145.498 46.4766 145.264 46.5937C144.9 46.7811 144.525 46.8045 141.287 46.7694C137.955 46.7342 137.661 46.7225 137.18 46.4883C136.887 46.3595 136.441 46.0432 136.195 45.7856C135.948 45.5396 135.631 45.0712 135.479 44.7432C135.326 44.427 135.139 43.9 135.057 43.5721C134.974 43.2559 134.916 42.4595 134.916 41.8153C134.928 41.1712 135.01 40.2459 135.115 39.7658C135.221 39.2856 135.444 38.5477 135.62 38.1261C135.784 37.7045 136.136 37.0018 136.406 36.5568C136.664 36.1117 137.251 35.3739 137.708 34.9054C138.213 34.3901 138.764 33.9568 139.175 33.7694Z" fill="#A588BE"></path></svg>