<svg xmlns="http://www.w3.org/2000/svg" width="180" height="80" viewBox="0 0 180 80" fill="none"><path d="M63.3806 45.7374L70.1064 29.794H72.5559L79.2817 45.751H76.2233L74.9085 42.5733H67.7399L66.4252 45.751H63.3806V45.7374ZM68.6533 40.2038H74.0228L71.338 33.6977L68.6533 40.2038Z" fill="#364054"></path><path d="M80.8179 45.7377V34.2049H83.5718V35.917C84.1254 34.6979 85.3985 33.972 87.0455 33.972C87.3637 33.972 87.6405 33.9994 87.8758 34.0405V36.6978C87.5298 36.6292 87.1424 36.5882 86.7133 36.5882C84.7897 36.5882 83.5718 37.7798 83.5718 39.6836V45.7514H80.8179V45.7377Z" fill="#364054"></path><path d="M89.3286 31.2327C89.3286 30.315 90.0621 29.6027 90.9893 29.6027C91.8889 29.6027 92.6361 30.315 92.6361 31.2327C92.6361 32.1504 91.9027 32.8626 90.9893 32.8626C90.0621 32.8626 89.3286 32.1504 89.3286 31.2327ZM89.6054 45.7377V34.2049H92.3732V45.7377H89.6054Z" fill="#364054"></path><path d="M95.4738 42.2173C95.9997 43.0392 97.1344 43.6555 98.546 43.6555C99.9992 43.6555 100.622 43.1076 100.622 42.3954C100.622 42.0119 100.345 41.6832 99.9576 41.4777C99.7085 41.3134 99.2241 41.1626 98.8643 41.0394C98.5183 40.9298 97.8264 40.7243 97.4251 40.56C95.5568 39.9025 94.5603 38.9574 94.5603 37.3138C94.5603 36.2318 94.9478 35.4099 95.7367 34.7935C96.5393 34.1772 97.5219 33.8622 98.6705 33.8622C100.317 33.8622 101.563 34.4374 102.435 35.5606L100.885 37.1905C100.373 36.5467 99.6116 36.2318 98.6152 36.2318C97.7572 36.2318 97.2036 36.6426 97.2036 37.259C97.2036 37.6425 97.4112 37.848 97.7295 38.0534C97.9095 38.163 98.3799 38.3548 98.6705 38.4644C99.0165 38.5602 99.667 38.7794 100.124 38.9437C102.269 39.6971 103.251 40.7243 103.251 42.3817C103.251 44.5047 101.632 46.0388 98.4629 46.0388C96.1242 46.0388 94.3943 45.1485 93.647 43.7103L95.4738 42.2173Z" fill="#364054"></path><path d="M105.411 45.7374V29.794H108.303V45.751H105.411V45.7374Z" fill="#364054"></path><path d="M111.194 45.7377V34.2049H113.948V35.8485C114.501 34.7253 115.816 33.972 117.491 33.972C120.259 33.972 121.905 35.7389 121.905 38.5879V45.7241H119.138V38.9714C119.138 37.3963 118.21 36.4101 116.66 36.4101C115.083 36.4101 113.962 37.5059 113.962 39.081V45.7241H111.194V45.7377Z" fill="#364054"></path><path d="M125.296 45.7375V36.6974H123.4V34.2046H125.296V33.6293C125.296 31.8624 125.67 30.931 126.569 30.2187C127.192 29.712 128.148 29.4654 129.462 29.4654C129.919 29.4654 130.32 29.4928 130.666 29.5613V31.9172C130.459 31.8487 130.084 31.8076 129.6 31.8076C128.563 31.8076 128.078 32.2596 128.078 33.4375V34.2183H130.279V36.7112H128.078V45.7511H125.296V45.7375Z" fill="#364054"></path><path d="M131.885 45.7377V34.2049H134.639V35.917C135.193 34.6979 136.465 33.972 138.112 33.972C138.431 33.972 138.708 33.9994 138.943 34.0405V36.6978C138.596 36.6292 138.209 36.5882 137.78 36.5882C135.856 36.5882 134.639 37.7798 134.639 39.6836V45.7514H131.885V45.7377Z" fill="#364054"></path><path d="M148.947 35.8759V34.2048H151.715V45.7377H148.947V44.0667C148.56 45.1898 147.149 45.9843 145.225 45.9843C143.578 45.9843 142.194 45.409 141.06 44.2721C139.953 43.1079 139.399 41.6834 139.399 39.9713C139.399 38.2592 139.953 36.8346 141.06 35.6978C142.194 34.5335 143.578 33.9583 145.225 33.9583C147.149 33.9583 148.56 34.7527 148.947 35.8759ZM148.117 42.4915C148.809 41.8341 149.156 40.9848 149.156 39.9713C149.156 38.9577 148.809 38.1222 148.117 37.451C147.453 36.7936 146.596 36.4374 145.599 36.4374C144.602 36.4374 143.8 36.7799 143.121 37.451C142.471 38.1084 142.153 38.9577 142.153 39.9713C142.153 40.9848 142.471 41.8204 143.121 42.4915C143.786 43.149 144.602 43.5051 145.599 43.5051C146.596 43.5051 147.453 43.149 148.117 42.4915Z" fill="#364054"></path><path d="M139.579 31.0674C139.827 31.0674 140.049 31.2728 140.049 31.5331C140.049 31.7933 139.827 31.9988 139.579 31.9988C139.329 31.9988 139.094 31.7933 139.094 31.5331C139.094 31.2865 139.329 31.0674 139.579 31.0674Z" fill="#364054"></path><path d="M140.214 30.2317C140.214 29.7249 140.395 29.2866 140.768 28.9442C141.128 28.6017 141.585 28.4237 142.11 28.4237C142.637 28.4237 143.079 28.6017 143.453 28.9442C143.813 29.2866 144.006 29.7249 144.006 30.2317C144.006 30.7385 143.826 31.1768 143.453 31.5192C143.094 31.8616 142.637 32.0397 142.11 32.0397C141.585 32.0397 141.142 31.8616 140.768 31.5192C140.395 31.1768 140.214 30.7522 140.214 30.2317ZM142.872 30.9987C143.079 30.7932 143.176 30.533 143.176 30.2317C143.176 29.9303 143.079 29.6701 142.872 29.4646C142.664 29.2592 142.415 29.1496 142.11 29.1496C141.807 29.1496 141.543 29.2455 141.336 29.4646C141.142 29.6701 141.031 29.9166 141.031 30.2317C141.031 30.533 141.128 30.7932 141.336 30.9987C141.543 31.2042 141.792 31.3 142.11 31.3C142.402 31.3137 142.664 31.2042 142.872 30.9987Z" fill="#364054"></path><path d="M144.505 31.9439V28.5196H145.322V29.0127C145.488 28.684 145.876 28.4511 146.374 28.4511C147.204 28.4511 147.688 28.9716 147.688 29.8208V31.9439H146.858V29.9441C146.858 29.4784 146.581 29.1771 146.124 29.1771C145.654 29.1771 145.322 29.5058 145.322 29.9715V31.9439H144.505Z" fill="#364054"></path><path d="M148.159 30.2317C148.159 29.6838 148.326 29.2592 148.671 28.9168C149.018 28.588 149.446 28.4237 149.973 28.4237C150.47 28.4237 150.885 28.588 151.204 28.9168C151.522 29.2455 151.689 29.6564 151.689 30.1495C151.689 30.2454 151.674 30.3412 151.674 30.4371H148.976C149.004 30.985 149.405 31.3411 150.013 31.3411C150.373 31.3411 150.678 31.2179 150.941 30.9439L151.439 31.4233C151.052 31.8342 150.567 32.0397 149.986 32.0397C149.446 32.0397 149.004 31.8753 148.657 31.5603C148.312 31.2452 148.146 30.8069 148.146 30.2728V30.2317H148.159ZM150.844 29.8755C150.844 29.6701 150.762 29.492 150.582 29.3551C150.415 29.2044 150.208 29.1359 149.973 29.1359C149.723 29.1359 149.488 29.2044 149.308 29.3551C149.128 29.492 149.018 29.6701 149.004 29.8892H150.844V29.8755Z" fill="#364054"></path><path d="M28.0349 50.1889C27.9518 50.3396 28.021 50.4628 28.2009 50.4628H33.0308C33.2107 50.4628 33.4321 50.3396 33.5151 50.1889L37.8745 42.7104C37.9574 42.5597 38.1097 42.5597 38.1927 42.7104L45.2922 54.887C45.3752 55.0377 45.5275 55.0377 45.6105 54.887L48.0324 50.7368C48.1153 50.5861 48.1153 50.3396 48.0324 50.1752L38.2066 33.3142C38.1235 33.1636 37.9713 33.1636 37.8883 33.3142L28.0349 50.1889Z" fill="#FFC117"></path><path d="M43.4245 25.2739C43.3276 25.1233 43.1062 25 42.9263 25H38.0964C37.9165 25 37.8473 25.1233 37.9303 25.2739L52.4614 50.1887C52.5444 50.3395 52.7658 50.4627 52.9458 50.4627H57.7756C57.9555 50.4627 58.0247 50.3395 57.9417 50.1887L43.4245 25.2739Z" fill="#FFC117"></path></svg>