<svg xmlns="http://www.w3.org/2000/svg" width="180" height="80" viewBox="0 0 180 80" fill="none"><path d="M41.7436 33.6892C41.7436 35.592 41.7436 37.4933 41.7436 39.3932C41.7665 41.83 41.0976 44.2232 39.8144 46.2951C37.7942 49.5774 34.8636 51.6294 31.0894 52.464C29.8335 52.7316 28.5443 52.8081 27.2655 52.691C24.4615 52.4611 21.8018 51.3519 19.6656 49.5216C17.5295 47.6913 16.0261 45.2332 15.3698 42.4982C15.1236 41.4618 14.9995 40.4001 15 39.3349C15 35.3405 15 31.3476 15 27.356C15 27.2414 15 27.1269 15 27.0144C15.0083 26.7512 15.1176 26.5013 15.3053 26.3165C15.4929 26.1317 15.7445 26.0263 16.0079 26.0219C16.4783 26.0049 16.9484 26.0626 17.4008 26.1928C19.6825 26.8415 21.0776 28.3334 21.5945 30.6469C21.6714 31.0458 21.704 31.4519 21.6918 31.8579C21.6918 34.2911 21.6918 36.7251 21.6918 39.1597C21.6918 39.9186 21.6918 40.6733 21.6918 41.4409C21.6998 42.9364 22.1956 44.3884 23.1039 45.5766C24.0122 46.7649 25.2835 47.6245 26.7248 48.0249C27.5634 48.2616 28.4406 48.3292 29.3055 48.2237C30.1705 48.1182 31.0057 47.8417 31.7627 47.4104C32.5197 46.9791 33.1833 46.4014 33.7148 45.7112C34.2464 45.0209 34.6352 44.2319 34.8588 43.3899C35.0823 42.548 35.136 41.67 35.0168 40.8071C34.8977 39.9442 34.6079 39.1137 34.1645 38.3638C33.7211 37.6139 33.1329 36.9597 32.4342 36.4393C31.7354 35.9189 30.9401 35.5427 30.0945 35.3326C29.5408 35.1897 28.9706 35.1206 28.3988 35.1271C28.1356 35.1373 27.8841 35.2382 27.6869 35.4129C27.4898 35.5875 27.3592 35.825 27.3174 36.085C27.2716 36.3564 27.3265 36.6352 27.4719 36.869C27.6173 37.1027 27.8431 37.2753 28.1068 37.3542C28.2535 37.3979 28.406 37.4184 28.5589 37.4148C28.9014 37.4171 29.2421 37.4666 29.5711 37.5618C30.4938 37.8126 31.3061 38.3649 31.8782 39.1309C32.4504 39.8969 32.7494 40.8323 32.7278 41.788C32.7061 42.7437 32.365 43.6647 31.7587 44.4039C31.1525 45.1433 30.3161 45.6583 29.3829 45.867C28.4769 46.0645 27.5316 45.971 26.6819 45.5997C25.8321 45.2285 25.1212 44.5987 24.6506 43.7999C24.202 43.0735 23.9653 42.2362 23.9672 41.3825C23.9672 37.5928 23.9672 33.8024 23.9672 30.0113C23.9671 29.7325 24.0102 29.4553 24.0948 29.1896C24.3788 28.2295 24.9782 27.3931 25.7962 26.8155C26.6143 26.2379 27.6031 25.9528 28.6033 26.0064C29.6033 26.0598 30.5561 26.4488 31.3078 27.1103C32.0596 27.7719 32.5663 28.6674 32.7462 29.6523C32.7721 29.7885 32.7894 29.927 32.8197 30.0632C32.8362 30.1642 32.8835 30.2576 32.9552 30.3307C33.0267 30.4039 33.1192 30.4531 33.2198 30.4719C33.3208 30.489 33.4246 30.474 33.5166 30.4289C33.6085 30.384 33.684 30.3112 33.7324 30.221C33.7735 30.1583 33.806 30.0891 33.8449 30.0221C34.3904 29.051 35.137 28.2077 36.0348 27.5484C36.9326 26.8891 37.9609 26.4292 39.0509 26.1992C39.5951 26.0714 40.153 26.0111 40.7119 26.0198C40.9296 26.0204 41.1416 26.09 41.3172 26.2187C41.4929 26.3472 41.6232 26.5282 41.6896 26.7355C41.7244 26.8569 41.739 26.9834 41.7328 27.1096C41.7328 27.3777 41.7328 27.6436 41.7328 27.9096L41.7436 33.6892Z" fill="#00C84B"></path><path d="M94.0696 44.1218V47.6832C94.0696 47.7863 94.0696 47.8887 94.0696 47.9904C94.0704 48.016 94.0606 48.0409 94.0427 48.0596C94.0247 48.0783 94.0003 48.0894 93.9742 48.0906C93.9221 48.0938 93.8699 48.0938 93.8186 48.0906H90.9307C90.8777 48.0906 90.8264 48.0906 90.7758 48.0906C90.7595 48.0906 90.7433 48.0874 90.7286 48.081C90.7131 48.0747 90.7001 48.0654 90.6887 48.0537C90.6781 48.0421 90.6691 48.0282 90.6642 48.0132C90.6585 47.9982 90.6569 47.9823 90.6577 47.9664C90.6577 47.8509 90.6577 47.7355 90.6577 47.62C90.6577 45.3619 90.6577 43.1024 90.6577 40.8413C90.6707 40.612 90.6528 40.382 90.6047 40.1573C90.4906 39.6733 90.2323 39.2334 89.8632 38.8932C89.4937 38.5532 89.0297 38.3282 88.5299 38.247C88.0551 38.1434 87.5602 38.1713 87.1005 38.3274C86.6409 38.4836 86.2345 38.7619 85.9268 39.1314C85.532 39.5651 85.3193 40.1294 85.3315 40.7106C85.3315 42.3313 85.3315 43.9526 85.3315 45.5747V47.681C85.3315 47.7835 85.3315 47.8858 85.3315 47.986C85.3321 47.9988 85.3301 48.0118 85.3256 48.0238C85.3212 48.036 85.3143 48.0471 85.3054 48.0566C85.2965 48.0661 85.2858 48.0738 85.2739 48.0793C85.262 48.0847 85.2491 48.0879 85.236 48.0884C85.1849 48.0884 85.1316 48.0884 85.0806 48.0884H82.1553C82.102 48.0884 82.0509 48.0884 81.9976 48.0884C81.9816 48.0881 81.9657 48.0847 81.951 48.0784C81.9363 48.0721 81.923 48.0631 81.9118 48.0517C81.9008 48.0404 81.892 48.027 81.8861 48.0124C81.8802 47.9978 81.8774 47.9821 81.8777 47.9664C81.8777 47.8509 81.8777 47.7355 81.8777 47.6222V40.8042C81.8872 40.5854 81.8709 40.366 81.8288 40.1508C81.7026 39.6894 81.4517 39.2699 81.1027 38.9366C80.7537 38.6033 80.3194 38.3685 79.8457 38.257C79.3721 38.1456 78.8764 38.1614 78.4112 38.303C77.9459 38.4446 77.5283 38.7067 77.2022 39.0617C76.783 39.4914 76.5497 40.0636 76.5515 40.6583C76.5515 41.2835 76.5515 41.9087 76.5515 42.536V47.7442C76.5515 48.1014 76.5515 48.084 76.2161 48.084H73.493C73.413 48.084 73.3352 48.084 73.2575 48.084C73.2414 48.0838 73.2255 48.0803 73.2107 48.0739C73.196 48.0674 73.1827 48.0581 73.1717 48.0465C73.1608 48.0349 73.1522 48.0213 73.1468 48.0063C73.1413 47.9915 73.1389 47.9756 73.1398 47.9598C73.1398 47.8836 73.1398 47.8052 73.1398 47.729C73.1398 45.3677 73.1398 43.0057 73.1398 40.6431C73.1361 39.952 73.2727 39.267 73.5418 38.6282C73.8128 37.9677 74.2234 37.371 74.7468 36.8776C75.2702 36.3842 75.8944 36.0054 76.5781 35.7659C77.9767 35.241 79.5081 35.1603 80.9559 35.5351C81.8709 35.7578 82.7089 36.2157 83.3836 36.8616C83.4213 36.8986 83.4613 36.9335 83.4968 36.9706C83.506 36.9835 83.518 36.9942 83.532 37.002C83.5459 37.0098 83.5615 37.0144 83.5774 37.0154C83.5935 37.0164 83.6095 37.014 83.6245 37.008C83.6393 37.0022 83.6527 36.9931 83.6635 36.9814C83.7434 36.9139 83.8167 36.8398 83.8855 36.7636C84.8074 35.96 85.967 35.4662 87.195 35.3543C88.2727 35.2265 89.366 35.3351 90.3953 35.6723C92.1481 36.2669 93.3321 37.4149 93.8626 39.1815C94.006 39.6595 94.0753 40.1558 94.0696 40.654C94.0671 41.8302 94.0696 42.9782 94.0696 44.1218Z" fill="#3D2C84"></path><path d="M117.096 46.9391V53.371C117.096 53.476 117.096 53.581 117.096 53.6836C117.096 53.8757 117.079 53.8912 116.912 53.9069C116.838 53.9069 116.764 53.9069 116.689 53.9069H114.231C114.132 53.9069 114.032 53.9069 113.933 53.9069C113.921 53.9075 113.908 53.9055 113.897 53.9009C113.886 53.8964 113.875 53.8893 113.866 53.8804C113.857 53.8714 113.85 53.8607 113.845 53.8487C113.841 53.8367 113.838 53.8239 113.838 53.8109C113.838 53.7186 113.838 53.6271 113.838 53.5363C113.838 49.741 113.838 45.9457 113.838 42.1504C113.826 41.166 113.994 40.1884 114.33 39.2704C114.641 38.3745 115.154 37.5721 115.825 36.9329C116.496 36.2937 117.305 35.837 118.18 35.6024C119.564 35.1919 121.03 35.2028 122.408 35.6337C124.207 36.1896 125.422 37.4398 126.11 39.2659C126.545 40.4546 126.71 41.7349 126.59 43.0032C126.547 43.6566 126.414 44.2998 126.194 44.912C125.395 47.0196 123.936 48.2608 121.81 48.6314C121 48.7821 120.169 48.737 119.378 48.4997C118.586 48.2669 117.875 47.7905 117.339 47.1312C117.284 47.062 117.227 46.9972 117.17 46.9302L117.096 46.9391ZM123.3 42.0745C123.307 41.7044 123.276 41.3346 123.207 40.9716C123.146 40.6639 123.052 40.3643 122.928 40.0786C122.222 38.4756 120.755 37.9421 119.269 38.3998C118.893 38.5197 118.546 38.7232 118.251 38.9966C117.956 39.27 117.72 39.607 117.559 39.9848C117.248 40.6585 117.102 41.404 117.135 42.1526C117.139 42.849 117.304 43.5338 117.618 44.1463C117.816 44.5496 118.098 44.9 118.444 45.1708C118.789 45.4416 119.188 45.6257 119.611 45.7091C119.917 45.7626 120.228 45.7739 120.537 45.7426C121.06 45.7109 121.562 45.515 121.979 45.18C122.417 44.8266 122.758 44.3555 122.964 43.8158C123.19 43.2666 123.304 42.6734 123.3 42.0745Z" fill="#3D2C84"></path><path d="M54.3044 37.1937C54.3484 37.1853 54.39 37.1677 54.4265 37.1421C54.463 37.1165 54.4935 37.0834 54.5161 37.0451C55.1846 36.2553 56.1271 35.7405 57.1592 35.6014C58.1947 35.4308 59.2577 35.5392 60.2361 35.9153C61.963 36.5764 63.0444 37.8361 63.5691 39.5748C63.768 40.2721 63.8572 40.9954 63.8336 41.7195C63.8335 42.6173 63.6664 43.5074 63.3406 44.3454C62.5174 46.3772 61.0128 47.5928 58.8268 47.9653C57.6373 48.1842 56.4124 48.1211 55.2525 47.7811C53.2611 47.1785 51.9851 45.854 51.365 43.9018C51.1681 43.2681 51.062 42.6103 51.0497 41.9475C51.0497 41.7258 51.0497 41.5061 51.0497 41.2843C51.0497 37.8863 51.0497 34.4889 51.0497 31.0923C51.0497 30.5817 50.9799 30.657 51.5089 30.6529H53.9298C54.0166 30.6529 54.1033 30.6529 54.1901 30.6529C54.2057 30.6518 54.2214 30.6538 54.2362 30.659C54.2509 30.6641 54.2644 30.6723 54.2758 30.683C54.2871 30.6936 54.2961 30.7065 54.3022 30.7208C54.3081 30.735 54.3111 30.7504 54.3108 30.7659C54.3108 30.8767 54.3108 30.9856 54.3108 31.0964V37.1937H54.3044ZM60.507 41.822C60.5231 41.2194 60.4045 40.6208 60.16 40.0686C59.4573 38.5077 57.9613 37.9993 56.4608 38.4366C55.6249 38.6792 55.0684 39.2589 54.7043 40.0268C54.5002 40.4747 54.3791 40.9551 54.3467 41.4454C54.2754 42.1815 54.4009 42.9233 54.7107 43.5964C55.3096 44.8644 56.482 45.5318 58.0501 45.2703C58.4805 45.1967 58.8868 45.022 59.2348 44.7609C59.5827 44.4999 59.8623 44.16 60.0499 43.77C60.3683 43.17 60.5256 42.4993 60.507 41.822Z" fill="#3D2C84"></path><path d="M145.402 45.7982C145.318 45.9257 145.249 46.0278 145.18 46.13C144.634 46.9915 143.792 47.6201 142.814 47.8955C141.742 48.2018 140.6 48.1508 139.559 47.7502C138.518 47.3495 137.634 46.6206 137.039 45.6726C136.476 44.8027 136.121 43.8132 136.001 42.7818C135.869 41.8157 135.921 40.8332 136.156 39.8868C136.43 38.7449 137.036 37.7111 137.897 36.9174C138.758 36.1237 139.835 35.606 140.989 35.4304C142.104 35.226 143.25 35.2666 144.346 35.5495C146.21 36.0537 147.487 37.2385 148.218 39.0253C148.547 39.8357 148.716 40.7026 148.715 41.5779C148.728 43.5625 148.715 45.545 148.715 47.5338C148.718 47.5835 148.718 47.6332 148.715 47.6828C148.715 47.7076 148.706 47.7317 148.689 47.7498C148.672 47.7679 148.649 47.779 148.625 47.7806C148.563 47.7838 148.5 47.7838 148.438 47.7806H145.719H145.571C145.556 47.7807 145.54 47.7775 145.526 47.7713C145.512 47.7651 145.499 47.756 145.488 47.7446C145.478 47.7332 145.47 47.7198 145.465 47.7051C145.46 47.6905 145.458 47.6748 145.459 47.6594C145.459 47.5721 145.459 47.485 145.459 47.3977C145.459 46.9496 145.459 46.5008 145.459 46.0512C145.467 46.0074 145.466 45.9623 145.456 45.9189C145.446 45.8753 145.428 45.8343 145.402 45.7982ZM145.387 41.6778C145.387 41.5162 145.398 41.3524 145.387 41.1929C145.341 40.556 145.133 39.9417 144.785 39.4082C144.435 38.8552 143.901 38.4451 143.279 38.251C142.659 38.0564 141.996 38.0564 141.376 38.251C140.978 38.3784 140.614 38.5912 140.306 38.8748C139.999 39.1584 139.756 39.5059 139.596 39.8932C139.393 40.3491 139.277 40.8389 139.253 41.3375C139.191 42.0641 139.309 42.795 139.596 43.4647C140.299 45.0643 141.831 45.5578 143.298 45.1259C144.108 44.8877 144.649 44.3155 145.009 43.5668C145.291 42.9761 145.421 42.3237 145.387 41.6693V41.6778Z" fill="#3D2C84"></path><path d="M107.024 45.838L106.813 46.1364C106.308 46.9323 105.551 47.533 104.665 47.8414C104.013 48.0544 103.326 48.1334 102.644 48.0737C102.224 48.0486 101.807 47.9728 101.403 47.8478C100.409 47.5182 99.5412 46.8869 98.9167 46.0404C98.3395 45.2731 97.9422 44.3843 97.7537 43.4403C97.4597 42.1936 97.4977 40.8908 97.8639 39.6637C98.6017 37.3043 100.19 35.8935 102.611 35.4374C103.675 35.2349 104.769 35.2603 105.823 35.512C106.663 35.6957 107.449 36.0735 108.12 36.6157C108.79 37.158 109.326 37.8496 109.686 38.6364C110.122 39.5502 110.347 40.5512 110.344 41.5648C110.354 42.7497 110.344 43.9369 110.344 45.124C110.344 45.8742 110.344 46.6237 110.344 47.3725C110.344 47.4727 110.344 47.5728 110.344 47.673C110.346 47.6885 110.344 47.7042 110.339 47.719C110.334 47.7338 110.326 47.7475 110.316 47.7591C110.306 47.7707 110.293 47.78 110.279 47.7865C110.265 47.7929 110.25 47.7964 110.234 47.7966H110.048H107.371C107.308 47.7966 107.247 47.7966 107.185 47.7966C107.16 47.7966 107.136 47.7868 107.119 47.7693C107.101 47.7518 107.091 47.728 107.09 47.7029C107.09 47.6154 107.09 47.5281 107.09 47.4407C107.09 46.9783 107.09 46.5158 107.09 46.0533C107.079 45.9893 107.111 45.9126 107.024 45.838ZM107.043 41.6799C107.029 41.4667 107.022 41.2536 106.997 41.0405C106.937 40.4792 106.75 39.9395 106.449 39.4634C106.247 39.1321 105.98 38.8464 105.664 38.6241C105.348 38.4018 104.99 38.2478 104.611 38.1718C104.305 38.1171 103.994 38.1028 103.685 38.1291C103.087 38.1559 102.515 38.3806 102.057 38.7686C101.63 39.1352 101.308 39.6086 101.12 40.141C100.909 40.7568 100.83 41.4105 100.887 42.0592C100.917 42.5582 101.039 43.0473 101.245 43.5021C101.945 45.0558 103.471 45.5588 104.935 45.1219C105.285 45.011 105.61 44.8296 105.889 44.5886C106.167 44.3475 106.395 44.0518 106.557 43.7195C106.883 43.0903 107.05 42.3898 107.043 41.6799Z" fill="#3D2C84"></path><path d="M164.95 48.0588C164.87 48.0908 164.784 48.1006 164.699 48.0872H161.959C161.82 48.0872 161.801 48.061 161.795 47.9018C161.795 47.7994 161.795 47.6969 161.795 47.5945C161.795 45.4332 161.795 43.2735 161.795 41.1151C161.802 40.822 161.774 40.5291 161.712 40.2431C161.569 39.6606 161.248 39.1436 160.798 38.7714C160.348 38.3993 159.794 38.1926 159.222 38.1832C158.65 38.1738 158.09 38.3622 157.629 38.7194C157.168 39.0765 156.832 39.5828 156.672 40.1602C156.6 40.4447 156.565 40.738 156.568 41.0322C156.568 43.2124 156.568 45.3976 156.568 47.5879C156.568 48.1743 156.643 48.0849 156.082 48.0893C155.291 48.0893 154.501 48.0893 153.708 48.0893H153.489C153.474 48.0902 153.459 48.0878 153.445 48.0823C153.431 48.0768 153.418 48.0682 153.407 48.0571C153.396 48.0461 153.387 48.0328 153.382 48.0181C153.376 48.0033 153.373 47.9875 153.373 47.9716C153.373 47.8822 153.373 47.7928 153.373 47.7034C153.373 45.4797 153.373 43.256 153.373 41.0322C153.354 40.0953 153.552 39.1675 153.95 38.3289C154.271 37.6722 154.717 37.0919 155.26 36.6245C155.804 36.157 156.434 35.8125 157.11 35.6125C157.94 35.3514 158.81 35.2539 159.673 35.3247C160.344 35.3527 161.005 35.4925 161.633 35.739C163.536 36.5412 164.643 38.007 164.955 40.1362C164.988 40.4255 165.001 40.717 164.994 41.0083C164.994 43.232 164.994 45.455 164.994 47.6772C165.01 47.8063 164.995 47.9373 164.95 48.0588Z" fill="#3D2C84"></path><path d="M130.118 39.3822C130.118 36.6113 130.118 33.8434 130.118 31.0782C130.118 30.6056 130.059 30.6524 130.559 30.6524H133.187C133.294 30.6524 133.4 30.6524 133.504 30.6524C133.531 30.653 133.556 30.6633 133.575 30.6812C133.593 30.6992 133.604 30.7232 133.604 30.7482C133.604 30.8362 133.604 30.9235 133.604 31.0101V47.7051C133.604 48.1203 133.636 48.0926 133.201 48.0926H130.259C130.159 48.0926 130.118 48.0373 130.118 47.95C130.118 47.8627 130.118 47.7264 130.118 47.6136V39.3822Z" fill="#3D2C84"></path><path d="M66.1636 41.7028V35.7307C66.1636 35.2525 66.1253 35.3039 66.5804 35.3039H69.2387C69.3424 35.3039 69.4483 35.3039 69.5541 35.3039C69.5672 35.3039 69.5802 35.3066 69.5922 35.3116C69.6043 35.3167 69.6152 35.3243 69.6242 35.3336C69.6333 35.343 69.6403 35.3542 69.645 35.3663C69.6495 35.3785 69.6516 35.3915 69.651 35.4044C69.651 35.4961 69.651 35.5877 69.651 35.6793V47.7038C69.651 48.1217 69.6735 48.0926 69.2702 48.0926H66.3055C66.2041 48.0926 66.1681 48.0346 66.1659 47.9451C66.1636 47.8558 66.1659 47.7351 66.1659 47.6301L66.1636 41.7028Z" fill="#3D2C84"></path><path d="M68.468 30.6529C69.7105 30.6071 70.8164 31.4884 70.814 32.4192C70.7946 32.8805 70.541 33.3179 70.1071 33.6389C69.673 33.96 69.0926 34.1395 68.4884 34.1395C67.8842 34.1395 67.3037 33.96 66.8698 33.6389C66.4357 33.3179 66.1822 32.8805 66.1628 32.4192C66.169 31.9532 66.4137 31.5075 66.8444 31.1774C67.2752 30.8473 67.8579 30.6591 68.468 30.6529Z" fill="#3D2C84"></path></svg>