<svg xmlns="http://www.w3.org/2000/svg" width="200" height="80" viewBox="0 0 200 80" fill="none"><path d="M59.2372 16.0019C57.4004 19.2347 55.5666 22.467 53.7359 25.6986L45.2636 40.6251C45.203 40.7321 45.1396 40.8354 45.0303 41.0205C45.0175 40.8298 45.0028 40.7191 45.0028 40.6084C45.0028 39.3991 44.9927 38.1898 45.011 36.9805C45.0143 36.7373 45.0758 36.4985 45.1901 36.2847C48.9593 29.6298 52.7337 22.978 56.5132 16.3293C56.572 16.2251 56.6152 16.1098 56.6648 16L59.2372 16.0019Z" fill="#015089"></path><path d="M98.9162 64.0019C98.6958 63.9535 98.4744 63.9089 98.2559 63.8568C96.8039 63.5005 95.7174 62.2112 95.5365 60.5917C95.3996 59.361 95.5365 58.1731 96.2877 57.1498C97.6369 55.3042 100.39 55.2419 101.819 57.0131C101.856 57.0577 101.895 57.1005 102.028 57.2568V55.8931H102.915V63.7814H102.044V62.2C101.734 62.5638 101.522 62.8372 101.285 63.0856C100.74 63.6577 100.033 63.881 99.2845 64.0038L98.9162 64.0019ZM99.1486 56.6317C98.1787 56.5591 97.4275 57.0121 96.9444 57.9042C96.3548 58.9907 96.2427 60.1293 96.6946 61.2996C97.4835 63.3386 99.8631 63.7238 101.226 62.0251C101.931 61.147 102.144 60.1377 101.961 59.0224C101.726 57.5693 100.658 56.6317 99.1486 56.6317Z" fill="#015089"></path><path d="M126.841 64.0018C126.605 63.9535 126.368 63.9088 126.134 63.8539C124.651 63.4735 123.695 62.5358 123.36 61.0223C123.009 59.4409 123.224 57.9525 124.413 56.7693C125.527 55.6586 126.881 55.4483 128.314 55.9981C129.732 56.5414 130.351 57.6939 130.426 59.1795C130.441 59.4409 130.426 59.7051 130.426 60.0232H124.307C124.073 61.1702 124.852 62.5237 125.992 62.9442C127.132 63.3646 128.726 63.2149 129.55 61.5488L130.302 61.8065C130.06 62.8297 128.924 63.7479 127.73 63.9023C127.586 63.9279 127.442 63.9612 127.301 64.0018H126.841ZM129.454 59.2707C129.386 57.4688 128.26 56.4056 126.633 56.5563C125.261 56.6828 124.185 57.9414 124.318 59.2707H129.454Z" fill="#015089"></path><path d="M138.965 64.0018C138.821 63.9627 138.676 63.9316 138.529 63.9088C137.294 63.7776 136.476 62.9032 136.407 61.6065H137.256C137.709 62.9302 138.818 63.4828 140.055 62.9888C140.557 62.7888 140.903 62.4474 140.942 61.8623C140.98 61.2939 140.705 60.8986 140.22 60.6874C139.735 60.4762 139.239 60.3581 138.751 60.1841C138.364 60.0465 137.961 59.9302 137.606 59.7293C136.841 59.2939 136.504 58.6028 136.573 57.7116C136.635 56.8995 137.086 56.3553 137.783 56.0372C138.769 55.5925 139.778 55.5934 140.744 56.106C141.474 56.4921 141.791 57.1507 141.812 58.0046H140.945C140.62 56.7255 139.396 56.1814 138.197 56.7888C137.751 57.0139 137.495 57.373 137.49 57.8921C137.484 58.4111 137.733 58.8009 138.203 58.9758C138.889 59.2297 139.601 59.4074 140.292 59.6511C141.205 59.9721 141.793 60.6093 141.882 61.6046C141.99 62.8055 141.155 63.7441 139.904 63.8995C139.741 63.92 139.584 63.9665 139.423 64.0009L138.965 64.0018Z" fill="#015089"></path><path d="M69.6355 43.3293C68.4718 45.3758 67.3284 47.3814 66.1832 49.3907C63.5032 54.0958 60.8236 58.8016 58.1443 63.5079C58.013 63.7396 57.8688 63.8279 57.607 63.8214C56.9044 63.8019 56.2009 63.8149 55.4579 63.8149C55.4878 63.7249 55.5234 63.637 55.5645 63.5516C61.9321 52.3721 68.3025 41.1944 74.6757 30.0186C74.8208 29.7647 74.841 29.5889 74.684 29.3182C73.074 26.5275 71.4842 23.7191 69.888 20.9172C69.8274 20.8103 69.7585 20.7089 69.6492 20.5349C61.4423 34.9256 53.2583 49.2735 45.0037 63.7461C45.0037 62.1898 45.0037 60.7693 45.011 59.3572C45.011 59.2316 45.1074 59.1005 45.1745 58.9851C50.8209 49.0782 56.4673 39.173 62.1137 29.2698C64.5426 25.0093 66.9736 20.7495 69.4068 16.4903C69.4821 16.3572 69.5629 16.2279 69.6649 16.0568L72.3659 20.7916C73.9921 23.6444 75.6214 26.4971 77.2537 29.3498C77.3878 29.5833 77.3813 29.7368 77.2537 29.9665C75.2222 33.5135 73.2127 37.0707 71.1701 40.614C70.9754 40.9516 71.014 41.1851 71.1913 41.494C73.2118 45.0121 75.2258 48.5337 77.2335 52.0586C77.3648 52.2884 77.4098 52.4586 77.2592 52.7209C75.2191 56.2806 73.1909 59.8465 71.1747 63.4186C71.0103 63.7098 70.8441 63.8335 70.5034 63.8168C69.832 63.7842 69.1579 63.8075 68.403 63.8075C68.8567 63.0047 69.2837 62.2465 69.7135 61.4893C71.3814 58.5529 73.0477 55.6146 74.7124 52.6744C74.7512 52.6004 74.7737 52.5189 74.7787 52.4352C74.7836 52.3516 74.7707 52.2679 74.7409 52.1898C73.0878 49.262 71.4233 46.3399 69.7475 43.4233C69.7291 43.4047 69.6998 43.3889 69.6355 43.3293Z" fill="#015089"></path><path d="M87.8467 23.8615C88.079 23.8615 88.3059 23.8615 88.53 23.8615C89.9076 23.8801 91.2852 23.8615 92.6555 23.9275C94.8854 24.027 96.1565 26.0717 95.3308 28.1759C95.0415 28.9145 94.4932 29.3731 93.7512 29.6112C93.7805 29.6531 93.7925 29.6921 93.8127 29.6968C95.3235 30.0382 95.925 31.3015 95.7873 32.8363C95.6614 34.2056 94.8073 35.2549 93.3149 35.3712C91.5102 35.5098 89.6881 35.4047 87.8467 35.4047V23.8615ZM90.2024 33.7163C90.267 33.734 90.3331 33.7455 90.3999 33.7508C90.9509 33.7331 91.4955 33.7228 92.0429 33.6894C92.8649 33.6382 93.3865 33.1415 93.4361 32.387C93.5013 31.3917 93.0972 30.7461 92.2165 30.6354C91.5617 30.5535 90.8894 30.6196 90.2024 30.6196V33.7163ZM90.1914 28.8791C90.9684 28.7731 91.7022 28.7433 92.3956 28.5554C92.9788 28.3973 93.2378 27.8112 93.2029 27.1452C93.168 26.4791 92.864 25.9359 92.3157 25.8298C91.6287 25.6931 90.9179 25.6754 90.1923 25.6038L90.1914 28.8791Z" fill="#015089"></path><path d="M140.415 35.4437H138.263V34.9237C138.263 33.5283 138.269 32.133 138.263 30.7376C138.266 30.4295 138.231 30.1222 138.157 29.8232C138.008 29.2651 137.685 29.0251 137.141 28.986C136.596 28.9469 136.13 29.1823 135.947 29.6679C135.82 30.0163 135.754 30.3841 135.75 30.7553C135.728 32.2744 135.738 33.7934 135.735 35.3134C135.728 35.3549 135.717 35.3954 135.701 35.4344H133.578V34.9255C133.572 33.4065 133.578 31.8874 133.557 30.3674C133.547 29.6614 133.201 29.1581 132.701 29.0241C131.953 28.8223 131.275 29.2669 131.152 30.0604C131.103 30.3973 131.077 30.7375 131.077 31.0781C131.069 32.5172 131.077 33.9572 131.077 35.4316H128.976V27.4725H131.051V28.2809L131.136 28.3739C131.638 27.5367 132.346 27.1404 133.291 27.1553C134.236 27.1702 134.983 27.5088 135.43 28.4018C135.479 28.3814 135.54 28.3776 135.556 28.3479C136.301 27.0055 138.036 26.9618 139.054 27.3693C139.952 27.7283 140.383 28.4855 140.403 29.4065C140.445 31.3981 140.415 33.3972 140.415 35.4437Z" fill="#015089"></path><path d="M127.827 32.0019H122.109C122.048 32.7516 122.598 33.4828 123.408 33.7572C124.438 34.1051 125.284 33.7451 125.963 32.6409L127.698 33.1535C127.321 34.5721 126.051 35.5926 124.533 35.7088C122.681 35.8512 121.134 35.0233 120.382 33.4865C119.599 31.8874 119.842 29.7544 120.954 28.4633C122.034 27.2093 123.741 26.7805 125.394 27.347C126.843 27.8456 127.73 29.1302 127.824 30.8819C127.843 31.2353 127.827 31.5888 127.827 32.0019ZM125.685 30.493C125.593 29.3498 124.817 28.7684 123.629 28.9116C122.767 29.013 122.084 29.7563 122.187 30.493H125.685Z" fill="#015089"></path><path d="M104.683 32.0019H98.9585C98.9337 32.8066 99.4811 33.5098 100.315 33.7693C101.325 34.0875 102.127 33.7359 102.824 32.641L104.558 33.1554C104.191 34.5507 102.952 35.5582 101.435 35.7079C99.5885 35.894 97.9914 35.0298 97.2245 33.4391C96.4329 31.7972 96.7249 29.5749 97.9418 28.3228C99.1927 27.041 100.713 26.8 102.341 27.3805C103.919 27.9386 104.545 29.241 104.681 30.8372C104.708 31.2028 104.683 31.574 104.683 32.0019ZM102.566 30.4875C102.394 29.3275 101.698 28.7963 100.557 28.8977C99.6758 28.9768 98.9961 29.6772 99.0173 30.4875H102.566Z" fill="#015089"></path><path d="M149.422 31.9888H143.692C143.675 32.8037 144.23 33.5125 145.055 33.7683C146.077 34.0855 146.878 33.7321 147.56 32.6428C147.84 32.7209 148.132 32.7981 148.421 32.8846C148.711 32.9711 149.003 33.0707 149.292 33.1581C148.961 34.5069 147.743 35.5162 146.229 35.7023C144.325 35.9367 142.58 34.9507 141.873 33.239C141.103 31.3786 141.605 29.1246 143.073 27.9646C144.379 26.933 145.829 26.8483 147.309 27.4772C148.737 28.0846 149.277 29.3376 149.416 30.8102C149.451 31.1767 149.422 31.5507 149.422 31.9888ZM147.287 30.479C147.23 29.4074 146.461 28.7888 145.334 28.8883C144.415 28.9693 143.69 29.706 143.772 30.479H147.287Z" fill="#015089"></path><path d="M112.875 33.1451H114.921C114.955 33.2502 114.989 33.3637 115.031 33.4735C115.25 34.0428 115.834 34.3274 116.366 34.0512C116.589 33.9349 116.825 33.6502 116.859 33.414C116.889 33.2046 116.696 32.8753 116.504 32.7442C116.183 32.5256 115.782 32.4288 115.42 32.2698C114.904 32.0428 114.35 31.8726 113.887 31.5628C112.565 30.68 112.558 28.6186 113.887 27.7423C115.09 26.9516 116.399 26.9246 117.688 27.5367C118.567 27.9544 118.896 28.746 118.941 29.7246H116.963C116.746 28.9293 116.228 28.5619 115.574 28.827C115.31 28.9522 115.106 29.1774 115.005 29.454C114.905 29.7702 115.136 30.0502 115.448 30.1758C115.857 30.3405 116.285 30.4549 116.696 30.6186C117.149 30.7981 117.621 30.9563 118.029 31.213C119.391 32.067 119.435 34.1609 118.134 35.12C117.096 35.8846 115.172 35.9767 114.076 35.306C113.3 34.8205 112.917 34.1051 112.875 33.1451Z" fill="#015089"></path><path d="M105.626 33.1451H107.689C107.964 33.9172 108.229 34.1572 108.783 34.1414C109.204 34.1293 109.54 33.9479 109.651 33.52C109.762 33.0921 109.514 32.8056 109.147 32.6419C108.813 32.493 108.461 32.3861 108.121 32.2521C107.753 32.1061 107.374 31.973 107.019 31.7944C106.035 31.294 105.586 30.4847 105.715 29.3656C105.834 28.3423 106.437 27.7042 107.349 27.3768C108.237 27.0549 109.206 27.0484 110.098 27.3581C111.108 27.7005 111.68 28.5488 111.703 29.7265H109.743C109.518 28.9563 109.034 28.6102 108.405 28.7805C108.076 28.8735 107.818 29.0372 107.782 29.4316C107.745 29.8261 107.938 30.0651 108.257 30.1981C108.651 30.3619 109.068 30.4679 109.468 30.6186C109.87 30.7633 110.265 30.9284 110.651 31.1135C112.343 31.9609 112.151 34.3693 110.796 35.1926C109.534 35.9619 108.204 35.9647 106.897 35.3181C106.053 34.8958 105.736 34.0977 105.626 33.1451Z" fill="#015089"></path><path d="M89.1095 59.1647V63.7814H88.2021V52.4326C88.3193 52.4153 88.4374 52.4054 88.5557 52.4028C89.8213 52.454 91.0979 52.4214 92.3488 52.5889C93.9496 52.7991 95.0948 54.04 94.9653 56.1731C94.8671 57.7833 93.7393 59.0159 92.0641 59.1498C91.1089 59.2261 90.1437 59.1647 89.1095 59.1647ZM89.1141 58.3377C90.0325 58.3377 90.9032 58.3861 91.7674 58.3266C92.3544 58.2956 92.9102 58.0493 93.331 57.6337C93.7518 57.218 94.0089 56.6615 94.0543 56.068C94.1544 54.76 93.4481 53.6633 92.1825 53.4326C91.1879 53.2466 90.162 53.2791 89.1114 53.2112L89.1141 58.3377Z" fill="#015089"></path><path d="M152.811 28.374C153.271 27.4484 154.005 27.1135 155 27.1721V29.3786C154.858 29.3786 154.712 29.3786 154.564 29.3786C153.583 29.3954 152.844 30.1061 152.827 31.1005C152.805 32.3712 152.818 33.6428 152.816 34.9144C152.816 35.0819 152.816 35.2484 152.816 35.441H150.66V27.4651H152.811V28.374Z" fill="#015089"></path><path d="M136.893 45.8726H130.762C130.537 47.0242 131.349 48.4009 132.469 48.8223C133.534 49.2214 135.184 49.1302 136.021 47.4214L136.83 47.6921C136.349 48.827 135.526 49.5163 134.364 49.7442C131.783 50.2502 129.718 48.493 129.692 45.8289C129.679 44.413 130.103 43.1982 131.239 42.3302C132.404 41.4391 133.697 41.3656 135.004 41.9582C136.28 42.5395 136.799 43.6568 136.917 45.0056C136.936 45.2205 136.927 45.4382 136.925 45.6568C136.919 45.7293 136.908 45.8015 136.893 45.8726ZM135.92 45.1284C135.976 43.5609 134.888 42.4242 133.371 42.413C131.902 42.4037 130.751 43.5963 130.77 45.1284H135.92Z" fill="#015089"></path><path d="M94.8983 38.2707H95.9086C95.6927 38.8838 95.4944 39.4605 95.2877 40.0335C94.1737 43.1238 93.0532 46.2112 91.9521 49.3061C91.8446 49.6075 91.7114 49.707 91.401 49.6996C91.1071 49.6921 90.9501 49.64 90.8399 49.321C89.577 45.6624 88.2931 42.0103 86.988 38.2772C87.3104 38.2772 87.6089 38.2475 87.8963 38.2931C87.9955 38.3089 88.0984 38.4996 88.1434 38.6298C89.1977 41.6921 90.2481 44.7563 91.2945 47.8224C91.3128 47.8754 91.3422 47.9247 91.4084 48.0652C92.5894 44.7461 93.7448 41.5033 94.8983 38.2707Z" fill="#015089"></path><path d="M101.874 47.4196L102.621 47.6931C102.119 49.1321 100.517 50.04 98.9134 49.8149C96.8461 49.5238 95.553 48.0066 95.5208 45.8707C95.497 44.3247 95.9966 43.0475 97.2925 42.161C99.0834 40.9368 102.594 41.5526 102.756 45.161C102.766 45.3759 102.756 45.5907 102.756 45.8791H96.5743C96.3998 47.0735 97.1758 48.3907 98.2733 48.8149C99.6721 49.3619 100.895 48.8959 101.874 47.4196ZM101.722 45.1266C101.9 43.7024 100.779 42.4726 99.2771 42.4177C98.9222 42.4033 98.5682 42.4635 98.2373 42.5945C97.9065 42.7256 97.6061 42.9246 97.355 43.1791C97.1039 43.4336 96.9076 43.7381 96.7784 44.0732C96.6493 44.4084 96.5901 44.7671 96.6046 45.1266H101.722Z" fill="#015089"></path><path d="M105.128 42.854C105.79 42.1387 106.488 41.7703 107.312 41.6382C109.169 41.3396 110.582 42.5322 110.592 44.4289C110.601 46.161 110.592 47.894 110.592 49.6549H109.674V49.1759C109.674 47.6577 109.665 46.1387 109.674 44.6177C109.681 43.7861 109.47 43.0642 108.697 42.6642C107.859 42.2335 106.991 42.2922 106.207 42.7954C105.5 43.2494 105.105 43.9033 105.126 44.814C105.162 46.2531 105.135 47.6977 105.135 49.1359V49.6568H104.247V41.7908H105.118L105.128 42.854Z" fill="#015089"></path><path d="M121.833 63.8037H120.921C120.921 63.6307 120.921 63.4669 120.921 63.3032C120.912 61.7218 120.891 60.1404 120.898 58.559C120.904 57.3144 120.038 56.4083 118.496 56.5572C117.284 56.6744 116.281 57.8055 116.339 59.0093C116.416 60.5851 116.358 62.1674 116.358 63.7804H115.476V55.8939H116.367V56.959C117.002 56.292 117.675 55.9227 118.486 55.7795C120.255 55.4669 121.663 56.5293 121.816 58.3283C121.823 58.4055 121.832 58.4827 121.832 58.56C121.833 60.2939 121.833 62.0279 121.833 63.8037Z" fill="#015089"></path><path d="M117.657 41.7777H118.549V42.2986C118.549 43.7396 118.541 45.1824 118.549 46.6214C118.563 48.5619 120.386 49.5982 122.039 48.6121C122.704 48.2196 122.975 47.6149 122.98 46.8717C122.992 45.3535 122.989 43.8345 122.992 42.3135V41.7824H123.863C123.87 41.9163 123.884 42.0512 123.884 42.1861C123.884 43.7042 123.847 45.2242 123.894 46.7442C123.96 48.84 122.286 49.8 120.828 49.841C119.03 49.8912 117.698 48.654 117.653 46.8475C117.612 45.2521 117.64 43.6558 117.638 42.0596C117.644 41.9833 117.651 41.907 117.657 41.7777Z" fill="#015089"></path><path d="M113.621 56.653H111.607C111.598 56.8502 111.585 57.013 111.584 57.1758C111.584 58.617 111.584 60.0579 111.584 61.4986C111.584 62.959 112.082 63.3665 113.489 63.0623C113.561 63.0465 113.631 63.0204 113.704 62.999C113.861 63.7934 113.805 63.8725 113.054 63.9153C112.886 63.9246 112.718 63.9311 112.55 63.9255C111.387 63.8902 110.706 63.2093 110.695 62.0279C110.678 60.4316 110.688 58.8353 110.686 57.2399V56.6818H109.557V55.8669H110.678V53.9916H111.568V55.8399H113.621V56.653Z" fill="#015089"></path><path d="M112.886 42.5265H111.732V41.7693H112.871V39.8651H113.789V41.7405H115.828V42.5312H113.787V47.4763C113.787 48.8046 114.338 49.2437 115.606 48.9433C115.707 48.9191 115.807 48.8912 115.907 48.8642C116.052 49.6651 116.026 49.7014 115.252 49.8065C113.783 50.0065 112.89 49.2242 112.886 47.7209C112.882 46.0177 112.886 44.3144 112.886 42.5265Z" fill="#015089"></path><path d="M132.811 63.8019H131.942V55.8893H132.804V56.9721C133.452 56.0084 134.339 55.68 135.442 55.7433V56.6084C135.373 56.6231 135.303 56.634 135.232 56.6409C133.928 56.6893 132.963 57.5712 132.894 58.8949C132.819 60.3302 132.834 61.7712 132.811 63.2093C132.811 63.3926 132.811 63.5758 132.811 63.8019Z" fill="#015089"></path><path d="M104.833 55.8856H105.704V56.9545C106.347 55.9945 107.241 55.6866 108.334 55.7452V56.6224C108.117 56.6382 107.906 56.6363 107.701 56.6698C107.206 56.7556 106.753 57.003 106.411 57.3743C106.068 57.7455 105.855 58.2202 105.804 58.7256C105.712 59.7563 105.728 60.7973 105.712 61.8345C105.7 62.4856 105.712 63.1294 105.712 63.7973H104.839L104.833 55.8856Z" fill="#015089"></path><path d="M126.553 49.6661H125.673V41.7889H126.556V42.7647C126.936 42.4596 127.281 42.0772 127.708 41.8679C128.135 41.6586 128.635 41.6298 129.161 41.5079V42.5014C128.23 42.4633 127.434 42.7647 127.005 43.6177C126.752 44.1238 126.605 44.6774 126.572 45.2437C126.511 46.5572 126.553 47.8763 126.553 49.1926V49.6661Z" fill="#015089"></path></svg>