<svg xmlns="http://www.w3.org/2000/svg" width="180" height="80" viewBox="0 0 180 80" fill="none"><path d="M142.222 47.9448C142.222 46.2577 143.592 44.8889 145.278 44.8889C146.965 44.8889 148.333 46.2577 148.333 47.9448C148.333 49.632 146.965 51 145.278 51C143.592 51 142.222 49.632 142.222 47.9448Z" fill="#86BC24"></path><path d="M42.9586 39.6514C42.9586 37.6707 42.5771 36.2012 41.8143 35.2439C41.0507 34.2873 39.894 33.8095 38.3388 33.8095H36.6844V45.9221H37.9502C39.6777 45.9221 40.9435 45.4082 41.7494 44.3766C42.5546 43.347 42.9586 41.7716 42.9586 39.6514ZM48.8583 39.445C48.8583 43.0537 47.8918 45.8344 45.9589 47.7861C44.0259 49.7388 41.3086 50.7151 37.8059 50.7151H31V29.0918H38.281C41.6584 29.0918 44.2658 29.9795 46.103 31.7539C47.9397 33.5293 48.8583 36.0917 48.8583 39.445ZM67.7108 50.7148H73.1266V29.0011H67.7108V50.7148ZM80.7346 42.6155C80.7346 43.9999 80.915 45.0559 81.2748 45.7815C81.6353 46.5083 82.2393 46.8711 83.0887 46.8711C83.9288 46.8711 84.5231 46.5083 84.8692 45.7815C85.2155 45.0559 85.3876 43.9999 85.3876 42.6155C85.3876 41.2383 85.2127 40.1995 84.8621 39.4982C84.5104 38.7952 83.9109 38.4431 83.0608 38.4431C82.2295 38.4431 81.6355 38.7935 81.2748 39.4901C80.915 40.1877 80.7346 41.2292 80.7346 42.6155ZM90.8999 42.6155C90.8999 45.2532 90.2111 47.3108 88.8299 48.7858C87.4497 50.2616 85.5174 51 83.0337 51C80.6517 51 78.7557 50.2453 77.3484 48.7359C75.9393 47.2267 75.2351 45.1871 75.2351 42.6155C75.2351 39.9859 75.9248 37.9427 77.3061 36.4858C78.6872 35.0291 80.6238 34.3006 83.1175 34.3006C84.6582 34.3006 86.0214 34.6382 87.2026 35.3124C88.3845 35.9864 89.2969 36.952 89.9379 38.2097C90.5798 39.4657 90.8999 40.9351 90.8999 42.6155ZM93.0506 50.715H98.4673V34.5858H93.0506V50.715ZM93.0505 32.6349H98.467V29H93.0505V32.6349ZM109.441 46.6011C110.172 46.6011 111.043 46.4146 112.059 46.0446V50.1028C111.329 50.425 110.635 50.6557 109.975 50.7923C109.315 50.9309 108.54 50.9996 107.654 50.9996C105.836 50.9996 104.525 50.5409 103.72 49.625C102.918 48.7093 102.516 47.3032 102.516 45.4057V38.7568H100.619V34.5871H102.516V30.4682L107.974 29.5155V34.5871H111.43V38.7568H107.974V45.0347C107.974 46.079 108.464 46.6011 109.441 46.6011ZM121.977 46.6011C122.708 46.6011 123.579 46.4146 124.595 46.0446V50.1028C123.866 50.425 123.171 50.6557 122.511 50.7923C121.85 50.9309 121.078 50.9996 120.19 50.9996C118.372 50.9996 117.061 50.5409 116.258 49.625C115.454 48.7093 115.052 47.3032 115.052 45.4057V38.7568H113.154V34.5871H115.052V30.4057L120.509 29.5155V34.5871H123.967V38.7568H120.509V45.0347C120.509 46.079 120.999 46.6011 121.977 46.6011ZM131.43 40.6506C131.504 39.7675 131.755 39.1204 132.184 38.7069C132.615 38.2942 133.147 38.088 133.784 38.088C134.478 38.088 135.03 38.3197 135.439 38.7865C135.851 39.2507 136.066 39.8723 136.083 40.6506H131.43ZM139.068 36.2023C137.78 34.9354 135.954 34.3012 133.591 34.3012C131.107 34.3012 129.196 35.0296 127.856 36.4864C126.517 37.9433 125.847 40.0334 125.847 42.7572C125.847 45.3947 126.571 47.4289 128.016 48.8568C129.461 50.2846 131.49 50.9995 134.104 50.9995C135.359 50.9995 136.439 50.9136 137.344 50.7424C138.244 50.5732 139.115 50.2674 139.96 49.8259L139.127 46.191C138.513 46.4426 137.929 46.6363 137.378 46.7637C136.58 46.9493 135.706 47.0425 134.754 47.0425C133.71 47.0425 132.886 46.7865 132.282 46.2742C131.678 45.7612 131.356 45.0536 131.319 44.1524H141V41.6758C141 39.2933 140.356 37.4682 139.068 36.2023ZM56.0465 40.6506C56.1204 39.7675 56.3719 39.1204 56.8011 38.7069C57.2311 38.2942 57.7639 38.088 58.4013 38.088C59.0938 38.088 59.6455 38.3197 60.0558 38.7865C60.4677 39.2507 60.6814 39.8723 60.7004 40.6506H56.0465ZM63.6853 36.2023C62.3971 34.9354 60.5714 34.3012 58.2075 34.3012C55.7227 34.3012 53.8123 35.0296 52.4735 36.4864C51.1347 37.9433 50.4639 40.0334 50.4639 42.7572C50.4639 45.3947 51.187 47.4289 52.633 48.8568C54.0775 50.2846 56.1069 50.9995 58.7205 50.9995C59.9755 50.9995 61.0555 50.9136 61.9607 50.7424C62.8605 50.5732 63.7314 50.2674 64.5771 49.8259L63.7441 46.191C63.13 46.4426 62.5457 46.6363 61.995 46.7637C61.1962 46.9493 60.3225 47.0425 59.3705 47.0425C58.3274 47.0425 57.5024 46.7865 56.8985 46.2742C56.2935 45.7612 55.9726 45.0536 55.9355 44.1524H65.6166V41.6758C65.6166 39.2933 64.9729 37.4682 63.6854 36.2023" fill="#0F0B0B"></path></svg>