<svg xmlns="http://www.w3.org/2000/svg" width="180" height="80" viewBox="0 0 180 80" fill="none"><path d="M27.7973 36.6162C27.5635 36.6162 27.3682 36.8105 27.3682 37.0444V49.5491C27.3682 49.7858 27.5636 49.9773 27.7973 49.9773M31.3888 36.6162H27.7973C27.5635 36.6162 27.3682 36.8105 27.3682 37.0444V49.5491C27.3682 49.7858 27.5636 49.9773 27.7973 49.9773H31.3701C35.1776 49.9773 37.9873 47.529 37.9873 43.3061C37.9873 39.0861 35.1972 36.6162 31.3888 36.6162ZM31.2757 47.5683H29.9676V39.0301H31.2964C33.4815 39.0301 35.2914 40.406 35.2914 43.3061C35.2914 46.2101 33.4638 47.5683 31.2757 47.5683Z" fill="#4B2A91"></path><path d="M46.4891 46.6775C47.4505 46.6775 48.2235 47.4504 48.2235 48.3932C48.2235 49.334 47.4505 50.1079 46.4891 50.1079C45.5463 50.1079 44.7754 49.334 44.7754 48.3932C44.7754 47.4504 45.5463 46.6775 46.4891 46.6775Z" fill="#4B2A91"></path><path d="M57.5394 44.5101C59.2904 44.0034 60.3855 42.5902 60.3855 40.7262C60.3855 38.4056 58.7277 36.6172 56.1262 36.6172H51.3356C51.099 36.6172 50.9065 36.8118 50.9065 37.0454V49.5491C50.9065 49.7858 51.0989 49.9763 51.3356 49.9763H53.0975C53.3333 49.9763 53.5257 49.7829 53.5257 49.5491V44.8322H54.8819L57.2919 49.5491C57.4128 49.7858 57.7034 49.9763 57.9391 49.9763H59.9681C60.2019 49.9763 60.299 49.7829 60.1794 49.5491L57.5394 44.5101ZM55.6371 42.5902H53.5257V38.877H55.6371C56.9561 38.877 57.728 39.6115 57.728 40.7429C57.728 41.8379 56.9561 42.5902 55.6371 42.5902Z" fill="#4B2A91"></path><path d="M44.683 40.6309C43.8924 40.6309 42.6108 40.8559 42.0442 42.0805V41.1298C42.0442 40.903 41.8663 40.7193 41.6445 40.7056H40.0427C39.8119 40.7056 39.6214 40.8921 39.6145 41.121V49.5491C39.6173 49.7818 39.808 49.9744 40.0427 49.9744H41.6896L41.6924 49.9688C41.9262 49.9688 42.1206 49.7764 42.1206 49.5406V45.7341C42.1206 43.7376 43.2333 43.1159 44.5139 43.1159C44.7388 43.1159 44.9843 43.1326 45.2671 43.1905V40.6666C45.0776 40.6471 44.8912 40.6309 44.683 40.6309Z" fill="#4B2A91"></path><path d="M103.213 40.7066H101.398C101.165 40.7086 100.865 40.8989 100.733 41.1308L98.6321 46.1325L96.3567 41.1318C96.2242 40.899 95.9246 40.7085 95.6889 40.7085L93.7513 40.7066C93.5174 40.7066 93.4301 40.8989 93.5648 41.1348L97.2947 48.8077L95.303 53.2044C95.1842 53.4363 95.2808 53.6307 95.5143 53.6307H97.3174C97.5451 53.6307 97.8202 53.4508 97.9479 53.229L103.397 41.1299C103.526 40.8952 103.444 40.7086 103.213 40.7066Z" fill="#4B2A91"></path><path d="M111.037 44.3618L109.719 44.0789C109.209 43.9846 108.871 43.7018 108.871 43.2481C108.871 42.7217 109.399 42.327 110.057 42.327C110.884 42.327 111.3 42.7542 111.481 43.201L111.484 43.1982C111.548 43.4142 111.736 43.5488 111.956 43.486L113.303 43.1835C113.515 43.1186 113.631 42.9036 113.592 42.6944C113.309 41.7045 112.342 40.4248 110.038 40.4248C108.04 40.4248 106.571 41.8017 106.571 43.4594C106.571 44.7577 107.38 45.8331 109.17 46.2269L110.397 46.5117C111.11 46.6601 111.395 47.0008 111.395 47.4152C111.395 47.9043 110.997 48.3384 110.169 48.3384C109.172 48.3384 108.633 47.7727 108.504 47.1117L108.501 47.1137C108.473 47.0146 108.378 46.9567 108.277 46.9684L106.702 47.3151C106.489 47.376 106.365 47.595 106.408 47.81C106.699 48.8638 107.737 50.2593 110.187 50.2593C112.619 50.2593 113.787 48.7145 113.787 47.209C113.787 45.8528 112.865 44.7379 111.037 44.3618Z" fill="#4B2A91"></path><path d="M65.5285 40.4237C63.1549 40.4237 60.9707 42.3447 60.9707 45.3027C60.9707 48.4306 63.2118 50.2572 65.7544 50.2572C67.8796 50.2572 69.2889 49.0915 69.8535 47.6391C69.8702 47.4397 69.7525 47.2492 69.5531 47.1932L68.2076 46.7935C68.0534 46.7609 67.8796 46.8213 67.7598 46.9858C67.42 47.6576 66.8013 48.1103 65.774 48.1103C64.5307 48.1103 63.4936 47.2255 63.4377 46.0008H69.6738C69.9065 46.0008 70.0952 45.8104 70.0971 45.5785C70.1027 45.4666 70.1082 45.3497 70.1082 45.226C70.1082 42.2503 68.3932 40.4237 65.5285 40.4237ZM63.4949 44.2851C63.5529 43.4366 64.2678 42.4575 65.5671 42.4575C67 42.4575 67.604 43.362 67.6403 44.2851H63.4949Z" fill="#4B2A91"></path><path d="M81.063 49.5835L81.0547 40.9443V36.7636C81.0547 36.5259 80.862 36.3334 80.6265 36.3334H79.012C78.7959 36.3334 78.6231 36.5013 78.5946 36.7086C78.5926 36.7281 78.5835 36.7428 78.5835 36.7637V41.4786L78.5946 41.4767V41.6298C78.3304 41.1387 77.5781 40.4788 75.9764 40.4788C73.3572 40.4788 71.5305 42.6089 71.5305 45.3224C71.5305 48.1281 73.4122 50.2013 76.052 50.2013C77.2943 50.2013 78.2361 49.6357 78.6506 48.9011C78.6506 48.915 78.6525 48.9261 78.6525 48.9384L78.6553 48.93C78.6553 49.0645 78.6581 49.1783 78.6637 49.2826C78.6776 49.4956 78.697 49.6852 78.7196 49.8286C78.755 49.9063 78.8365 49.9681 78.9298 49.975H80.6464L80.6409 49.9639C80.8608 49.9639 81.0375 49.7967 81.063 49.5835ZM76.3541 47.9566C75.0323 47.9566 74.0531 46.9764 74.0531 45.3197C74.0531 43.662 75.0715 42.7182 76.3541 42.7182C77.6338 42.7182 78.6326 43.6423 78.6326 45.3C78.6326 46.9764 77.6338 47.9566 76.3541 47.9566Z" fill="#4B2A91"></path><path d="M92.2065 49.5835L92.2009 40.9443V36.7636C92.2009 36.5259 92.0086 36.3334 91.7718 36.3334H90.1592C89.942 36.3334 89.7693 36.5013 89.7408 36.7086C89.7389 36.7281 89.7297 36.7428 89.7297 36.7637V41.4786L89.7408 41.4767V41.6298C89.4766 41.1387 88.7234 40.4788 87.1216 40.4788C84.5034 40.4788 82.6758 42.6089 82.6758 45.3224C82.6758 48.1281 84.5594 50.2013 87.1982 50.2013C88.4405 50.2013 89.3824 49.6357 89.7978 48.9011V48.9384L89.8034 48.93C89.8034 49.0645 89.8053 49.1783 89.8117 49.2826C89.8256 49.4956 89.8459 49.6852 89.8688 49.8286C89.9022 49.9063 89.9857 49.9681 90.0798 49.975H91.7955L91.7899 49.9639C92.0098 49.9639 92.1877 49.7941 92.2102 49.5809M87.5022 47.9566C86.1823 47.9566 85.2032 46.9764 85.2032 45.3197C85.2032 43.662 86.2186 42.7182 87.5022 42.7182C88.7828 42.7182 89.7806 43.6423 89.7806 45.3C89.7806 46.9764 88.7828 47.9566 87.5022 47.9566Z" fill="#4B2A91"></path><path d="M107.32 38.2769C107.385 38.1079 107.424 37.9273 107.424 37.7367C107.424 36.8981 106.737 36.2096 105.88 36.2096C105.041 36.2096 104.353 36.8981 104.353 37.7367C104.353 38.4497 104.852 39.0498 105.517 39.2148L104.681 41.0827C104.678 41.0966 104.675 41.1077 104.675 41.1219C104.675 41.2082 104.745 41.2781 104.832 41.2781L104.831 41.2809H105.667C105.748 41.2809 105.843 41.218 105.888 41.1406L107.289 38.3535C107.3 38.3312 107.308 38.3053 107.317 38.2808C107.318 38.2799 107.32 38.2797 107.32 38.2769Z" fill="#4B2A91"></path><path d="M133.554 44.2951C133.554 45.0523 132.94 45.668 132.184 45.668C131.426 45.668 130.813 45.0523 130.813 44.2951C130.813 43.5389 131.426 42.9241 132.184 42.9241C132.94 42.9241 133.554 43.5389 133.554 44.2951ZM135.148 52.8627V34.2053C135.081 31.3533 133.361 28.9129 130.909 27.8012C130.095 27.4486 129.217 27.2218 128.303 27.1727C123.776 26.933 120.278 29.6102 119.345 33.2242C118.739 35.425 119.208 38.0697 120.723 40.2922C122.582 43.0213 130.226 50.2572 133.916 53.4814C134.044 53.5747 134.199 53.6317 134.37 53.6317C134.797 53.6317 135.142 53.288 135.148 52.8627Z" fill="#4B2A91"></path><path d="M140.876 43.2049C138.992 43.2049 137.469 44.7281 137.469 46.6097C137.469 48.4874 138.992 50.0116 140.876 50.0116C142.754 50.0116 144.281 48.4874 144.281 46.6097C144.281 44.7281 142.754 43.2049 140.876 43.2049Z" fill="#4B2A91"></path><path d="M137.47 50.9289C136.82 50.9289 136.295 51.4553 136.295 52.1045C136.295 52.7536 136.82 53.279 137.47 53.279C138.118 53.279 138.644 52.7536 138.644 52.1045C138.644 51.4553 138.118 50.9289 137.47 50.9289Z" fill="#4B2A91"></path><path d="M147.356 34.925C144.86 34.925 142.834 36.9491 142.834 39.4514C142.834 41.9479 144.86 43.9719 147.356 43.9719C149.857 43.9719 151.881 41.9479 151.881 39.4514C151.881 36.9491 149.857 34.925 147.356 34.925Z" fill="#4B2A91"></path><path d="M150.503 29.3538C149.193 29.3538 148.129 30.4154 148.129 31.7284C148.129 33.0375 149.193 34.1011 150.503 34.1011C151.813 34.1011 152.877 33.0375 152.877 31.7284C152.877 30.4154 151.813 29.3538 150.503 29.3538Z" fill="#4B2A91"></path><path d="M141.424 35.0557C143.826 35.0557 145.774 33.1121 145.774 30.7119C145.774 28.3127 143.826 26.3682 141.424 26.3682C139.029 26.3682 137.083 28.3127 137.083 30.7119C137.083 33.1121 139.029 35.0557 141.424 35.0557Z" fill="#4B2A91"></path><path d="M141.591 38.8789C141.591 40.3048 140.435 41.4607 139.009 41.4607C137.584 41.4607 136.428 40.3048 136.428 38.8789C136.428 37.4519 137.584 36.296 139.009 36.296C140.435 36.296 141.591 37.4519 141.591 38.8789Z" fill="#4B2A91"></path></svg>