<svg xmlns="http://www.w3.org/2000/svg" width="150" height="150" viewBox="0 0 150 150" fill="none"><path d="M0 75C0 33.5786 33.5786 0 75 0V0C116.421 0 150 33.5786 150 75V75C150 116.421 116.421 150 75 150V150C33.5786 150 0 116.421 0 75V75Z" fill="white"></path><path d="M148 74.4998C148 34.4592 115.54 2 75.4998 2C35.4592 2 3 34.4592 3 74.4998V74.5002C3 114.541 35.4592 147 75.4998 147C115.54 147 148 114.541 148 74.5002V74.4998Z" fill="#103A89"></path><path d="M75.4992 12.5625L77.4841 18.6716H83.9078L78.7108 22.4474L80.6957 28.5565L75.4992 24.7809L70.3023 28.5565L72.2876 22.4474L67.0907 18.6716H73.5144L75.4992 12.5625Z" fill="#F1BD6C"></path><path d="M102.023 19.6348L104.008 25.744H110.432L105.235 29.5197L107.22 35.6287L102.023 31.8531L96.8262 35.6287L98.8111 29.5197L93.6141 25.744H100.038L102.023 19.6348Z" fill="#F1BD6C"></path><path d="M121.474 39.0859L123.459 45.1952H129.883L124.686 48.9709L126.671 55.08L121.474 51.3043L116.277 55.08L118.262 48.9709L113.066 45.1952H119.489L121.474 39.0859Z" fill="#F1BD6C"></path><path d="M128.547 65.6094L130.532 71.7186H136.956L131.759 75.4943L133.744 81.6035L128.547 77.8278L123.351 81.6035L125.335 75.4943L120.139 71.7186H126.562L128.547 65.6094Z" fill="#F1BD6C"></path><path d="M121.474 93.9043L123.459 100.013H129.883L124.686 103.789L126.671 109.898L121.474 106.123L116.277 109.898L118.262 103.789L113.066 100.013H119.489L121.474 93.9043Z" fill="#F1BD6C"></path><path d="M102.023 113.354L104.008 119.463H110.432L105.235 123.238L107.22 129.348L102.023 125.572L96.8262 129.348L98.8111 123.238L93.6141 119.463H100.038L102.023 113.354Z" fill="#F1BD6C"></path><path d="M75.4992 120.428L77.4841 126.537H83.9078L78.7108 130.313L80.6957 136.422L75.4992 132.646L70.3023 136.422L72.2876 130.313L67.0907 126.537H73.5144L75.4992 120.428Z" fill="#F1BD6C"></path><path d="M48.9747 113.354L50.9599 119.463H57.3835L52.1866 123.238L54.1714 129.348L48.9747 125.572L43.7781 129.348L45.7631 123.238L40.5663 119.463H46.9898L48.9747 113.354Z" fill="#F1BD6C"></path><path d="M29.5248 93.9043L31.5098 100.013H37.9335L32.7367 103.789L34.7217 109.898L29.5248 106.123L24.328 109.898L26.313 103.789L21.1164 100.013H27.5398L29.5248 93.9043Z" fill="#F1BD6C"></path><path d="M22.4515 65.6094L24.4365 71.7186H30.8601L25.6633 75.4943L27.6483 81.6035L22.4515 77.8278L17.2547 81.6035L19.2396 75.4943L14.043 71.7186H20.4665L22.4515 65.6094Z" fill="#F1BD6C"></path><path d="M29.5248 39.0859L31.5098 45.1952H37.9335L32.7367 48.9709L34.7217 55.08L29.5248 51.3043L24.328 55.08L26.313 48.9709L21.1164 45.1952H27.5398L29.5248 39.0859Z" fill="#F1BD6C"></path><path d="M48.9747 19.6348L50.9599 25.744H57.3835L52.1866 29.5197L54.1714 35.6287L48.9747 31.8531L43.7781 35.6287L45.7631 29.5197L40.5663 25.744H46.9898L48.9747 19.6348Z" fill="#F1BD6C"></path><path d="M55.3189 64.2884C54.9214 63.5591 54.3745 63.0041 53.6783 62.6229C52.9821 62.2416 52.1698 62.051 51.2417 62.051C50.214 62.051 49.3024 62.2829 48.5068 62.7472C47.7113 63.211 47.0897 63.8741 46.6422 64.7359C46.1947 65.5978 45.9709 66.5926 45.9709 67.7195C45.9709 68.8799 46.1947 69.8911 46.6422 70.7529C47.1063 71.6148 47.7444 72.2778 48.5566 72.7416C49.3687 73.2059 50.3135 73.4378 51.391 73.4378C52.7166 73.4378 53.8027 73.0897 54.6477 72.3935C55.4932 71.681 56.0483 70.6948 56.3138 69.435H50.3467V66.7746H59.7448V69.808C59.5124 71.0179 59.0155 72.1366 58.253 73.1646C57.4906 74.1921 56.5044 75.0208 55.2945 75.6507C54.1008 76.2639 52.7584 76.5707 51.2666 76.5707C49.5925 76.5707 48.0759 76.1976 46.7168 75.4515C45.3742 74.6895 44.3134 73.6366 43.5344 72.2941C42.772 70.9517 42.3907 69.4268 42.3907 67.7195C42.3907 66.0121 42.772 64.4877 43.5344 63.1448C44.3134 61.7855 45.3742 60.7331 46.7168 59.9874C48.0759 59.225 49.5842 58.8438 51.2417 58.8438C53.1977 58.8438 54.8964 59.3244 56.3383 60.2856C57.7806 61.2305 58.7749 62.5648 59.3218 64.2884H55.3189ZM68.3862 59.0675C70.2092 59.0675 71.809 59.4237 73.1846 60.1367C74.577 60.8493 75.6458 61.8686 76.3919 63.1947C77.1543 64.504 77.5356 66.0289 77.5356 67.7694C77.5356 69.5099 77.1543 71.0347 76.3919 72.3441C75.6458 73.6366 74.577 74.6396 73.1846 75.3521C71.809 76.0651 70.2092 76.4213 68.3862 76.4213H62.3197V59.0675H68.3862ZM68.2618 73.4628C70.0849 73.4628 71.4941 72.9654 72.4884 71.971C73.4828 70.9767 73.9802 69.5761 73.9802 67.7694C73.9802 65.9626 73.4828 64.5539 72.4884 63.5428C71.4941 62.5148 70.0849 62.0011 68.2618 62.0011H65.8007V73.4628H68.2618ZM92.796 64.4378C92.796 65.3658 92.5723 66.2363 92.1248 67.0482C91.6937 67.8606 91.0056 68.515 90.0612 69.0124C89.1326 69.5099 87.9558 69.7581 86.5308 69.7581H83.6217V76.4213H80.1407V59.0675H86.5308C87.8733 59.0675 89.0169 59.2994 89.9613 59.7637C90.9062 60.2275 91.6106 60.8661 92.0749 61.678C92.5555 62.4903 92.796 63.4103 92.796 64.4378ZM86.3815 66.9488C87.3427 66.9488 88.0557 66.7333 88.5195 66.3026C88.9838 65.8551 89.2157 65.2333 89.2157 64.4378C89.2157 62.7472 88.2708 61.9017 86.3815 61.9017H83.6217V66.9488H86.3815ZM104.217 76.4213L100.389 69.6587H98.7477V76.4213H95.2673V59.0675H101.781C103.124 59.0675 104.267 59.308 105.212 59.7886C106.157 60.2525 106.861 60.8905 107.325 61.7029C107.806 62.4985 108.046 63.3935 108.046 64.3878C108.046 65.5315 107.715 66.5676 107.052 67.4957C106.389 68.4075 105.403 69.0374 104.093 69.3855L108.245 76.4213H104.217ZM98.7477 67.0482H101.657C102.602 67.0482 103.306 66.8245 103.77 66.377C104.234 65.9127 104.466 65.2746 104.466 64.4627C104.466 63.6671 104.234 63.0535 103.77 62.6229C103.306 62.1754 102.602 61.9516 101.657 61.9516H98.7477V67.0482ZM50.6589 95.6266L47.2196 89.7219H44.9406V95.6266H43.0552V81.1857H47.7169C48.808 81.1857 49.7266 81.372 50.4725 81.745C51.2321 82.1181 51.7986 82.6222 52.1712 83.2574C52.5443 83.8931 52.7306 84.6181 52.7306 85.4329C52.7306 86.4277 52.4406 87.3045 51.8606 88.0645C51.2945 88.8241 50.4379 89.3282 49.2915 89.5769L52.9173 95.6266H50.6589ZM44.9406 88.2095H47.7169C48.739 88.2095 49.5056 87.9608 50.0166 87.4634C50.5277 86.9525 50.7832 86.2755 50.7832 85.4329C50.7832 84.5768 50.5277 83.9138 50.0166 83.4442C49.5194 82.9746 48.7528 82.7399 47.7169 82.7399H44.9406V88.2095ZM58.5814 82.7187V87.5465H63.8441V89.1002H58.5814V94.0729H64.4659V95.6266H56.6964V81.165H64.4659V82.7187H58.5814ZM76.8907 92.415H70.5919L69.4319 95.6266H67.4427L72.6641 81.2687H74.8396L80.0399 95.6266H78.0507L76.8907 92.415ZM76.352 90.8819L73.7411 83.5892L71.1306 90.8819H76.352ZM87.8473 81.1857C89.4217 81.1857 90.7824 81.4829 91.9284 82.0768C93.0889 82.6568 93.9728 83.4922 94.5807 84.5836C95.202 85.6749 95.5131 86.9593 95.5131 88.4371C95.5131 89.9149 95.202 91.1998 94.5807 92.2911C93.9728 93.368 93.0889 94.1972 91.9284 94.7772C90.7824 95.3433 89.4217 95.6266 87.8473 95.6266H83.3514V81.1857H87.8473ZM87.8473 94.0729C89.7117 94.0729 91.1343 93.5822 92.1152 92.6017C93.0956 91.6074 93.5863 90.2189 93.5863 88.4371C93.5863 86.6414 93.0889 85.2399 92.0946 84.2312C91.1137 83.2229 89.6977 82.7187 87.8473 82.7187H85.2364V94.0729H87.8473ZM109.146 81.1857L104.444 90.1776V95.6266H102.558V90.1776L97.834 81.1857H99.9265L103.49 88.4995L107.054 81.1857H109.146Z" fill="white"></path></svg>