<svg xmlns="http://www.w3.org/2000/svg" width="200" height="80" viewBox="0 0 200 80" fill="none"><path d="M69.8254 37.8563H83.6942V56.0121C82.7696 56.3155 81.8372 56.5949 80.8967 56.8504C79.956 57.0898 78.9755 57.2975 77.9554 57.4732C76.9511 57.6328 75.891 57.7606 74.7751 57.8563C73.6752 57.9522 72.5035 58 71.2601 58C68.6457 58 66.3263 57.6169 64.3017 56.8504C62.2931 56.068 60.5954 54.9182 59.2085 53.4012C57.8376 51.8683 56.7934 49.9841 56.076 47.7485C55.3587 45.4971 55 42.9022 55 39.9641C55 37.2176 55.3985 34.7346 56.1956 32.515C56.9927 30.2954 58.1643 28.4112 59.7106 26.8623C61.2729 25.2974 63.1858 24.0998 65.4495 23.2695C67.7291 22.4232 70.3355 22 73.2687 22C75.1338 22 76.9591 22.1996 78.7444 22.5988C80.5299 22.998 82.1638 23.517 83.6465 24.1557L81.1834 30.0958C80.0994 29.5529 78.872 29.0978 77.5011 28.7305C76.1461 28.3633 74.7194 28.1796 73.2209 28.1796C71.5948 28.1796 70.1283 28.4671 68.8211 29.0419C67.5298 29.6008 66.4219 30.3992 65.4973 31.4371C64.5727 32.4751 63.8633 33.7286 63.3692 35.1976C62.875 36.6667 62.6279 38.3034 62.6279 40.1078C62.6279 41.8324 62.7953 43.4132 63.13 44.8503C63.4807 46.2714 64.0228 47.501 64.7561 48.539C65.4894 49.577 66.4299 50.3832 67.5777 50.9581C68.7414 51.533 70.1283 51.8204 71.7383 51.8204C72.7905 51.8204 73.6752 51.7724 74.3925 51.6767C75.1258 51.5808 75.8113 51.4692 76.449 51.3414V44.0359H69.8254V37.8563ZM99.3325 57.521H92.0394V22.503H112.078V28.5868H99.3325V37.6168H111.193V43.6767H99.3325V57.521ZM133.766 28.1796C132.347 28.1796 131.088 28.4591 129.988 29.018C128.904 29.5609 127.987 30.3513 127.238 31.3892C126.505 32.4112 125.947 33.6647 125.564 35.1497C125.181 36.6188 124.99 38.2715 124.99 40.1078C124.99 41.9761 125.157 43.6367 125.492 45.0898C125.843 46.543 126.369 47.7725 127.071 48.7784C127.788 49.7685 128.696 50.5269 129.797 51.054C130.912 51.5649 132.236 51.8204 133.766 51.8204C135.185 51.8204 136.603 51.6608 138.022 51.3414C139.457 51.0221 141.011 50.5669 142.685 49.976V56.2036C141.92 56.523 141.163 56.7945 140.413 57.0179C139.664 57.2416 138.899 57.4251 138.118 57.5688C137.337 57.7125 136.532 57.8163 135.703 57.8803C134.89 57.96 134.013 58 133.072 58C130.378 58 128.043 57.5688 126.066 56.7067C124.089 55.8443 122.455 54.6307 121.164 53.0659C119.873 51.5011 118.917 49.6167 118.295 47.4132C117.673 45.2096 117.362 42.7585 117.362 40.0599C117.362 37.4092 117.721 34.9821 118.438 32.7785C119.156 30.5589 120.208 28.6507 121.595 27.0539C122.982 25.4571 124.695 24.2196 126.736 23.3413C128.776 22.4471 131.119 22 133.766 22C135.503 22 137.241 22.2236 138.979 22.6707C140.732 23.1018 142.406 23.7006 144 24.4671L141.609 30.503C140.302 29.8803 138.987 29.3373 137.663 28.8743C136.34 28.4112 135.041 28.1796 133.766 28.1796Z" fill="#23302C"></path></svg>