<svg xmlns="http://www.w3.org/2000/svg" width="180" height="80" viewBox="0 0 180 80" fill="none"><path d="M85.9032 32.6547C85.6428 32.6505 85.3844 32.7002 85.1444 32.8005C84.9045 32.901 84.6885 33.0499 84.5102 33.2378C84.3268 33.4183 84.1819 33.6334 84.084 33.8701C83.9861 34.107 83.937 34.3609 83.9398 34.6169V35.3017C83.1206 34.6166 82.2118 34.0438 81.238 33.5987C79.8267 32.9638 78.2974 32.6268 76.7473 32.6093C75.1973 32.5918 73.6605 32.8941 72.235 33.4969C69.5258 34.6267 67.3691 36.7587 66.2236 39.4389C65.0482 42.1674 65.0153 45.2463 66.132 47.9989C67.2487 50.7514 69.4237 52.9523 72.1789 54.118C73.574 54.7051 75.0755 55.0044 76.5917 54.9973C78.6307 55.0142 80.6343 54.4695 82.3786 53.4239C82.6114 53.3001 82.8152 53.1289 82.9764 52.9215C83.1375 52.7141 83.2523 52.4753 83.3134 52.2207C83.3842 51.9743 83.3991 51.7154 83.3571 51.4626C83.3151 51.2098 83.2172 50.9693 83.0703 50.7583C82.9497 50.5302 82.7822 50.3294 82.5787 50.1691C82.3752 50.0086 82.14 49.892 81.8884 49.8267C81.6367 49.7613 81.3741 49.7487 81.1172 49.7896C80.8603 49.8304 80.6149 49.924 80.3966 50.0641C79.2693 50.7398 77.9748 51.0923 76.657 51.0823C75.6921 51.0851 74.7371 50.8897 73.8524 50.5084C72.104 49.7539 70.7127 48.3667 69.9632 46.6305C69.5808 45.7358 69.3838 44.7742 69.3838 43.8029C69.3838 42.8315 69.5808 41.8699 69.9632 40.9753C70.7169 39.2408 72.1115 37.8569 73.8617 37.1066C74.7617 36.7265 75.73 36.5305 76.7085 36.5305C77.687 36.5305 78.6553 36.7265 79.5552 37.1066C81.3037 37.8546 82.6981 39.235 83.4538 40.966C83.8376 41.8424 84.0349 42.7876 84.0334 43.7427V52.9981C84.0304 53.2555 84.0793 53.5108 84.1771 53.7492C84.275 53.9876 84.4201 54.2042 84.6036 54.3865C84.7828 54.5727 84.9993 54.7198 85.2391 54.8186C85.4789 54.9175 85.7369 54.9657 85.9966 54.9603C86.4978 54.939 86.9717 54.7287 87.3212 54.3725C87.6707 54.0161 87.869 53.541 87.8758 53.0444V34.6169C87.8758 34.3576 87.8239 34.101 87.7231 33.8616C87.6224 33.6224 87.4747 33.4052 87.2886 33.2228C87.1026 33.0404 86.8819 32.8963 86.6393 32.7987C86.3967 32.7012 86.1369 32.6522 85.8751 32.6547H85.9032Z" fill="url(#paint0_linear_469_257)"></path><path d="M136.826 33.1452C136.639 32.9582 136.414 32.8114 136.165 32.7142C135.919 32.6171 135.653 32.5716 135.387 32.5807C135.128 32.5778 134.871 32.6281 134.632 32.7285C134.394 32.8288 134.18 32.9771 134.003 33.1638C133.821 33.3471 133.678 33.5642 133.582 33.8024C133.486 34.0407 133.438 34.2955 133.442 34.5521V35.237C132.616 34.5574 131.7 33.9908 130.721 33.5525C129.302 32.937 127.77 32.6193 126.22 32.6193C124.67 32.6193 123.137 32.937 121.718 33.5525C120.382 34.1266 119.169 34.9499 118.147 35.9774C117.131 37.0084 116.322 38.2207 115.763 39.5501C115.179 40.9332 114.886 42.4196 114.903 43.9186C114.91 46.1144 115.575 48.2589 116.813 50.0809C118.051 51.9029 119.807 53.3207 121.858 54.1552C123.254 54.7347 124.757 55.0214 126.271 54.9973C128.311 54.9948 130.31 54.4343 132.049 53.3777C132.284 53.2519 132.489 53.0779 132.65 52.8672C132.811 52.6564 132.924 52.4139 132.984 52.156C133.057 51.9119 133.075 51.6546 133.035 51.4029C132.994 51.1514 132.897 50.9121 132.749 50.7028C132.632 50.461 132.462 50.2473 132.253 50.0767C132.044 49.9062 131.8 49.7827 131.538 49.7149C131.275 49.6471 131.001 49.6366 130.734 49.6841C130.467 49.7317 130.214 49.8361 129.991 49.9902C128.868 50.6775 127.574 51.0428 126.252 51.0453C125.288 51.0564 124.333 50.8673 123.447 50.4899C121.697 49.7524 120.297 48.3822 119.531 46.6582C119.134 45.7688 118.927 44.8078 118.923 43.8353C118.905 42.8626 119.097 41.8973 119.484 41.0031C119.845 40.1369 120.372 39.3481 121.036 38.6801C121.699 38.0144 122.482 37.4775 123.345 37.0974C124.24 36.7182 125.202 36.5212 126.175 36.518C127.149 36.5148 128.113 36.7055 129.01 37.0789C129.876 37.4479 130.665 37.9718 131.338 38.6246C132.013 39.276 132.555 40.0487 132.938 40.9013C133.329 41.7761 133.535 42.7211 133.545 43.678L133.629 52.9334C133.624 53.1906 133.672 53.446 133.772 53.6834C133.872 53.9208 134.02 54.135 134.208 54.3124C134.387 54.4987 134.604 54.6459 134.844 54.7447C135.084 54.8434 135.342 54.8916 135.601 54.8863C135.868 54.8889 136.132 54.8377 136.378 54.7358C136.625 54.634 136.846 54.4836 137.033 54.2939C137.214 54.1114 137.356 53.8943 137.452 53.6557C137.546 53.4172 137.591 53.1619 137.583 52.9057L137.425 34.5243C137.427 34.2658 137.376 34.0096 137.272 33.7721C137.169 33.5346 137.018 33.3211 136.826 33.1452Z" fill="url(#paint1_linear_469_257)"></path><path d="M97.7102 29.8781C97.9859 29.5963 98.3177 29.3743 98.6847 29.2261C99.0517 29.0779 99.4456 29.0068 99.8418 29.0173H102.011C102.538 29.0217 103.046 28.8187 103.422 28.4527C103.623 28.2695 103.782 28.0459 103.889 27.7968C103.995 27.5479 104.046 27.2792 104.039 27.0089C104.046 26.7386 103.995 26.4699 103.889 26.2209C103.782 25.9719 103.623 25.7483 103.422 25.565C103.237 25.3822 103.017 25.238 102.774 25.141C102.532 25.0441 102.272 24.9963 102.011 25.0005H99.6268C98.7326 25.0363 97.8525 25.2307 97.0277 25.5743C96.2201 25.9083 95.4865 26.3957 94.8682 27.0089C94.2553 27.6218 93.7554 28.3359 93.391 29.1191C93.0216 29.9329 92.8152 30.8098 92.7833 31.7014V35.7552C92.3718 35.819 91.9952 36.0218 91.7175 36.3291C91.3484 36.7099 91.1423 37.2174 91.1423 37.7452C91.1423 38.2731 91.3484 38.7804 91.7175 39.1613C92 39.4525 92.3711 39.6443 92.7739 39.7074V52.9981C92.7693 53.2681 92.8218 53.5361 92.9281 53.7847C93.0344 54.0334 93.192 54.2573 93.391 54.4419C93.7706 54.8019 94.277 55.0012 94.8026 54.9973C95.0774 55.0117 95.3521 54.9681 95.6083 54.8691C95.8647 54.7702 96.0968 54.6183 96.2892 54.4235C96.4785 54.2374 96.6275 54.015 96.7273 53.7699C96.827 53.5249 96.8751 53.2623 96.8688 52.9981V39.7351H101.468C101.737 39.7404 102.003 39.6925 102.252 39.5939C102.501 39.4953 102.727 39.3482 102.917 39.1613C103.108 38.9738 103.257 38.7498 103.357 38.5032C103.456 38.2564 103.504 37.9923 103.497 37.7266C103.498 37.2052 103.293 36.704 102.927 36.3291C102.741 36.1312 102.515 35.9745 102.264 35.8692C102.012 35.7639 101.741 35.7124 101.468 35.7182H96.8407V31.9421C96.8333 31.5572 96.9066 31.1749 97.0563 30.8196C97.206 30.4643 97.4287 30.1437 97.7102 29.8781Z" fill="url(#paint2_linear_469_257)"></path><path d="M59.2956 35.4316C58.4177 34.5652 57.3799 33.8739 56.2385 33.3953C55.0711 32.903 53.8146 32.651 52.5457 32.6549C51.3087 32.6325 50.0803 32.8625 48.937 33.3305C48.2395 33.6249 47.5752 33.9909 46.955 34.4226V26.9628C46.9618 26.7041 46.9137 26.4469 46.8138 26.2078C46.714 25.9687 46.5646 25.7529 46.3754 25.5745C46.1962 25.3883 45.9798 25.2411 45.7399 25.1423C45.5001 25.0435 45.2421 24.9953 44.9824 25.0007C44.7216 24.9973 44.4628 25.0464 44.2217 25.1451C43.9807 25.2437 43.7624 25.3898 43.58 25.5745C43.3935 25.755 43.2459 25.9711 43.1463 26.2097C43.0467 26.4484 42.997 26.7046 43.0004 26.9628V53.0447C42.995 53.3018 43.0437 53.5571 43.1435 53.7945C43.2433 54.032 43.392 54.2463 43.58 54.4237C43.7603 54.611 43.9782 54.7589 44.2198 54.8578C44.4613 54.9566 44.7211 55.0042 44.9824 54.9975C45.2437 55.0042 45.5034 54.9566 45.745 54.8578C45.9865 54.7589 46.2045 54.611 46.3847 54.4237C46.5728 54.2463 46.7215 54.032 46.8213 53.7945C46.9211 53.5571 46.9698 53.3018 46.9644 53.0447V42.0862C46.9579 41.3578 47.1043 40.6361 47.3944 39.9667C47.9734 38.6377 49.0535 37.585 50.4048 37.0327C51.0863 36.7527 51.8171 36.6085 52.555 36.6085C53.293 36.6085 54.0237 36.7527 54.7053 37.0327C55.3705 37.321 55.9759 37.729 56.491 38.236C57.002 38.741 57.4113 39.3379 57.697 39.9945C57.987 40.6638 58.1335 41.3855 58.127 42.1139V53.0447C58.1242 53.3005 58.1732 53.5544 58.2712 53.7912C58.3691 54.0282 58.5141 54.2432 58.6973 54.4237C59.0726 54.7855 59.5758 54.988 60.0996 54.988C60.6235 54.988 61.1266 54.7855 61.5019 54.4237C61.6852 54.2432 61.8301 54.0282 61.9281 53.7912C62.026 53.5544 62.075 53.3005 62.0722 53.0447V42.1139C62.0825 40.8422 61.8279 39.5818 61.3243 38.4118C60.8477 37.2986 60.1589 36.2867 59.2956 35.4316Z" fill="url(#paint3_linear_469_257)"></path><path d="M112.069 50.9897C111.895 50.9907 111.723 50.9568 111.562 50.89C111.401 50.8232 111.256 50.7249 111.135 50.6009C111.008 50.4822 110.907 50.3387 110.839 50.1792C110.772 50.0198 110.739 49.8482 110.742 49.6754V27.0088C110.745 26.7364 110.69 26.4665 110.578 26.2173C110.467 25.9682 110.303 25.7457 110.097 25.565C109.911 25.383 109.691 25.2393 109.448 25.1424C109.206 25.0455 108.946 24.9972 108.685 25.0004C108.417 24.995 108.151 25.0431 107.902 25.1417C107.653 25.2402 107.426 25.3873 107.236 25.5742C107.046 25.7618 106.896 25.9857 106.797 26.2324C106.697 26.479 106.649 26.7432 106.656 27.0088V49.879C106.649 49.9714 106.649 50.0642 106.656 50.1567C106.75 51.4012 107.298 52.5695 108.199 53.4423C108.699 53.9467 109.297 54.3448 109.958 54.6121C110.619 54.8796 111.328 55.0106 112.041 54.9973C112.302 55.0011 112.561 54.954 112.803 54.8587C113.045 54.7635 113.266 54.6219 113.453 54.4419C113.653 54.2579 113.811 54.0341 113.918 53.7854C114.024 53.5365 114.076 53.2682 114.07 52.9981C114.071 52.7345 114.019 52.4732 113.916 52.2301C113.813 51.9868 113.662 51.7664 113.472 51.5819C113.29 51.3957 113.072 51.2473 112.831 51.1456C112.59 51.0438 112.331 50.9908 112.069 50.9897Z" fill="url(#paint4_linear_469_257)"></path><defs><linearGradient id="paint0_linear_469_257" x1="45.0202" y1="43.8074" x2="170.773" y2="43.8074" gradientUnits="userSpaceOnUse"><stop stop-color="#F18023"></stop><stop offset="0.53" stop-color="#DB579B"></stop><stop offset="1" stop-color="#EC3D24"></stop></linearGradient><linearGradient id="paint1_linear_469_257" x1="42.7055" y1="44.6518" x2="168.449" y2="43.3816" gradientUnits="userSpaceOnUse"><stop stop-color="#F18023"></stop><stop offset="0.53" stop-color="#DB579B"></stop><stop offset="1" stop-color="#EC3D24"></stop></linearGradient><linearGradient id="paint2_linear_469_257" x1="45.0195" y1="40.0035" x2="170.772" y2="40.0035" gradientUnits="userSpaceOnUse"><stop stop-color="#F18023"></stop><stop offset="0.53" stop-color="#DB579B"></stop><stop offset="1" stop-color="#EC3D24"></stop></linearGradient><linearGradient id="paint3_linear_469_257" x1="45.0198" y1="40.0037" x2="170.772" y2="40.0037" gradientUnits="userSpaceOnUse"><stop stop-color="#F18023"></stop><stop offset="0.53" stop-color="#DB579B"></stop><stop offset="1" stop-color="#EC3D24"></stop></linearGradient><linearGradient id="paint4_linear_469_257" x1="45.0188" y1="40.0035" x2="170.771" y2="40.0035" gradientUnits="userSpaceOnUse"><stop stop-color="#F18023"></stop><stop offset="0.53" stop-color="#DB579B"></stop><stop offset="1" stop-color="#EC3D24"></stop></linearGradient></defs></svg>