<svg xmlns="http://www.w3.org/2000/svg" width="150" height="150" viewBox="0 0 150 150" fill="none"><path d="M0 75C0 33.5786 33.5786 0 75 0V0C116.421 0 150 33.5786 150 75V75C150 116.421 116.421 150 75 150V150C33.5786 150 0 116.421 0 75V75Z" fill="white"></path><circle cx="74.5" cy="74.5" r="72.5" fill="#265DB0"></circle><path d="M139.506 63.383C138.273 60.1549 135.743 57.2729 132.662 55.1949C123.77 49.5611 110.217 49.1599 101.055 54.2531C96.0574 56.7952 92.773 61.8256 91.7508 67.0062C89.8968 75.5174 90.3756 85.6442 96.9476 92.0238C104.611 98.7265 115.764 100.207 125.682 97.4539C126.153 97.3636 127.647 96.9884 128.676 96.4432L128.966 96.3192C132.047 95.0421 134.984 92.9625 137.178 90.1463C142.239 82.7622 142.586 71.6982 139.506 63.383ZM123.358 82.4957C123.008 84.1098 121.92 85.782 120.204 86.3884C117.472 87.5875 113.777 87.2552 111.246 85.8525C109.123 84.3716 108.85 81.8924 108.577 79.5464C108.37 74.9217 108.035 70.0245 109.333 65.7964C110.351 63.1778 113.158 62.504 115.697 62.3065C118.363 62.3065 120.958 62.7123 122.605 64.8577C123.63 66.3967 123.567 68.4104 123.77 70.2235C123.697 74.0442 124.041 78.6015 123.358 82.4957ZM42.2799 86.661C40.0207 86.5232 37.4898 86.7207 35.3027 86.4527L35.3703 62.9037L35.5084 62.7077L42.2799 62.6418C42.3505 58.8196 42.418 54.7202 42.2093 51.2364L16.4202 51.1644L12.1734 51.2379C12.1059 54.7906 12.1059 58.9452 12.1734 62.5714C14.5017 62.6434 16.6873 62.5714 18.9465 62.7812V85.5875L18.8805 86.5247L12.1059 86.6625C11.9647 90.3507 11.9647 94.0429 12.1059 97.7311H42.2784L42.2799 86.661ZM118.221 102.757C115.351 106.853 111.725 110.81 107.765 113.888C107.621 114.098 107.211 114.019 107.08 113.826C105.364 112.755 103.518 111.879 101.873 110.81C104.064 108.196 106.187 105.581 107.829 102.685H105.701C104 105.177 102.217 107.791 99.9604 109.997C96.9476 108.792 94.2126 107.72 91.1338 106.908L90.7916 106.653C91.2704 105.297 92.1575 104.025 92.4292 102.682H90.5828L88.7365 106.307C84.7046 105.435 80.2552 104.961 76.1497 104.696C75.9425 104.094 76.2141 103.221 75.9425 102.682H74.1636C74.0224 103.489 74.3693 104.097 73.958 104.766C69.7158 104.961 65.6118 105.435 61.6474 106.248L59.7934 102.682C59.1166 102.682 58.3553 102.553 57.8826 102.754L59.5893 106.712L59.3851 106.908C56.3187 107.794 53.3039 108.848 50.3544 110.066L50.0828 109.928C48.1628 107.849 46.3149 105.578 44.8077 103.296C44.4685 102.149 43.0995 102.82 42.3459 102.685C43.982 105.641 46.1783 108.253 48.3638 110.94C46.5175 112.017 44.6772 113.218 42.7526 114.098C38.5675 110.918 34.9193 107.09 31.9461 102.76C31.1235 102.628 30.5817 102.688 29.7545 102.76C34.6811 110.408 42.3459 117.113 50.3514 121.072C50.3514 121.072 50.3514 121.012 50.425 121.012C50.4834 121.012 50.62 121.136 50.4834 121.207C55.892 123.824 61.6428 125.701 67.7267 126.51C88.7334 129.257 108.782 120.34 120.407 102.76C119.68 102.685 118.948 102.684 118.221 102.757ZM89.6973 108.794L89.8983 108.659C92.8482 109.33 95.6477 110.27 98.2491 111.541C96.0574 114.017 93.2518 116.169 90.655 117.979C89.0834 118.914 87.5041 119.931 85.8603 120.73L82.9242 119.456L83.1253 118.992C85.5932 115.708 87.7834 112.349 89.6973 108.794ZM76.2141 106.78C80.1171 106.853 84.0185 107.255 87.6391 108.123L87.7112 108.326C85.7989 111.945 83.3985 115.441 80.8032 118.721C79.6336 118.859 78.5439 118.395 77.3821 118.323L76.2126 118.185C76.0791 114.227 76.0069 110.738 76.2141 106.78ZM63.0149 107.987C66.5726 107.316 70.2653 106.78 74.0946 106.78L74.1652 118.129C72.7255 118.453 71.1524 118.453 69.7834 118.798C66.9778 115.502 64.6541 111.945 62.6727 108.253L63.0149 107.987ZM51.9936 111.613C54.6687 110.334 57.4697 109.389 60.3398 108.657L60.6176 108.728C62.5959 112.418 65.0623 115.904 67.5241 119.392C66.5741 119.933 65.4046 120.256 64.45 120.801C59.8231 118.52 55.6129 115.481 51.9951 111.809V111.613H51.9936ZM60.8232 123.083C55.0755 121.602 49.7344 119.054 44.8092 115.571V115.363C46.4515 114.366 48.0998 113.29 49.8725 112.544C53.7755 116.378 57.8089 119.263 62.1877 122.008C61.847 122.41 61.3006 122.815 60.8232 123.083ZM86.2041 123.949C78.9537 125.502 70.8761 125.562 63.6273 123.821C63.4892 123.487 63.9696 123.415 64.1737 123.219C70.5369 119.122 80.4532 119.122 86.686 123.545C86.8886 123.949 86.3422 123.821 86.2041 123.949ZM92.7745 122.078L89.5591 123.081C89.0097 122.813 88.5339 122.41 88.0504 122.006L88.1886 121.801C92.5689 119.262 96.5348 116.167 100.3 112.478C102.147 113.215 103.928 114.227 105.575 115.361C101.739 118.395 97.2899 120.398 92.7745 122.078ZM31.8126 46.0681C33.505 43.7313 35.3562 41.5133 37.3532 39.4297C39.1259 37.7529 40.7743 36.1434 42.6928 34.9306C44.4731 36.0699 46.4545 37.0193 48.1643 38.0882C46.0447 40.6915 43.8546 43.3193 42.2814 46.1293C42.7572 46.3391 43.6505 46.2733 44.3365 46.1293C46.0447 43.6516 47.8865 41.1708 50.0843 38.955C53.0188 40.0315 55.8966 41.1678 58.9109 41.9763L59.1764 42.2428L57.4728 46.1293C58.2279 46.2733 58.7068 46.2028 59.4542 46.1293C60.0681 44.9961 60.5439 43.7251 61.2284 42.5781C65.202 43.4541 69.3766 43.9211 73.6188 44.0513C74.1621 44.5275 73.7539 45.529 73.9595 46.1293H75.8059C76.0069 45.4708 75.7368 44.7236 76.0069 44.1263C79.979 43.9181 84.1505 43.5153 87.9952 42.5751L88.3282 42.6455L90.1761 46.1263C90.7931 46.1263 91.6127 46.2702 92.0915 45.9884L90.3772 42.108L90.5199 41.9733C93.6616 41.1678 96.6084 39.9611 99.6182 38.7559C101.745 40.9687 103.724 43.5842 105.509 46.1247C106.258 46.1247 107.011 46.1982 107.559 45.9869C106.714 44.4893 105.729 43.0751 104.615 41.7635C103.712 40.4788 102.704 39.2705 101.601 38.151V37.8034L106.391 35.0577L107.082 34.7897C111.247 37.9357 114.893 41.714 117.885 45.9869C118.706 45.9869 119.392 46.2687 120.078 45.9303C110.9 32.2569 95.7827 23.4593 79.4387 22.1929L79.3666 22.323L79.2269 22.1929C77.3821 21.9953 75.1152 21.9172 73.1338 22.1148C72.3833 22.0566 71.4962 22.1148 70.6045 22.1929C54.1868 23.4593 39.0676 31.8495 29.6209 46.1324C30.3055 46.0681 31.1266 46.3407 31.8126 46.0681ZM60.2109 40.1739L59.9377 40.2321C57.129 39.5017 54.3894 38.6211 51.7895 37.4849L51.9215 37.0821C55.6848 33.5279 59.6522 30.5739 64.031 28.2983C65.0623 28.7011 66.0876 29.0334 67.1128 29.5096L66.9118 30.0333C64.3072 33.2614 62.2598 36.7422 60.2109 40.1739ZM73.8214 41.9794C71.9106 42.2474 70.1993 41.9197 68.2762 41.7711C66.4375 41.5016 64.1062 41.3071 62.2598 40.6946C64.2443 37.0224 66.5741 33.4605 69.3766 30.1819L73.7569 30.7776C73.9595 34.2599 73.8214 38.2873 73.8214 41.9794ZM75.9409 42.0514C75.8059 38.4848 75.8765 34.5324 75.9409 30.8419C77.3146 30.6459 78.8125 30.4376 80.1846 30.2401C82.8521 33.5891 85.4582 37.0224 87.2385 40.6946C83.5391 41.5876 79.7471 42.043 75.9409 42.0514ZM97.7733 37.3486C95.0997 38.4833 92.3601 39.5583 89.4225 40.1739C87.303 36.6181 84.9778 33.0639 82.3702 29.6291C83.3294 29.1038 84.4989 28.7011 85.5226 28.1666C89.9781 30.3779 94.2832 33.5279 97.9053 37.1388L97.7733 37.3486ZM89.0097 25.8788C94.7575 27.3581 100.163 29.9032 105.09 33.3916L104.953 33.6596L100.237 36.2721H99.8883C96.2677 32.6627 92.0271 29.5096 87.7112 27.0212C87.8478 26.5511 88.5354 26.2126 89.0097 25.8788ZM86.2762 25.205V25.3474C80.3197 29.6291 70.6751 30.0333 64.384 26.0748C64.031 25.8068 63.3556 25.6767 63.282 25.2065C70.5385 23.5374 79.0857 23.4026 86.2762 25.205ZM44.5376 33.5279C48.8519 30.3779 53.6389 28.0303 58.7037 26.4194C58.9109 26.2096 59.0429 26.012 59.313 26.012V26.1499C59.8594 26.2815 60.2723 25.6736 60.7496 26.0718C61.1624 26.4194 61.6459 26.6843 61.9835 27.0181C57.7445 29.6291 53.5683 32.7209 49.7359 36.4696C47.888 35.8111 46.1844 34.7989 44.536 33.6596L44.5376 33.5279ZM73.892 87.1847C67.4612 88.932 60.4779 87.5997 55.8275 82.7622C55.2827 82.0915 54.9373 81.2921 54.3879 80.6244L45.1546 80.6888C45.0088 86.1204 44.9443 92.3607 45.1546 97.7296L55.4131 97.6637L55.5497 94.4418C56.7177 94.9777 57.8826 95.6469 59.0429 96.2488C66.1582 99.2043 75.3178 99.875 82.3671 96.2488C87.5025 93.4387 90.2406 88.0071 89.4855 82.1588C88.7365 76.4638 83.2604 71.2955 77.7228 69.8912L61.1609 65.1241L59.9361 64.5177C59.3882 64.0522 59.0444 63.4519 59.178 62.7077C60.4779 60.4995 63.4922 61.1702 65.7499 61.2299C70.5385 61.9022 75.4636 63.5116 78.2708 67.8744C81.2774 67.8744 84.766 67.9326 88.0474 67.804C88.187 62.3049 87.9937 57.4781 87.9123 51.9086C84.8335 51.8382 81.0687 51.8382 77.9945 51.9791C77.8564 52.7769 78.1265 53.9132 77.7842 54.7217L74.6394 53.0434C67.1097 49.8918 56.5719 49.5626 49.7328 54.4598C45.2835 57.6741 43.9191 63.4489 45.0824 68.5452C45.968 73.3674 50.62 76.9262 55.0693 78.5985C61.1578 80.7423 67.518 82.2951 73.6863 84.3716C74.2972 84.6442 75.1168 85.2522 74.9848 85.9887C74.9878 86.5844 74.3678 86.929 73.892 87.1847Z" fill="white"></path></svg>