<svg xmlns="http://www.w3.org/2000/svg" width="180" height="80" viewBox="0 0 180 80" fill="none"><path d="M69.8674 46.9904C69.922 47.3684 69.8848 47.7543 69.7588 48.115C69.633 48.4758 69.4222 48.8009 69.1442 49.0631C68.6233 49.4113 68.0063 49.5873 67.3801 49.5658H66.6304C66.3799 49.5643 66.1296 49.5497 65.8806 49.5218V53.3675C66.2198 53.413 66.5615 53.4366 66.9038 53.4381H67.9622C68.7483 53.4422 69.5314 53.3413 70.2908 53.1381C71.0637 52.9353 71.7748 52.5452 72.3609 52.0022C72.9472 51.459 73.3904 50.7797 73.6514 50.0245C74.0224 48.9502 74.1956 47.8177 74.163 46.6816V26.4917H69.8674V46.9904Z" fill="#003A79"></path><path d="M82.2512 26.4917H77.9204V53.3675H82.2512V26.4917Z" fill="#003A79"></path><path d="M99.1422 50.1039V45.9584C99.1764 44.7325 98.9665 43.5123 98.5248 42.3685C98.3318 41.8755 98.0303 41.4323 97.6428 41.0718C97.2534 40.7007 96.7907 40.4153 96.2844 40.2339C98.172 39.3695 99.1158 37.5525 99.1158 34.7828V32.6748C99.2576 30.9902 98.7245 29.3182 97.634 28.0264C96.6225 27.0033 94.9908 26.4917 92.7386 26.4917H86.1675V53.3675H90.4894V42.4214H91.9889C92.3832 42.3851 92.7806 42.435 93.1538 42.5675C93.5268 42.7 93.8668 42.912 94.1499 43.1887C94.6683 43.9686 94.9048 44.9022 94.8203 45.8349V50.0598C94.8203 50.5978 94.8203 51.0477 94.8203 51.4093C94.8292 51.7047 94.8558 51.9992 94.8997 52.2914C94.9259 52.4861 94.9703 52.6781 95.0319 52.8647C95.0848 53.0176 95.1378 53.1851 95.1908 53.3675H99.6009C99.3971 52.8837 99.2662 52.3724 99.2128 51.8503C99.1505 51.2645 99.1239 50.6753 99.1334 50.0862L99.1422 50.1039ZM94.785 35.7443C94.8322 36.1416 94.7961 36.5444 94.6793 36.9272C94.5623 37.3097 94.367 37.6639 94.1058 37.9671C93.569 38.4077 92.8849 38.6284 92.1918 38.5845H90.4894V30.3021H92.5975C92.9069 30.2761 93.2179 30.3215 93.507 30.4346C93.7959 30.5478 94.0552 30.7257 94.2646 30.9548C94.6708 31.579 94.8571 32.3209 94.7938 33.0629L94.785 35.7443Z" fill="#003A79"></path><path d="M106.031 26.4917L101.621 53.3675H105.572L106.313 48.4898H111.605L112.355 53.3675H116.712L112.302 26.4917H106.031ZM106.913 44.8381L108.977 31.2459L111.058 44.8381H106.913Z" fill="#003A79"></path><path d="M122.816 26.4917L118.406 53.3675H122.384L123.125 48.4898H128.417L129.167 53.3675H133.524L129.113 26.4917H122.816ZM123.698 44.8381L125.779 31.2459L127.861 44.8381H123.698Z" fill="#003A79"></path><path d="M141.382 30.8662C141.907 30.5237 142.522 30.3484 143.147 30.3634H143.897C144.152 30.3634 145.034 30.3634 145.272 30.3634V26.5707C144.902 26.5177 143.932 26.4913 143.614 26.4913H142.547C141.757 26.4836 140.971 26.5876 140.21 26.8C139.472 26.993 138.786 27.352 138.208 27.8496C137.589 28.413 137.118 29.1183 136.832 29.9047C136.461 30.9791 136.288 32.1116 136.32 33.2477V53.4376H140.642V42.2709H144.62V38.4253H140.642V32.9478C140.589 32.5689 140.627 32.1827 140.755 31.8219C140.882 31.4611 141.094 31.1363 141.374 30.875" fill="#003A79"></path><path d="M50.6744 49.0369L50.3921 48.6752C49.7754 47.916 49.4388 46.9676 49.4388 45.9894C49.4388 45.0112 49.7754 44.0628 50.3921 43.3036L50.6921 42.9419C51.0293 42.6189 51.2991 42.2322 51.4859 41.8041C51.6721 41.377 51.7682 40.9161 51.7682 40.4502C51.7682 39.9843 51.6721 39.5234 51.4859 39.0963C51.2991 38.6682 51.0293 38.2814 50.6921 37.9585L50.3921 37.6056C49.7754 36.8464 49.4388 35.898 49.4388 34.9198C49.4388 33.9416 49.7754 32.9933 50.3921 32.234L50.6832 31.8724C51.1892 31.3986 51.5396 30.7822 51.6876 30.1049C51.8357 29.4277 51.7745 28.7213 51.5123 28.0796C51.2429 27.4358 50.7886 26.8863 50.2069 26.5008C49.6152 26.1151 48.9242 25.9098 48.2179 25.9098C47.5116 25.9098 46.8206 26.1151 46.2289 26.5008C45.6472 26.8863 45.1929 27.4358 44.9235 28.0796C44.6613 28.7213 44.6002 29.4277 44.7482 30.1049C44.8963 30.7822 45.2465 31.3986 45.7526 31.8724L46.0261 32.2076C46.6484 32.9745 46.9881 33.9321 46.9881 34.9198C46.9881 35.9075 46.6484 36.8651 46.0261 37.6321L45.7526 37.9673C45.4103 38.2947 45.1373 38.6876 44.95 39.1227C44.7637 39.5498 44.6675 40.0108 44.6675 40.4767C44.6675 40.9425 44.7637 41.4035 44.95 41.8306C45.1393 42.2594 45.4121 42.6462 45.7526 42.9684L46.0261 43.3124C46.6531 44.0772 46.9958 45.0357 46.9958 46.0246C46.9958 47.0137 46.6531 47.9721 46.0261 48.737L45.7614 49.0633C45.2527 49.5353 44.899 50.1504 44.7471 50.8274C44.5971 51.5029 44.6588 52.208 44.9235 52.8473C45.1914 53.4943 45.6458 54.047 46.2289 54.4349C46.8295 54.8158 47.5288 55.0122 48.24 54.9994C48.9452 55.0017 49.6354 54.7961 50.2246 54.4085C50.8121 54.0255 51.2677 53.4713 51.53 52.8208C51.7948 52.1816 51.8563 51.4764 51.7064 50.801C51.5544 50.1239 51.2007 49.5088 50.6921 49.0369" fill="#FF9F00"></path><path d="M45.5407 46.0022C45.534 45.4818 45.3738 44.975 45.0804 44.5451C44.7871 44.1152 44.3735 43.7814 43.8913 43.5854C43.4006 43.3806 42.8597 43.3284 42.3389 43.4355C41.8207 43.5354 41.3427 43.7836 40.9629 44.1499C40.5924 44.5151 40.3377 44.9815 40.2308 45.4905C40.1254 45.9998 40.1777 46.529 40.3808 47.0077C40.587 47.4877 40.9308 47.896 41.3686 48.1808C41.887 48.5171 42.504 48.6679 43.1191 48.6087C43.7341 48.5494 44.3111 48.2835 44.7557 47.8545C45.0033 47.6135 45.2004 47.3257 45.3351 47.0075C45.4699 46.6895 45.5399 46.3476 45.5407 46.0022Z" fill="#FF9F00"></path><path d="M53.5318 43.3737C53.0026 43.3728 52.4846 43.5261 52.0412 43.8147C51.6032 44.0996 51.2595 44.5078 51.0532 44.9879C50.8525 45.4676 50.8007 45.9966 50.9045 46.5063C51.0082 47.0159 51.2629 47.4826 51.6354 47.8456C52.01 48.2143 52.486 48.463 53.0026 48.5601C53.5228 48.6641 54.062 48.6151 54.555 48.4189C55.0444 48.2257 55.465 47.891 55.7634 47.4575C56.0559 47.028 56.2153 46.5218 56.222 46.0022C56.2225 45.6559 56.1503 45.3133 56.0103 44.9966C55.8833 44.6655 55.688 44.365 55.437 44.1146C55.183 43.8679 54.8835 43.6732 54.555 43.5413C54.2261 43.4274 53.8796 43.3736 53.5318 43.3825" fill="#FF9F00"></path><path d="M61.4703 28.1849C61.4751 28.1706 61.4751 28.1551 61.4703 28.1408C61.0469 26.659 60.7647 25.5917 60.6677 25.3359C60.6545 25.28 60.6296 25.2275 60.5947 25.1818C60.5597 25.1362 60.5154 25.0985 60.4648 25.0713C60.3574 25.0272 60.237 25.0272 60.1296 25.0713L57.3688 25.6976H57.3159C57.2447 25.7129 57.18 25.7499 57.1307 25.8034C57.0791 25.8543 57.0425 25.9184 57.0248 25.9887C57.0026 26.0575 57.0026 26.1315 57.0248 26.2003C57.0455 26.2714 57.0851 26.3354 57.1395 26.3856H57.1925C57.3918 26.5095 57.5557 26.6826 57.6687 26.8883C57.7755 27.0932 57.8358 27.3191 57.8451 27.5499C57.8451 28.7318 56.7955 30.7428 53.6466 31.3603C53.1196 31.4822 52.6277 31.7236 52.2089 32.0659C51.7882 32.4016 51.4552 32.8344 51.2387 33.3272C51.0266 33.813 50.93 34.3414 50.9564 34.8708C50.9813 35.4356 51.1417 35.9862 51.4239 36.4761C51.7272 37.007 52.1653 37.4482 52.694 37.755C53.2301 38.066 53.8385 38.2303 54.4581 38.2314C55.163 38.2657 55.8615 38.0841 56.4603 37.711C57.055 37.3486 57.5209 36.8087 57.7922 36.1674C58.0894 35.4672 58.1422 34.6873 57.9421 33.9535C57.016 30.9545 58.2861 29.261 59.4769 28.6613C59.8899 28.4995 60.3425 28.4687 60.7735 28.573H60.8617C60.9258 28.5861 60.9918 28.5861 61.0558 28.573C61.1222 28.5642 61.1856 28.54 61.241 28.5024C61.3005 28.4685 61.3471 28.4158 61.3733 28.3525C61.4098 28.3281 61.4426 28.2984 61.4703 28.2643V28.1849Z" fill="#FF9F00"></path><path d="M35.0093 28.1675C35.0052 28.1501 35.0052 28.132 35.0093 28.1146C35.4062 26.6416 35.6973 25.5743 35.7855 25.3186C35.8006 25.2623 35.8273 25.2097 35.8637 25.1642C35.9001 25.1186 35.9456 25.0811 35.9972 25.0539C36.0457 25.0266 36.1002 25.0115 36.1559 25.0098C36.211 24.9967 36.2684 24.9967 36.3235 25.0098L39.0931 25.6802H39.146C39.241 25.7212 39.3167 25.7969 39.3577 25.8919C39.3956 25.953 39.4168 26.0229 39.4195 26.0948C39.4326 26.1469 39.4326 26.2014 39.4195 26.2535C39.4005 26.3038 39.3704 26.349 39.3313 26.3858C39.3151 26.408 39.294 26.4262 39.2695 26.4388C39.0724 26.5663 38.9114 26.7425 38.8021 26.9503C38.6874 27.152 38.6266 27.3799 38.6256 27.6119C38.6256 28.8026 39.6753 30.8136 42.8242 31.4223C43.5621 31.5974 44.224 32.0056 44.7117 32.5865C45.0273 32.969 45.2556 33.4159 45.3805 33.8958C45.5054 34.3757 45.524 34.8772 45.4349 35.365C45.3483 35.8551 45.1523 36.3193 44.8616 36.7233C44.5757 37.1374 44.2023 37.4836 43.7679 37.7377C43.2319 38.0487 42.6235 38.2128 42.0039 38.214C41.3024 38.2427 40.6083 38.0615 40.0104 37.6936C39.4153 37.3253 38.9474 36.7835 38.6697 36.1412C38.3757 35.4498 38.3198 34.6803 38.511 33.9538C39.4371 30.9548 38.167 29.2613 36.9762 28.6615C36.5474 28.5098 36.0822 28.4944 35.6444 28.6174H35.565C35.5213 28.626 35.4764 28.626 35.4327 28.6174C35.3772 28.6266 35.3206 28.6266 35.2651 28.6174C35.2166 28.5991 35.1718 28.5721 35.1328 28.538C35.0806 28.5137 35.0373 28.4736 35.0093 28.4233C34.9969 28.3711 34.9969 28.3168 35.0093 28.2646V28.1852" fill="#FF9F00"></path></svg>