<svg xmlns="http://www.w3.org/2000/svg" width="200" height="80" viewBox="0 0 200 80" fill="none"><path d="M127.329 31.4363C125.781 32.807 124.296 34.128 122.789 35.4644C122.245 34.6912 121.626 34.0223 120.877 33.4786C117 30.6652 110.901 31.8206 108.916 36.9932C107.801 39.9002 108.092 42.7258 109.899 45.3003C111.226 47.1912 113.108 48.2032 115.403 48.4516C117.149 48.6407 118.774 48.2962 120.233 47.3077C121.713 46.305 122.689 44.9114 123.241 43.2163C123.255 43.1739 123.265 43.1305 123.272 43.0865C123.27 43.0549 123.264 43.0237 123.254 42.9936H112.756V37.5026H129.428C129.48 37.9266 129.553 38.3633 129.585 38.8034C129.787 41.4889 129.472 44.1032 128.4 46.5923C126.843 50.2065 124.228 52.6816 120.446 53.8685C119.288 54.2206 118.089 54.4172 116.879 54.4533C114.39 54.5503 112.018 54.0779 109.807 52.9252C106.241 51.0646 103.81 48.208 102.644 44.3529C101.552 40.7467 101.848 37.2025 103.559 33.8453C105.437 30.1605 108.386 27.6694 112.392 26.5732C117.498 25.1749 121.989 26.4473 125.892 29.9472C126.387 30.3933 126.824 30.9101 127.329 31.4363Z" fill="black"></path><path d="M177.677 42.9827H161.046V37.4898H171.587C171.469 37.1634 171.385 36.8842 171.267 36.615C170.283 34.3614 168.685 32.7505 166.248 32.194C162.423 31.3192 158.451 33.2283 157.075 37.2832C156.076 40.2292 156.444 43.0421 158.353 45.5507C159.691 47.3057 161.523 48.2389 163.717 48.453C165.858 48.6616 167.786 48.107 169.453 46.7532C170.047 46.2713 170.541 45.667 171.118 45.0816L175.559 49.0208C174.708 50.1011 173.703 51.0495 172.575 51.8357C170.54 53.2676 168.29 54.1659 165.808 54.4009C163.251 54.6424 160.781 54.2332 158.46 53.1128C154.901 51.3968 152.403 48.679 151.102 44.9497C149.837 41.3247 150.012 37.7172 151.633 34.2255C153.057 31.1584 155.326 28.8886 158.369 27.4129C160.732 26.269 163.235 25.8598 165.847 26.0792C168.374 26.2912 170.675 27.1041 172.691 28.6598C174.821 30.3044 176.243 32.4544 177.084 34.992C177.934 37.5578 178.112 40.1855 177.708 42.8549C177.701 42.8981 177.69 42.9408 177.677 42.9827Z" fill="black"></path><path d="M52.226 26.525V28.7395C52.226 33.3378 52.226 37.936 52.226 42.5343C52.226 43.5611 52.3828 44.5624 52.8376 45.5005C53.4648 46.7925 54.4884 47.5918 55.8692 47.9418C57.1969 48.2783 58.5171 48.2405 59.7949 47.736C61.4288 47.0899 62.305 45.8093 62.6386 44.1345C62.7387 43.6066 62.7877 43.0703 62.7847 42.533C62.7996 37.3291 62.8038 32.1252 62.7974 26.9213C62.7974 26.5916 62.8943 26.5176 63.212 26.5176C65.2307 26.5317 67.2495 26.525 69.2683 26.525H69.6344C69.6411 26.667 69.6518 26.7854 69.6518 26.9032C69.6518 32.0954 69.6518 37.2873 69.6518 42.479C69.6518 44.5309 69.3221 46.5166 68.4083 48.3711C66.9951 51.2418 64.6856 53.0815 61.6286 53.9139C58.3172 54.8149 55.0126 54.7255 51.8291 53.3447C48.8506 52.0527 46.9228 49.7877 45.9639 46.6902C45.5298 45.2865 45.3737 43.8465 45.375 42.3836C45.3783 37.2362 45.3757 32.0891 45.3677 26.9422C45.3677 26.595 45.4619 26.5156 45.7983 26.5182C47.8057 26.5344 49.8129 26.5263 51.8202 26.5263L52.226 26.525Z" fill="black"></path><path d="M98.4323 53.9428H91.5853V53.5106C91.5799 48.3068 91.5737 43.1029 91.5665 37.8991C91.5665 37.0667 91.4561 36.2464 91.1628 35.4604C90.5976 33.9464 89.5336 32.9633 87.9719 32.5562C86.5432 32.1834 85.12 32.2358 83.7647 32.8522C82.2595 33.5373 81.456 34.7862 81.158 36.3736C81.0604 36.9021 81.011 37.4384 81.0105 37.9758C80.9988 42.674 80.9967 47.3728 81.0039 52.0721V53.9359H74.1568V53.5685C74.1568 48.231 74.1353 42.8928 74.1656 37.5532C74.1824 34.6792 74.9859 32.0508 76.8983 29.8362C78.4864 27.9965 80.5261 26.907 82.8711 26.3889C85.3145 25.8506 87.772 25.8506 90.1911 26.5181C94.5031 27.7125 97.1705 30.5172 98.0918 34.8986C98.332 36.0392 98.41 37.2309 98.4175 38.3977C98.4517 43.4217 98.4323 48.4456 98.4323 53.471V53.9428Z" fill="black"></path><path d="M149.419 47.8289V53.9397H133.249V53.5878C133.249 47.1305 133.249 40.673 133.249 34.2152C133.249 32.4327 133.555 30.7161 134.513 29.1684C135.712 27.2351 137.447 26.178 139.726 26.034C139.805 26.0292 139.883 26.034 139.962 26.034C140.004 26.0392 140.047 26.0471 140.089 26.0575V47.8289H149.419Z" fill="black"></path><path d="M33.4497 54.4067V26.5252H33.7862C35.8372 26.5252 37.8909 26.5299 39.9406 26.5192C40.2206 26.5192 40.2979 26.5979 40.2979 26.8772C40.2905 33.4132 40.3041 39.9485 40.2845 46.4846C40.2791 48.3984 39.8627 50.2172 38.7038 51.8006C37.4818 53.4666 35.8305 54.3462 33.768 54.4526C33.7007 54.455 33.6332 54.4532 33.5661 54.4472C33.5262 54.4371 33.4873 54.4235 33.4497 54.4067Z" fill="black"></path><path d="M23.0005 50.526C23.0375 48.2845 24.8073 46.5498 27.0279 46.578C29.2135 46.6055 30.9981 48.4386 30.9376 50.6155C30.9261 51.1455 30.809 51.668 30.5931 52.1523C30.3772 52.6364 30.0668 53.0726 29.6801 53.4354C29.2934 53.7981 28.8383 54.08 28.3413 54.2646C27.8442 54.4492 27.3154 54.5327 26.7857 54.5104C24.7084 54.4329 22.9649 52.6382 23.0005 50.526Z" fill="black"></path></svg>