<svg xmlns="http://www.w3.org/2000/svg" width="180" height="80" viewBox="0 0 180 80" fill="none"><g clip-path="url(#clip0_473_419)"><path d="M33.5493 28.1411C33.5855 28.1411 33.6217 28.1411 33.6506 28.1411C34.063 28.1917 34.2222 28.1628 34.9024 29.1017C35.5898 30.0478 37.7966 34.6483 38.2091 35.45C38.6215 36.2517 41.125 41.8344 41.4434 43.0983C41.7328 44.2539 42.3623 45.4094 40.6619 46.4422C38.8096 47.5617 36.4074 48.4139 35.5319 48.7172C34.6491 49.0206 33.1731 49.5911 32.3265 49.7933C31.8707 49.9017 31.5957 50.01 31.1688 50.01C30.7998 50.01 30.315 49.9306 29.4974 49.6922C27.7391 49.1794 25.9736 48.6233 24.9389 48.2406C23.9042 47.8578 22.0736 47.1717 21.2126 46.5361C20.3877 45.9294 19.8595 45.8933 20.0187 43.8278C20.1851 41.6972 20.6048 40.4261 21.0606 38.9744C21.5165 37.5228 22.363 34.9156 22.9057 33.9694C23.4484 33.0233 23.8174 32.3589 25.5395 31.3694C27.2616 30.38 28.441 29.8167 29.4395 29.3544C30.3946 28.9139 32.7679 28.1411 33.5493 28.1411ZM33.5493 27C32.4278 27 29.794 27.9317 28.9619 28.3144C27.9055 28.8056 26.69 29.3906 24.9679 30.3728C22.9998 31.4994 22.5078 32.3589 21.9361 33.3556L21.9144 33.3917C21.4658 34.1717 20.8146 35.9267 19.9681 38.6206L19.9102 38.8156C19.4688 40.2311 19.0419 41.5672 18.8827 43.7339C18.7235 45.8211 19.2011 46.5361 20.272 47.2583C20.366 47.3233 20.4528 47.3811 20.5397 47.4461C21.4658 48.125 23.0938 48.7606 24.5482 49.3022C25.8579 49.7933 28.0141 50.4361 29.1862 50.7828C30.069 51.0428 30.6623 51.1511 31.1833 51.1511C31.6536 51.1511 31.9937 51.0644 32.3193 50.9778C32.4061 50.9561 32.5002 50.9272 32.6015 50.9056C33.2671 50.7467 34.2078 50.4072 35.0471 50.1111C35.3655 49.9956 35.6694 49.8872 35.9154 49.8006C37.131 49.3889 39.4464 48.5294 41.2697 47.4244C43.4983 46.0739 42.9701 44.225 42.6807 43.2356C42.6373 43.0911 42.6011 42.9539 42.5649 42.8239C42.2031 41.3867 39.6128 35.6594 39.2365 34.9372C39.1497 34.7711 38.9833 34.4244 38.7662 33.9839C37.5868 31.5933 36.3929 29.1956 35.843 28.4372C35.1122 27.4261 34.6853 27.1156 33.8677 27.0217H33.8098C33.723 27 33.6434 27 33.5493 27Z" fill="#DE3E59"></path><path d="M27.0157 29.5061C28.4122 29.5061 29.4614 29.6939 30.6118 29.8817C32.0879 30.12 34.7361 30.5822 35.7347 30.9867C36.7332 31.3911 37.435 31.6583 38.6361 33.2256C39.8445 34.7928 40.5608 35.8906 41.1541 36.815C41.7475 37.7467 42.9413 40.1661 42.9341 40.8378C42.9341 41.2567 42.992 41.4156 42.1816 42.2244C41.364 43.0478 37.218 45.9222 36.5016 46.4494C35.7853 46.9767 30.7348 50.2917 29.5554 50.7972C28.9549 51.05 28.3616 51.4183 27.7465 51.4183C27.2617 51.4183 26.748 51.1944 26.2053 50.5156C24.845 48.8328 23.6729 46.565 23.2532 45.7417C22.8335 44.9039 22.0593 43.5172 21.741 42.7083C21.4226 41.8994 21.1911 41.7044 21.4298 39.8772C21.6758 38.05 21.9508 36.2083 22.1751 35.125C22.3994 34.0344 22.7974 32.1133 23.2894 31.16C23.7597 30.25 23.7163 29.7156 25.7423 29.5711C26.1981 29.535 26.6178 29.5206 27.0085 29.5206M27.0085 28.4156C26.5744 28.4156 26.133 28.43 25.6627 28.4661C23.615 28.6106 22.9927 29.1956 22.4501 30.3511C22.4066 30.4522 22.356 30.5533 22.3053 30.6472C21.7844 31.6583 21.4009 33.37 21.0898 34.8939C20.8076 36.2733 20.4964 38.5122 20.33 39.7256C20.1057 41.4156 20.2432 42.0006 20.5977 42.8311C20.6339 42.9178 20.6701 43.0044 20.7063 43.1056C20.9523 43.7411 21.4226 44.6294 21.835 45.4167C21.9942 45.72 22.1462 46.0089 22.2619 46.24C22.8408 47.3883 24.0057 49.5622 25.3371 51.2161C26.0389 52.09 26.8493 52.5306 27.7465 52.5306C28.4701 52.5306 29.0779 52.2489 29.6133 51.9961C29.7436 51.9311 29.8738 51.8733 29.9896 51.8228C31.3282 51.2522 36.5089 47.8289 37.1601 47.3522C37.3048 47.2439 37.6159 47.02 38.0139 46.7383C40.1629 45.2144 42.3118 43.6689 42.9703 43.0117C43.8096 42.1667 44.0412 41.7189 44.0412 40.9317V40.8594C44.0556 39.7256 42.4855 36.8583 42.0875 36.23C41.458 35.2478 40.7128 34.1211 39.5117 32.5611C38.1369 30.7772 37.2324 30.4089 36.1833 29.99L36.1399 29.9756C35.3222 29.6433 33.5206 29.2533 30.7783 28.8056L30.5829 28.7767C29.4686 28.5961 28.4122 28.4228 27.0013 28.4228L27.0085 28.4156Z" fill="#9C769E"></path><path d="M34.2442 29.9611C35.3006 29.9611 36.603 29.9972 37.3844 30.2139C38.3612 30.4811 38.8533 30.3222 39.4611 32.3011C40.0906 34.345 40.1629 35.6811 40.2787 37.1978C40.3945 38.7145 40.5681 41.4517 40.4162 42.5278C40.2642 43.6039 40.1701 44.355 38.9618 45.8933C37.7535 47.4317 36.8779 48.385 36.1327 49.1722C35.3874 49.9595 33.1371 51.7 32.7247 51.8156C32.5872 51.8517 32.4787 51.8878 32.3557 51.8878C32.1314 51.8878 31.8564 51.7722 31.2342 51.3678C30.2646 50.7322 26.5672 47.2439 25.8943 46.6445C25.2286 46.045 20.9017 41.7478 20.1492 40.6861C19.4618 39.7111 18.4633 38.8589 19.6427 37.2917C20.9234 35.58 22.8119 33.9189 23.4993 33.3267C24.1939 32.7272 25.3371 31.6583 26.039 31.1672C26.7408 30.6761 26.8638 30.4017 28.6583 30.2428C30.4527 30.0911 32.2616 29.9683 33.3542 29.9539C33.6074 29.9539 33.9113 29.9539 34.2369 29.9539M34.2369 28.8489C33.9041 28.8489 33.6002 28.8489 33.3397 28.8489C31.965 28.8633 29.7581 29.0439 28.5642 29.145C26.8855 29.2895 26.3573 29.5567 25.6338 30.0983C25.5614 30.1489 25.4891 30.2067 25.4022 30.2645C24.8523 30.6472 24.1143 31.3045 23.4631 31.8895C23.2099 32.1133 22.9783 32.3228 22.7829 32.4889C21.8206 33.3122 20.0262 34.9517 18.7599 36.6272C17.2332 38.6639 18.3403 40.1083 18.9915 40.9822C19.0783 41.0978 19.1651 41.2133 19.2447 41.3217C20.0985 42.5278 24.5484 46.9261 25.1562 47.4678C25.2937 47.5906 25.5759 47.8506 25.9377 48.1828C27.8841 49.9811 29.8522 51.7867 30.6264 52.2922C31.2993 52.7328 31.7985 52.9928 32.3557 52.9928C32.6234 52.9928 32.8332 52.935 32.9924 52.8917H33.0286C33.8245 52.6606 36.2991 50.6167 36.9431 49.9306C37.7317 49.0928 38.629 48.1106 39.8373 46.5722C41.2193 44.8172 41.3568 43.8495 41.5087 42.7156V42.6722C41.639 41.7911 41.5956 39.9206 41.3785 37.1111L41.364 36.9089C41.2555 35.4356 41.147 34.0417 40.5175 31.9689C39.9097 29.99 39.215 29.5061 37.9922 29.2172C37.8837 29.1956 37.7824 29.1667 37.6739 29.1378C36.9503 28.9356 35.8577 28.8417 34.2369 28.8417V28.8489Z" fill="#E86362"></path><path d="M58.9175 44.3622H53.8164V33.1028C53.8164 32.8933 53.6427 32.7272 53.4401 32.7272H51.1609C50.9511 32.7272 50.7847 32.9006 50.7847 33.1028V46.8972C50.7847 47.1067 50.9583 47.2728 51.1609 47.2728H58.9247C59.1346 47.2728 59.301 47.0995 59.301 46.8972V44.745C59.301 44.5356 59.1273 44.3695 58.9247 44.3695L58.9175 44.3622Z" fill="#2D252E"></path><path d="M66.7682 32.72H64.4817C64.2739 32.72 64.1055 32.8881 64.1055 33.0956V46.8972C64.1055 47.1046 64.2739 47.2728 64.4817 47.2728H66.7682C66.976 47.2728 67.1444 47.1046 67.1444 46.8972V33.0956C67.1444 32.8881 66.976 32.72 66.7682 32.72Z" fill="#2D252E"></path><path d="M84.8355 32.72H82.3175C82.1511 32.72 82.0064 32.8283 81.9558 32.9872L78.6274 43.51L75.2773 32.9872C75.2266 32.8283 75.0819 32.72 74.9155 32.72H72.4192C72.2962 32.72 72.1804 32.7778 72.1081 32.8789C72.0357 32.98 72.014 33.1028 72.0574 33.2183L76.6955 47.0128C76.7461 47.1644 76.8908 47.2728 77.0572 47.2728H80.1686C80.3277 47.2728 80.4725 47.1717 80.5303 47.0128L85.1901 33.2183C85.2263 33.1028 85.2118 32.98 85.1394 32.8789C85.0671 32.7778 84.9585 32.72 84.8283 32.72H84.8355Z" fill="#2D252E"></path><path d="M95.1391 38.7289C92.9323 38.0645 92.5633 37.6239 92.5633 36.88C92.5633 36.0928 93.2434 35.5872 94.2926 35.5872C95.4141 35.5872 96.1955 36.0639 96.7454 37.0822C96.7889 37.1689 96.8684 37.2339 96.9697 37.2556C97.0638 37.2845 97.1651 37.27 97.2519 37.2195L99.097 36.1578C99.2634 36.0567 99.3286 35.84 99.2417 35.6739C98.236 33.7745 96.4777 32.7272 94.2926 32.7272C91.9699 32.7272 89.6184 34.1789 89.6184 36.9595C89.6184 38.5267 90.1393 40.1228 93.8874 41.2061C96.0508 41.8272 96.8178 42.2172 96.8178 43.1345C96.8178 44.0517 96.0653 44.5067 94.6905 44.5067C93.2289 44.5067 92.2521 43.9145 91.6877 42.7083C91.6443 42.6145 91.5647 42.5495 91.4707 42.5206C91.3694 42.4917 91.2608 42.4989 91.174 42.5567L89.2855 43.6617C89.1263 43.7556 89.0612 43.9506 89.1263 44.1167C90.0018 46.2328 91.9482 47.4028 94.6037 47.4028C97.7367 47.4028 99.7555 45.72 99.7555 43.1128C99.7555 40.2022 97.3026 39.4295 95.1247 38.7506L95.1391 38.7289Z" fill="#2D252E"></path><path d="M110.363 32.72H105.276C105.066 32.72 104.9 32.8933 104.9 33.0956V46.89C104.9 47.0994 105.074 47.2656 105.276 47.2656H107.555C107.765 47.2656 107.932 47.0922 107.932 46.89V42.5567H110.356C113.163 42.5567 115.37 40.3972 115.37 37.6383C115.37 34.8794 113.17 32.72 110.356 32.72H110.363ZM112.353 37.6383C112.353 38.8156 111.499 39.7111 110.363 39.7111H107.939V35.5728H110.363C111.513 35.5728 112.353 36.4467 112.353 37.6456V37.6383Z" fill="#2D252E"></path><path d="M126.513 32.98C126.462 32.8283 126.317 32.7272 126.158 32.7272H123.04C122.881 32.7272 122.736 32.8283 122.685 32.98L117.845 46.7745C117.801 46.89 117.823 47.02 117.895 47.1211C117.968 47.2222 118.083 47.28 118.206 47.28H120.681C120.847 47.28 120.992 47.1789 121.043 47.02L121.802 44.6945H127.396L128.17 47.02C128.22 47.1717 128.365 47.28 128.532 47.28H131.021C131.144 47.28 131.259 47.2222 131.332 47.1211C131.404 47.02 131.419 46.89 131.382 46.7745L126.527 32.98H126.513ZM126.433 41.8489H122.779L124.61 36.4178L126.44 41.8489H126.433Z" fill="#2D252E"></path><path d="M142.561 35.5872C144.001 35.5872 145.275 36.23 145.969 37.3133C146.071 37.4722 146.288 37.5228 146.461 37.4289L148.357 36.3311C148.444 36.2806 148.509 36.1939 148.531 36.0928C148.552 35.9917 148.531 35.8978 148.48 35.8111C147.199 33.8756 144.985 32.7272 142.554 32.7272C138.365 32.7272 135.21 35.8761 135.21 40.0578C135.21 44.2395 138.365 47.3883 142.554 47.3883C145.007 47.3883 147.221 46.2328 148.48 44.2972C148.531 44.2178 148.552 44.1167 148.531 44.0156C148.509 43.9145 148.444 43.835 148.357 43.7772L146.454 42.6795C146.28 42.5783 146.071 42.6289 145.962 42.795C145.275 43.8639 144.001 44.4995 142.554 44.4995C139.913 44.4995 138.14 42.7156 138.14 40.0506C138.14 37.3856 139.913 35.58 142.554 35.58L142.561 35.5872Z" fill="#2D252E"></path><path d="M162.481 44.3622H156.801V41.3505H161.866C162.076 41.3505 162.242 41.1772 162.242 40.975V38.8589C162.242 38.6494 162.069 38.4833 161.866 38.4833H156.801V35.6378H162.38C162.59 35.6378 162.756 35.4644 162.756 35.2622V33.11C162.756 32.9005 162.582 32.7344 162.38 32.7344H154.146C153.936 32.7344 153.769 32.9078 153.769 33.11V46.9044C153.769 47.1139 153.943 47.28 154.146 47.28H162.488C162.698 47.28 162.864 47.1067 162.864 46.9044V44.7522C162.864 44.5428 162.691 44.3767 162.488 44.3767L162.481 44.3622Z" fill="#2D252E"></path></g><defs><clipPath id="clip0_473_419"><rect width="144.857" height="26" fill="white" transform="translate(18 27)"></rect></clipPath></defs></svg>