<svg xmlns="http://www.w3.org/2000/svg" width="180" height="80" viewBox="0 0 180 80" fill="none"><path d="M67.9065 60H46.8657L45.5369 55.2511H69.4794L67.9065 60ZM48.1283 58.3336H66.7052L67.1712 56.9195H47.7315L48.1283 58.3336Z" fill="#14142B"></path><path d="M54.5343 47.1363C53.0467 47.8083 51.292 47.1494 50.621 45.6618L41.2567 24.9958C40.5838 23.5072 41.2437 21.7545 42.7332 21.0785C44.2188 20.4056 45.9745 21.0645 46.6465 22.551L56.0108 43.2201C56.6838 44.7067 56.0238 46.4614 54.5343 47.1363Z" fill="#24ACDA"></path><path d="M53.3189 48.2311C51.8303 48.2311 50.4733 47.3592 49.8626 46.0052L40.4974 25.3391C39.6356 23.4337 40.4843 21.1838 42.3877 20.321C44.2519 19.4753 46.5721 20.3682 47.4048 22.2083L56.768 42.8744C57.6289 44.7788 56.7821 47.0318 54.8778 47.8956C54.3836 48.1195 53.8583 48.2311 53.3189 48.2311ZM43.9496 21.6478C43.6483 21.6478 43.353 21.7121 43.0757 21.8377C42.01 22.3198 41.5319 23.5834 42.0161 24.6511L51.3793 45.3182C51.8463 46.3508 53.1461 46.8489 54.1917 46.3769C55.2564 45.8957 55.7335 44.6332 55.2504 43.5625L45.8871 22.8963C45.5446 22.138 44.7843 21.6478 43.9496 21.6478Z" fill="#14142B"></path><path d="M46.4037 29.1265C46.1175 29.254 45.7539 29.0642 45.5922 28.6946L44.3899 26.1394C44.2251 25.7727 44.3256 25.373 44.6118 25.2454C44.8981 25.1148 45.2587 25.3077 45.4224 25.6783L46.6247 28.2335C46.7854 28.6002 46.689 28.999 46.4037 29.1265Z" fill="#14142B"></path><path d="M49.0414 35.0282C48.7542 35.1567 48.3896 34.9659 48.2279 34.5953L47.0266 32.042C46.8629 31.6744 46.9633 31.2736 47.2496 31.1451C47.5358 31.0145 47.8955 31.2084 48.0611 31.578L49.2625 34.1343C49.4222 34.5019 49.3278 34.8997 49.0414 35.0282Z" fill="#14142B"></path><path d="M57.4524 56.0871C57.4524 56.0871 63.7995 56.0871 65.8324 56.0871C67.8623 56.0871 68.8858 54.8356 68.8858 54.8356C75.0651 48.588 75.0651 39.2157 75.0651 39.2157C74.8571 37.3847 73.3616 37.4108 73.3616 37.4108H57.4524H41.5393C41.5393 37.4108 40.0417 37.3857 39.8337 39.2157C39.8337 39.2157 39.8337 48.589 46.013 54.8356C46.013 54.8356 47.0365 56.0871 49.0664 56.0871C51.1033 56.0871 57.4524 56.0871 57.4524 56.0871Z" fill="#FCFCFC"></path><path d="M65.8313 56.9201H49.0674C46.6698 56.9201 45.4213 55.4285 45.3681 55.3672C39.0733 49.0052 39 39.6138 39 39.216C39.234 37.1088 40.7598 36.5785 41.5342 36.5785H73.3595C74.1349 36.5785 75.6627 37.1088 75.8916 39.1217C75.8977 39.6128 75.8224 49.0042 69.4764 55.4215C69.4773 55.4275 68.2278 56.9201 65.8313 56.9201ZM40.6623 39.3095C40.6663 39.3095 40.7517 48.3302 46.6055 54.2503C46.6849 54.3427 47.4864 55.2528 49.0674 55.2528H65.8313C67.4102 55.2528 68.2138 54.3427 68.2459 54.3025C74.164 48.3182 74.2303 39.3045 74.2303 39.216C74.1279 38.3643 73.5834 38.2508 73.3545 38.2448H41.5392C41.3152 38.2508 40.7688 38.3643 40.6623 39.3095Z" fill="#14142B"></path><path d="M46.6341 45.6851C46.6341 46.1019 46.2394 46.4394 45.7492 46.4334L41.7526 46.4414C41.2635 46.4394 40.8717 46.1019 40.8758 45.6851C40.8758 45.2632 41.2725 44.9278 41.7617 44.9358L45.7583 44.9278C46.2444 44.9278 46.6382 45.2682 46.6341 45.6851Z" fill="#14142B"></path><path d="M50.8563 49.4326C50.8563 49.8495 50.4595 50.189 49.9694 50.1829L43.07 50.192C42.5798 50.189 42.1891 49.8495 42.1941 49.4326C42.1941 49.0118 42.5889 48.6773 43.079 48.6844L49.9775 48.6773C50.4706 48.6783 50.8603 49.0178 50.8563 49.4326Z" fill="#14142B"></path><path d="M60.524 42.0239C60.524 42.0239 59.4743 32.742 68.7593 31.8752C68.7593 31.8752 69.371 31.6703 69.4463 32.6717C69.4463 32.6717 70.9078 42.3393 60.988 42.9641C60.988 42.962 60.5793 42.9671 60.524 42.0239Z" fill="#7EC249"></path><path d="M60.9901 43.7979C60.8545 43.7979 59.7918 43.7427 59.6924 42.0733C59.6743 41.9347 59.2193 37.6016 61.855 34.3583C63.4179 32.4348 65.715 31.3199 68.68 31.0427C69.4655 31.0356 70.1877 31.4354 70.274 32.6076C70.2951 32.7331 70.934 37.1958 68.2763 40.4913C66.6712 42.4811 64.2354 43.593 61.0383 43.7969L60.9901 43.7979ZM68.6147 32.7181C66.1981 33.0023 64.3741 33.9053 63.1496 35.4119C60.951 38.1169 61.3497 41.8945 61.3537 41.9316C61.3567 41.9969 61.3628 42.0512 61.3688 42.0974C63.8598 41.8634 65.7431 40.9734 66.9755 39.4528C69.1732 36.7368 68.6288 32.8326 68.6227 32.7934C68.6188 32.7643 68.6168 32.7412 68.6147 32.7181Z" fill="#14142B"></path><path d="M88.8795 53.7322C88.5249 53.47 88.1311 53.248 87.6963 53.0692C87.2603 52.8874 86.8234 52.7327 86.3874 52.5982C86.0409 52.4907 85.7065 52.3832 85.3831 52.2707C85.0606 52.1572 84.7764 52.0387 84.5262 51.9091C84.2781 51.7846 84.0813 51.641 83.9297 51.4823C83.782 51.3276 83.7026 51.1418 83.7026 50.9318V50.8856C83.7026 50.5421 83.8483 50.2578 84.1425 50.0278C84.4359 49.8078 84.8426 49.6923 85.372 49.6923C85.8662 49.6923 86.4085 49.7968 86.9941 49.9997C87.5807 50.2026 88.1592 50.4748 88.7328 50.8203L89.8146 48.8738C89.1828 48.4509 88.4807 48.1144 87.7163 47.8724C86.9489 47.6282 86.1885 47.5077 85.4373 47.5077C84.8517 47.5077 84.2983 47.5911 83.78 47.7558C83.2617 47.9205 82.8097 48.1586 82.429 48.475C82.0433 48.7904 81.741 49.1721 81.526 49.6241C81.3071 50.072 81.1996 50.5742 81.1996 51.1317V51.1779C81.1996 51.7474 81.3111 52.2265 81.5381 52.6163C81.7621 53.011 82.0513 53.3355 82.4059 53.5986C82.7605 53.8597 83.1582 54.0737 83.6002 54.2384C84.0422 54.4031 84.4841 54.5448 84.92 54.6643C85.2635 54.7707 85.599 54.8742 85.9244 54.9817C86.2468 55.0862 86.5311 55.1976 86.7812 55.3192C87.0273 55.4387 87.2232 55.5793 87.3678 55.746C87.5114 55.9107 87.5807 56.1057 87.5807 56.3307V56.3758C87.5807 56.7655 87.419 57.0769 87.0966 57.3099C86.7732 57.5419 86.3202 57.6605 85.7315 57.6605C85.1148 57.6605 84.474 57.538 83.8061 57.2878C83.1361 57.0397 82.4782 56.6782 81.8324 56.193L80.615 58.0462C81.3663 58.6388 82.1809 59.0887 83.0608 59.3931C83.9407 59.6974 84.8085 59.8501 85.6673 59.8501C86.281 59.8501 86.8616 59.7688 87.403 59.6121C87.9453 59.4584 88.4134 59.2204 88.8131 58.916C89.2109 58.6087 89.5223 58.223 89.7483 57.7609C89.9753 57.2919 90.0857 56.7455 90.0857 56.1137V56.0715C90.0857 55.5321 89.9753 55.0751 89.7483 54.6974C89.5212 54.3137 89.233 53.9943 88.8795 53.7322Z" fill="#24ACDA"></path><path d="M95.2722 44.4396H92.5222V47.709H91.0105V50.0553H92.5222V56.324C92.5222 56.9849 92.6045 57.5374 92.7722 57.9772C92.94 58.4212 93.179 58.7808 93.4894 59.049C93.7998 59.3212 94.1684 59.5161 94.5932 59.6346C95.0171 59.7561 95.4761 59.8184 95.9744 59.8184C96.4836 59.8184 96.9336 59.7621 97.3263 59.6607C97.72 59.5553 98.0856 59.4046 98.4342 59.2097V56.9788C97.8908 57.2491 97.3263 57.3827 96.7397 57.3827C96.2736 57.3827 95.9141 57.2641 95.6589 57.0311C95.4018 56.7991 95.2743 56.4215 95.2743 55.8921V50.0553H98.4784V47.709H95.2743L95.2722 44.4396Z" fill="#24ACDA"></path><path d="M104.657 48.229C103.964 48.7693 103.428 49.4915 103.053 50.3915V47.7077H100.302V59.6141H103.053V55.0802C103.053 54.3007 103.153 53.6148 103.346 53.0181C103.541 52.4245 103.819 51.9313 104.183 51.5396C104.542 51.1478 104.97 50.8535 105.465 50.6597C105.962 50.4679 106.512 50.3684 107.111 50.3684H107.272V47.4797C106.218 47.4375 105.347 47.6876 104.657 48.229Z" fill="#24ACDA"></path><path d="M118.148 49.3773C117.673 48.7897 117.081 48.3246 116.369 47.9791C115.652 47.6316 114.825 47.4588 113.877 47.4588C113.019 47.4588 112.239 47.6195 111.534 47.9409C110.823 48.2653 110.214 48.7123 109.694 49.2759C109.175 49.8363 108.775 50.4952 108.49 51.2485C108.201 51.9988 108.057 52.8014 108.057 53.6581V53.7043C108.057 54.6213 108.216 55.458 108.532 56.2184C108.846 56.9787 109.28 57.6266 109.829 58.169C110.378 58.7094 111.024 59.1302 111.769 59.4326C112.514 59.7329 113.315 59.8856 114.172 59.8856C115.271 59.8856 116.211 59.6786 117.002 59.2739C117.789 58.8681 118.471 58.3277 119.042 57.6517L117.438 56.2325C116.957 56.6965 116.467 57.0511 115.973 57.2931C115.476 57.5332 114.889 57.6537 114.212 57.6537C113.326 57.6537 112.57 57.3906 111.945 56.8764C111.324 56.357 110.934 55.6108 110.785 54.6344H119.536C119.552 54.4988 119.563 54.3652 119.567 54.2367C119.576 54.1101 119.581 53.9866 119.581 53.8681C119.581 53.0112 119.46 52.1937 119.221 51.4203C118.979 50.6449 118.623 49.9659 118.148 49.3773ZM110.765 52.8295C110.884 51.8953 111.215 51.14 111.767 50.5605C112.316 49.9809 113.011 49.6926 113.853 49.6926C114.305 49.6926 114.708 49.776 115.062 49.9407C115.413 50.1035 115.718 50.3294 115.973 50.6066C116.226 50.8839 116.432 51.2133 116.58 51.5991C116.731 51.9828 116.827 52.3915 116.871 52.8295H110.765Z" fill="#24ACDA"></path><path d="M130.869 49.3773C130.392 48.7897 129.803 48.3246 129.088 47.9791C128.371 47.6316 127.543 47.4588 126.597 47.4588C125.739 47.4588 124.957 47.6195 124.25 47.9409C123.543 48.2653 122.932 48.7123 122.413 49.2759C121.893 49.8363 121.495 50.4952 121.206 51.2485C120.922 51.9988 120.778 52.8014 120.778 53.6581V53.7043C120.778 54.6213 120.934 55.458 121.253 56.2184C121.567 56.9787 122 57.6266 122.548 58.169C123.098 58.7094 123.743 59.1302 124.489 59.4326C125.232 59.7329 126.033 59.8856 126.891 59.8856C127.989 59.8856 128.931 59.6786 129.721 59.2739C130.508 58.8681 131.191 58.3277 131.761 57.6517L130.158 56.2325C129.676 56.6965 129.186 57.0511 128.693 57.2931C128.196 57.5332 127.612 57.6537 126.933 57.6537C126.045 57.6537 125.288 57.3906 124.667 56.8764C124.044 56.357 123.652 55.6108 123.506 54.6344H132.256C132.268 54.4988 132.278 54.3652 132.289 54.2367C132.299 54.1101 132.302 53.9866 132.302 53.8681C132.302 53.0112 132.179 52.1937 131.939 51.4203C131.697 50.6449 131.343 49.9659 130.869 49.3773ZM123.483 52.8295C123.603 51.8953 123.937 51.14 124.486 50.5605C125.034 49.9809 125.731 49.6926 126.573 49.6926C127.025 49.6926 127.425 49.776 127.779 49.9407C128.13 50.1035 128.434 50.3294 128.693 50.6066C128.947 50.8839 129.15 51.2133 129.299 51.5991C129.446 51.9828 129.546 52.3915 129.592 52.8295H123.483Z" fill="#24ACDA"></path><path d="M140.666 50.0553V47.709H137.464V44.4396H137.325C136.931 45.1487 136.17 46.0226 134.712 46.5911V47.709H133.199V50.0553H134.713V56.324C134.713 56.9849 134.792 57.5374 134.96 57.9772C135.127 58.4212 135.365 58.7808 135.676 59.049C135.989 59.3212 136.357 59.5161 136.781 59.6346C137.205 59.7561 137.667 59.8184 138.162 59.8184C138.673 59.8184 139.124 59.7621 139.517 59.6607C139.908 59.5553 140.273 59.4046 140.62 59.2097V56.9788C140.081 57.2491 139.517 57.3827 138.928 57.3827C138.464 57.3827 138.105 57.2641 137.845 57.0311C137.592 56.7991 137.465 56.4215 137.465 55.8921V50.0553H140.666Z" fill="#24ACDA"></path><path d="M83.6422 35.2417C83.6422 34.2333 83.9104 33.4488 84.4438 32.8893C84.9771 32.3279 85.6712 32.0476 86.5279 32.0476C87.3998 32.0476 88.0738 32.3188 88.5539 32.8632C89.028 33.4066 89.267 34.1841 89.267 35.1925V42.5057H92.2472V34.2955C92.2472 32.7788 91.8494 31.5735 91.0539 30.6775C90.2574 29.7806 89.1274 29.3346 87.6669 29.3346C87.1627 29.3346 86.7138 29.3969 86.313 29.5174C85.9162 29.642 85.5496 29.8108 85.2182 30.0227C84.8837 30.2397 84.5914 30.4787 84.3393 30.7499C84.0872 31.022 83.8582 31.3144 83.6433 31.6267V29.6018H80.6641V42.5047H83.6433V35.2417H83.6422Z" fill="#7EC249"></path><path d="M96.4874 30.6512C95.9068 30.6512 95.3825 30.4102 95.0059 30.0215V42.5065H97.99V29.9963C97.6144 30.3991 97.08 30.6512 96.4874 30.6512Z" fill="#7EC249"></path><path d="M103.831 37.5957C103.831 36.7479 103.935 36.0027 104.148 35.3578C104.357 34.716 104.659 34.1836 105.05 33.7568C105.442 33.3339 105.908 33.0175 106.444 32.8036C106.981 32.5946 107.576 32.4862 108.228 32.4862H108.401V29.3593C107.259 29.3092 106.314 29.5804 105.564 30.1669C104.819 30.7515 104.238 31.533 103.829 32.5112V29.6024H100.848V42.5054H103.829L103.831 37.5957Z" fill="#7EC249"></path><path d="M111.199 40.8452C111.806 41.4469 112.536 41.923 113.372 42.2755C114.212 42.624 115.121 42.7988 116.099 42.7988C117.088 42.7988 118.015 42.619 118.86 42.2634C119.709 41.9019 120.436 41.4187 121.048 40.807C121.659 40.1983 122.14 39.4862 122.49 38.6717C122.842 37.855 123.016 36.9922 123.016 36.0822V36.03C123.016 35.1019 122.845 34.2331 122.499 33.4275C122.16 32.6219 121.683 31.9138 121.072 31.3011C120.463 30.6904 119.738 30.2084 118.897 29.8587C118.057 29.5062 117.142 29.3355 116.148 29.3355C115.154 29.3355 114.237 29.5123 113.401 29.8728C112.559 30.2294 111.835 30.7146 111.223 31.3272C110.615 31.9349 110.135 32.6491 109.783 33.4637C109.431 34.2793 109.255 35.1511 109.255 36.0812V36.1264C109.255 37.0394 109.426 37.9053 109.772 38.7168C110.113 39.5344 110.587 40.2416 111.199 40.8452ZM112.238 36.03C112.238 35.4755 112.327 34.9482 112.505 34.442C112.685 33.9367 112.943 33.5008 113.28 33.1342C113.619 32.7666 114.03 32.4753 114.508 32.2553C114.985 32.0354 115.517 31.9259 116.101 31.9259C116.682 31.9259 117.21 32.0354 117.692 32.2553C118.169 32.4753 118.581 32.7726 118.927 33.1473C119.276 33.5239 119.545 33.9629 119.742 34.4681C119.933 34.9723 120.033 35.5107 120.033 36.0822V36.1274C120.033 36.6819 119.943 37.2081 119.764 37.7064C119.585 38.2015 119.324 38.6375 118.987 39.0101C118.648 39.3868 118.238 39.6841 117.761 39.9041C117.281 40.126 116.743 40.2325 116.146 40.2325C115.58 40.2325 115.057 40.126 114.58 39.9041C114.1 39.6841 113.687 39.3827 113.34 39.0011C112.991 38.6174 112.72 38.1795 112.527 37.6803C112.332 37.1841 112.236 36.6527 112.236 36.0832L112.238 36.03Z" fill="#7EC249"></path><path d="M126.18 39.881C126.725 40.3932 127.35 40.788 128.049 41.0652C128.748 41.3414 129.483 41.481 130.247 41.481C131.304 41.481 132.194 41.2611 132.912 40.8211C133.627 40.3811 134.257 39.8107 134.791 39.1096V40.116C134.791 41.4267 134.44 42.4201 133.742 43.0911C133.04 43.7621 132.033 44.0955 130.711 44.0955C129.831 44.0955 129.016 43.976 128.267 43.7299C127.515 43.4879 126.8 43.1534 126.116 42.7275L125.014 44.9413C126.709 45.9608 128.632 46.469 130.782 46.469C131.853 46.469 132.806 46.3484 133.641 46.1104C133.717 46.0893 133.797 46.0672 133.873 46.0431C134.17 45.9456 134.445 45.8332 134.708 45.7056C135.232 45.4455 135.692 45.1261 136.082 44.7324C136.285 44.5315 136.471 44.3085 136.634 44.0684C136.877 43.7188 137.077 43.3301 137.24 42.9023C137.559 42.0455 137.721 41.0371 137.721 39.8709V29.6037H134.765V31.5341C134.26 30.9315 133.655 30.4142 132.945 29.9813C132.235 29.5494 131.333 29.3355 130.244 29.3355C129.497 29.3355 128.766 29.4731 128.056 29.7493C127.35 30.0265 126.72 30.4212 126.176 30.9335C125.629 31.4488 125.193 32.0846 124.865 32.8409C124.541 33.5973 124.378 34.451 124.378 35.3942V35.4454C124.378 36.3886 124.541 37.2373 124.865 37.9866C125.197 38.7349 125.633 39.3687 126.18 39.881ZM127.365 35.371C127.365 34.8327 127.459 34.3486 127.645 33.9176C127.832 33.4848 128.091 33.1151 128.426 32.8047C128.76 32.4974 129.146 32.2553 129.587 32.0856C130.027 31.9149 130.506 31.8285 131.03 31.8285C131.534 31.8285 132.018 31.9138 132.483 32.0856C132.948 32.2553 133.35 32.4994 133.692 32.8178C134.036 33.1342 134.306 33.5089 134.509 33.9408C134.715 34.3726 134.817 34.8568 134.817 35.3942V35.4454C134.817 35.9647 134.715 36.4428 134.509 36.8747C134.306 37.3066 134.033 37.6803 133.692 37.9997C133.35 38.317 132.948 38.5612 132.483 38.7319C132.018 38.9046 131.534 38.988 131.03 38.988C130.524 38.988 130.047 38.9046 129.599 38.7319C129.152 38.5601 128.764 38.317 128.44 37.9997C128.112 37.6803 127.852 37.3086 127.656 36.8747C127.464 36.4428 127.365 35.9566 127.365 35.4193V35.371Z" fill="#7EC249"></path><path d="M96.4872 26.8525C95.6194 26.8525 94.9153 27.5565 94.9153 28.4244C94.9153 28.8091 95.0549 29.1607 95.2839 29.4349C95.5722 29.7783 96.0051 29.9963 96.4872 29.9963C96.9693 29.9963 97.4012 29.7783 97.6895 29.4349C97.9195 29.1616 98.0591 28.8091 98.0591 28.4244C98.0591 27.5545 97.3571 26.8525 96.4872 26.8525Z" fill="#7EC249"></path></svg>