<svg xmlns="http://www.w3.org/2000/svg" width="150" height="150" viewBox="0 0 150 150" fill="none"><path d="M0 75C0 33.5786 33.5786 0 75 0V0C116.421 0 150 33.5786 150 75V75C150 116.421 116.421 150 75 150V150C33.5786 150 0 116.421 0 75V75Z" fill="white"></path><path fill-rule="evenodd" clip-rule="evenodd" d="M75.6959 2.01409C78.0121 2.06922 81.0452 2.21625 82.4055 2.38166C83.7658 2.54707 85.8431 2.84113 87.0012 3.0433C88.1593 3.24547 90.2733 3.68656 91.6887 4.03576C93.1042 4.38496 95.3469 5.00984 96.652 5.43255C97.9572 5.85527 100.071 6.6088 101.34 7.10503C102.608 7.60126 104.63 8.48345 105.843 9.07157C107.057 9.65969 109.042 10.6889 110.255 11.3873C111.468 12.0673 113.656 13.4457 115.127 14.4382C116.597 15.4307 118.582 16.8642 119.538 17.6361C120.494 18.408 122.259 19.9151 123.472 20.9995C124.667 22.0838 126.413 23.793 127.351 24.8039C128.27 25.8147 129.741 27.4688 130.586 28.498C131.432 29.5089 132.792 31.2916 133.619 32.4495C134.428 33.6073 135.642 35.4085 136.303 36.4745C136.965 37.5404 138.086 39.5253 138.803 40.8854C139.52 42.2454 140.55 44.3957 141.101 45.6639C141.653 46.932 142.553 49.2845 143.123 50.9019C143.675 52.5192 144.428 55.0003 144.778 56.4155C145.145 57.8307 145.642 60.1097 145.899 61.4697C146.156 62.8297 146.506 65.1455 146.689 66.6158C146.928 68.6191 147.002 70.5856 147.002 74.6106C147.002 78.4518 146.91 80.6389 146.689 82.4216C146.524 83.7816 146.175 86.0606 145.917 87.4758C145.66 88.891 145.182 91.0781 144.851 92.3462C144.52 93.6143 144.171 94.6252 144.079 94.6252C143.969 94.6068 140.09 93.4673 135.439 92.0705C130.789 90.6921 126.965 89.5342 126.947 89.5159C126.928 89.5159 127.038 89.0931 127.186 88.5785C127.333 88.0823 127.645 86.7039 127.902 85.546C128.141 84.3881 128.491 82.4032 128.656 81.1351C128.895 79.4626 128.987 77.5696 128.987 74.243C128.987 71.5781 128.895 68.8764 128.766 67.8104C128.638 66.7996 128.288 64.7779 127.994 63.3076C127.7 61.8373 127.167 59.6502 126.8 58.4372C126.432 57.2242 125.752 55.276 125.292 54.1182C124.833 52.9603 123.822 50.7548 123.049 49.2478C122.277 47.7407 120.935 45.425 120.071 44.1017C119.189 42.7784 117.737 40.8119 116.836 39.6908C115.954 38.588 114.263 36.7134 113.104 35.5555C111.946 34.3976 110.071 32.7068 108.968 31.8246C107.847 30.924 105.862 29.4721 104.557 28.5899C103.251 27.7261 100.935 26.3845 99.4094 25.6125C97.9021 24.8406 95.6961 23.8298 94.538 23.3703C93.3799 22.9109 91.4681 22.2492 90.31 21.9C89.1519 21.5324 87.2034 21.0362 85.9901 20.7973C84.7769 20.54 82.7548 20.1724 81.4864 20.007C79.7952 19.7681 77.9569 19.6762 74.501 19.6762C71.0451 19.6762 69.2068 19.7681 67.5156 20.007C66.2472 20.1724 64.2251 20.54 63.0119 20.7973C61.7986 21.0362 59.8501 21.5324 58.692 21.9C57.5338 22.2492 55.6221 22.9109 54.464 23.3703C53.3058 23.8298 51.2286 24.7671 49.8683 25.4655C48.508 26.1455 46.4308 27.3218 45.2726 28.0569C44.1145 28.7921 42.3314 30.0419 41.3204 30.8138C40.3093 31.6041 38.6733 32.9641 37.699 33.8463C36.7064 34.7285 35.1438 36.2907 34.2431 37.3015C33.324 38.3123 31.8717 40.04 31.0261 41.1611C30.1805 42.2822 28.9489 44.0465 28.2687 45.1125C27.607 46.1785 26.504 48.1634 25.8055 49.5234C25.1069 50.8835 24.1694 52.9603 23.7099 54.1182C23.2503 55.276 22.5701 57.2609 22.2025 58.5291C21.8164 59.7972 21.3201 61.7821 21.0811 62.94C20.8422 64.0979 20.5297 66.0093 20.3826 67.1672C20.2355 68.325 20.0517 70.604 19.9782 72.2213C19.9047 73.9306 19.9414 76.3198 20.0701 77.9188C20.1804 79.4442 20.4378 81.7048 20.64 82.973C20.8606 84.2411 21.2282 86.1341 21.4856 87.2001C21.7429 88.2661 21.89 89.1667 21.8164 89.2218C21.7613 89.2769 17.8826 90.4164 13.2134 91.7397C6.87139 93.5776 4.70224 94.1289 4.61033 93.9452C4.5368 93.8349 4.2243 92.6954 3.93017 91.4273C3.61767 90.1591 3.21325 88.1742 3.01104 87.0163C2.80883 85.8585 2.49633 83.7081 2.3125 82.2378C2.09191 80.3264 2 78.1577 2 74.5187C2 70.8245 2.09191 68.7477 2.33089 66.7996C2.49633 65.3293 2.80883 63.1789 3.01104 62.0211C3.21325 60.8632 3.65443 58.7129 4.02209 57.2426C4.37136 55.7723 5.10666 53.2544 5.65814 51.637C6.19123 50.0197 7.14713 47.5018 7.77214 46.0315C8.39715 44.5612 9.42657 42.3741 10.0516 41.1611C10.695 39.9481 11.6876 38.1653 12.2759 37.2096C12.8641 36.2539 13.9303 34.5998 14.6472 33.5338C15.3642 32.4679 16.7428 30.6116 17.7171 29.3986C18.673 28.1856 20.3458 26.2374 21.412 25.0796C22.4782 23.9217 24.3349 22.0838 25.5297 20.9995C26.743 19.9151 28.5812 18.3529 29.6474 17.5075C30.7136 16.662 32.4416 15.3939 33.5078 14.6771C34.574 13.9603 36.2284 12.8944 37.1843 12.3062C38.1402 11.7181 39.8314 10.7624 40.9527 10.1743C42.0741 9.58618 44.0042 8.66723 45.2726 8.11587C46.541 7.5645 48.508 6.77421 49.6477 6.3515C50.7691 5.94716 52.8095 5.28552 54.1331 4.88119C55.475 4.49523 57.7361 3.90711 59.1515 3.61305C60.567 3.30061 62.9751 2.87789 64.4825 2.65735C65.9898 2.45518 68.1958 2.19787 69.3539 2.10598C70.512 2.01409 73.3797 1.97733 75.6959 2.01409V2.01409ZM47.1661 45.9396L51.633 54.9452C54.0963 59.9075 56.1 64.006 56.1 64.0979C56.1184 64.1714 55.5485 64.2265 53.5448 64.2265L50.7874 58.7129H43.4344L40.677 64.2265H39.3902C38.6733 64.2265 38.1034 64.1898 38.1034 64.1346C38.1034 64.0795 40.1439 59.9626 42.6439 54.982L47.1661 45.9396ZM101.909 46.1969C101.983 46.252 104.023 50.3505 110.88 64.2265L108.215 64.2449L105.457 58.7129H98.1043L95.3469 64.2449H94.0233C93.288 64.2265 92.6814 64.1714 92.6998 64.0979C92.6998 64.0244 94.7402 59.9259 97.2403 55.0187C99.7403 50.0932 101.836 46.1234 101.909 46.1969V46.1969ZM73.2877 46.5461C74.0047 46.6012 75.0157 46.7482 75.5488 46.8953C76.0819 47.0239 76.9459 47.3547 77.479 47.6304C78.0121 47.9061 78.9128 48.5861 79.5011 49.1375C80.0893 49.7072 80.5673 50.2402 80.5673 50.3137C80.5489 50.3873 80.1628 50.7365 78.8025 51.7105L77.7915 50.7548C77.1665 50.1667 76.3576 49.6153 75.6775 49.3397C74.74 48.9721 74.2804 48.8986 72.5524 48.8986C70.659 48.8802 70.4568 48.9169 69.3355 49.4683C68.6737 49.7808 67.7362 50.4424 67.2582 50.9386C66.7619 51.4348 66.1553 52.2803 65.8796 52.8316C65.4751 53.7138 65.4016 54.0998 65.4016 55.5885C65.3832 57.1139 65.4568 57.4815 65.8796 58.3453C66.1369 58.915 66.7619 59.7605 67.2582 60.2567C67.7362 60.7529 68.6737 61.4146 69.3355 61.727C70.4568 62.2784 70.6406 62.2968 72.6443 62.2968C74.5378 62.2968 74.8686 62.26 75.7694 61.8373C76.3393 61.5616 77.2584 60.9735 78.8944 59.6318L79.7216 60.2383C80.1628 60.5691 80.5489 60.9 80.5489 60.9735C80.5489 61.047 80.1628 61.4881 79.6849 61.9476C79.2069 62.4254 78.3981 63.0319 77.8834 63.326C77.3871 63.62 76.3025 64.0244 75.4937 64.2265C74.5929 64.4655 73.4532 64.6125 72.5524 64.5941C71.7436 64.5941 70.5487 64.4655 69.887 64.3184C69.2436 64.153 68.2509 63.8038 67.681 63.5465C67.1296 63.2708 66.2288 62.6276 65.659 62.113C65.1075 61.58 64.3906 60.6794 64.0781 60.0729C63.7472 59.4848 63.3611 58.5475 63.1957 57.9777C63.0302 57.4264 62.9016 56.3052 62.9016 55.4966C62.9016 54.6879 63.0302 53.5852 63.1957 53.0154C63.3611 52.4641 63.6369 51.7289 63.8207 51.3613C64.0045 51.0121 64.556 50.277 65.0523 49.7256C65.5303 49.1742 66.431 48.4207 67.0377 48.0164C67.6443 47.6304 68.5266 47.1893 68.9678 47.0423C69.4274 46.8953 70.2914 46.6931 70.898 46.6012C71.5046 46.5093 72.5892 46.4909 73.2877 46.5461V46.5461ZM57.5706 46.7666H59.9603V64.2265H57.5706V46.7666ZM83.7291 46.7299L87.6078 46.8218C90.9534 46.8953 91.6336 46.9688 92.4976 47.2996C93.141 47.5385 93.7843 47.9612 94.2623 48.4575C94.6667 48.8986 95.1263 49.5786 95.2549 49.9829C95.402 50.3873 95.5123 51.1408 95.5123 51.637C95.5123 52.1516 95.402 52.8868 95.2549 53.2911C95.1263 53.6954 94.7402 54.3203 94.4277 54.6695C94.1152 55.0371 93.3983 55.515 92.8468 55.7539C92.2586 56.0112 91.2108 56.2501 90.2916 56.342C89.446 56.4339 88.1409 56.5074 86.0636 56.5074V64.2265H83.6739L83.7291 46.7299Z" fill="#0077C0"></path><path d="M103.288 81.4625C103.895 81.1868 104.832 80.8376 105.384 80.6905C105.935 80.5435 107.057 80.4149 107.866 80.3965C108.858 80.3965 109.741 80.5068 110.586 80.7641C111.524 81.0397 112.038 81.3338 112.792 82.0138C113.38 82.5836 113.913 83.282 114.189 83.9068C114.446 84.4766 114.667 85.4139 114.722 86.0939C114.777 86.7556 114.704 87.7297 114.575 88.2994C114.446 88.8508 114.116 89.7697 113.84 90.3211C113.564 90.8724 112.829 91.9568 112.222 92.7103C111.616 93.4639 110.549 94.6217 109.869 95.3017C109.171 95.9634 108.215 96.8456 106.854 98.0402L115.219 98.1321L115.31 101.348H101.156L101.137 99.051L103.674 96.6985C105.071 95.412 106.946 93.5558 107.829 92.5633C108.858 91.4422 109.685 90.3027 110.09 89.494C110.605 88.4648 110.733 87.987 110.752 87.1048C110.752 86.3512 110.641 85.7631 110.384 85.2669C110.145 84.789 109.741 84.3847 109.226 84.0906C108.601 83.7598 108.16 83.6495 107.222 83.6679C106.56 83.6679 105.66 83.815 105.2 83.9804C104.74 84.1458 104.06 84.4766 103.693 84.7155C103.307 84.9728 102.902 85.175 102.81 85.175C102.718 85.175 102.406 84.6052 102.13 83.8885C101.652 82.6938 101.634 82.5836 101.91 82.2895C102.075 82.1057 102.7 81.7381 103.288 81.4625Z" fill="black"></path><path d="M37.6624 81.6462C38.1587 81.3706 39.0227 81.0214 39.5742 80.8743C40.1256 80.7273 41.2102 80.5987 41.9639 80.5987C42.7176 80.5803 43.8389 80.7089 44.4455 80.8743C45.0522 81.0214 45.9529 81.3706 46.4492 81.6462C46.9272 81.9219 47.4051 82.2528 47.497 82.363C47.6073 82.5284 47.2765 83.0247 45.1808 85.3772L44.7213 84.9177C44.4639 84.6604 43.9492 84.3296 43.5816 84.1825C43.1955 84.0171 42.3499 83.8885 41.6881 83.8885C40.8916 83.8885 40.2666 84.0049 39.8131 84.2377C39.3719 84.4398 38.9859 84.8258 38.8021 85.2485C38.6183 85.6161 38.4712 86.0939 38.4712 86.3145C38.4712 86.5534 38.6366 87.0129 38.8388 87.3253C39.0411 87.6561 39.4822 88.0605 39.8131 88.2259C40.1256 88.3913 41.2286 88.814 42.2396 89.1632C43.2507 89.5124 44.4088 89.9719 44.8132 90.174C45.2176 90.3946 45.8059 90.7438 46.1 90.9643C46.4125 91.2033 46.8904 91.8281 47.1845 92.3795C47.5706 93.0779 47.7544 93.6844 47.8096 94.5482C47.8647 95.3569 47.7912 96.092 47.5706 96.8456C47.4051 97.4521 47.0191 98.2791 46.725 98.6835C46.4309 99.0878 45.7507 99.7127 45.2176 100.08C44.611 100.503 43.7838 100.834 42.9382 101.036C42.2029 101.201 41.0815 101.348 40.4565 101.348C39.8131 101.348 38.8205 101.22 38.2506 101.073C37.6624 100.926 36.8351 100.613 36.4123 100.411C35.9712 100.191 35.2542 99.7127 34.0226 98.6835L36.7248 96.0369L37.5153 96.7537C37.9381 97.158 38.5815 97.6175 38.9308 97.7645C39.28 97.9115 40.0521 98.0402 40.6403 98.0402C41.3756 98.0402 41.9271 97.9115 42.497 97.6359C42.9566 97.3969 43.4896 96.9742 43.6918 96.6985C43.9492 96.3493 44.0779 95.9082 44.0595 95.412C44.0595 94.9709 43.8941 94.4012 43.6918 94.1071C43.4896 93.8131 42.8646 93.372 42.2396 93.0779C41.633 92.8022 40.4749 92.3611 39.6661 92.0854C38.8572 91.8281 37.7543 91.3503 37.2396 91.0562C36.7065 90.7438 36.0631 90.2292 35.8241 89.8984C35.5667 89.5859 35.2359 88.9427 35.0704 88.4832C34.9234 88.0237 34.7947 87.1599 34.7947 86.5534C34.7947 85.9469 34.905 85.0831 35.0704 84.6236C35.2175 84.1642 35.6587 83.429 36.0447 82.9695C36.4491 82.5101 37.166 81.9219 37.6624 81.6462Z" fill="black"></path><path d="M57.1663 81.0949C57.6994 80.9478 58.3244 80.7824 58.545 80.7273C58.784 80.6722 59.7582 80.617 60.7141 80.5987C61.7619 80.5803 62.9017 80.6905 63.5634 80.856C64.1701 81.003 65.2363 81.4257 65.9532 81.7565C66.8723 82.1976 67.5709 82.7306 68.3981 83.5944C69.0782 84.3112 69.7584 85.2669 70.0709 85.9469C70.365 86.5902 70.7327 87.748 70.8981 88.5199C71.0635 89.3102 71.1922 90.3578 71.1922 90.8724C71.1922 91.3687 71.0635 92.4346 70.8981 93.2066C70.7327 93.9968 70.365 95.1731 70.0525 95.8347C69.6665 96.6066 69.0598 97.4521 68.2694 98.2607C67.4054 99.1246 66.6701 99.6575 65.6774 100.135C64.9238 100.503 63.7289 100.926 63.012 101.073C62.295 101.22 61.1921 101.348 60.5303 101.348C59.8685 101.348 58.7656 101.22 58.0487 101.073C57.3317 100.926 56.192 100.521 55.4751 100.172C54.556 99.7311 53.839 99.1797 52.9934 98.2791C52.3317 97.5991 51.5596 96.5699 51.2839 96.0185C51.0265 95.4671 50.6772 94.5115 50.5118 93.9049C50.3464 93.2617 50.2361 92.0303 50.2361 90.9643C50.2361 89.8984 50.3647 88.667 50.5302 88.0237C50.6956 87.4172 51.0449 86.4615 51.3022 85.9101C51.5596 85.3588 52.2949 84.3663 52.9199 83.7047C53.5633 83.0247 54.5008 82.2711 55.1258 81.9403C55.7141 81.6279 56.6332 81.2419 57.1663 81.0949Z" fill="black"></path><path d="M80.1445 81.0949C80.6776 80.9478 81.3027 80.7824 81.5232 80.7273C81.7622 80.6722 82.6446 80.617 83.5086 80.5987C84.3725 80.5987 85.4939 80.6905 85.9902 80.8192C86.5049 80.9478 87.3138 81.2603 87.8285 81.5176C88.3248 81.7565 89.152 82.3446 89.6667 82.8225C90.1631 83.282 90.5491 83.7047 90.4939 83.7414C90.4388 83.7966 89.8322 84.256 87.8285 85.7264L87.1851 85.1934C86.8358 84.8993 86.1373 84.4766 85.6226 84.2377C84.8505 83.9068 84.4645 83.8517 83.1409 83.9252C81.799 83.9804 81.4129 84.0906 80.4019 84.642C79.7585 84.9728 78.9864 85.5609 78.6739 85.9101C78.3614 86.2593 77.8651 87.0864 77.571 87.748C77.1666 88.6302 77.0011 89.3102 76.9276 90.3211C76.8724 91.2584 76.946 92.0854 77.1482 92.8941C77.3136 93.5557 77.6629 94.4379 77.9019 94.8607C78.1592 95.3017 78.6739 95.945 79.06 96.3126C79.4276 96.6802 80.1997 97.1948 80.7512 97.4704C81.4313 97.7829 82.1666 97.9667 83.049 98.0034C83.913 98.0586 84.6299 97.9851 85.2549 97.7829C85.7696 97.6175 86.5968 97.1212 87.1483 96.6618C87.663 96.2023 88.141 95.8347 88.1961 95.8347C88.2513 95.8347 88.8579 96.2391 89.5748 96.7537C90.2917 97.2499 90.8616 97.7829 90.8616 97.8932C90.8616 98.0218 90.4204 98.5364 89.8873 99.0143C89.3726 99.5105 88.527 100.099 88.0123 100.338C87.516 100.595 86.5968 100.907 85.9902 101.073C85.3836 101.22 84.3174 101.348 83.6005 101.348C82.8836 101.348 81.7438 101.22 81.0269 101.073C80.31 100.926 79.207 100.54 78.5453 100.209C77.7548 99.8229 76.9092 99.1981 76.0452 98.3343C75.2548 97.544 74.5562 96.6434 74.2621 96.0185C74.0048 95.4671 73.6555 94.5115 73.5084 93.9049C73.343 93.2617 73.2143 92.0671 73.2143 91.0562C73.2143 90.1005 73.343 88.7956 73.49 88.1524C73.6371 87.5275 74.0231 86.4983 74.3356 85.855C74.6665 85.2301 75.4018 84.2193 75.9717 83.6128C76.5599 83.0063 77.5158 82.2527 78.1041 81.9403C78.7107 81.6279 79.6115 81.2419 80.1445 81.0949Z" fill="black"></path><path d="M5.21707 95.2834C5.36413 95.2466 9.18771 94.1071 13.7466 92.7838C18.2871 91.4422 22.0923 90.3762 22.1658 90.3946C22.2577 90.3946 22.6438 91.2768 23.0298 92.3427C23.4158 93.4087 24.0041 94.9342 24.3534 95.7428C24.721 96.5515 25.3276 97.8748 25.7321 98.6835C26.1365 99.4921 26.9085 100.889 27.4416 101.808C27.9747 102.727 28.9306 104.197 29.5556 105.116C30.1806 106.035 31.302 107.505 32.0373 108.424C32.7726 109.343 34.3719 111.108 35.6035 112.339C36.8168 113.589 38.7285 115.371 39.8499 116.272C40.9712 117.191 42.6257 118.459 43.5264 119.084C44.4272 119.709 46.0081 120.701 47.0191 121.308C48.0301 121.896 49.85 122.852 51.0633 123.421C52.2765 123.991 54.0413 124.763 54.9604 125.131C55.8979 125.498 57.681 126.086 58.9126 126.454C60.1627 126.821 62.1296 127.318 63.2877 127.557C64.4458 127.796 66.4311 128.126 67.6995 128.292C69.3356 128.531 71.2841 128.623 74.5011 128.623C77.7732 128.623 79.6298 128.531 81.3027 128.31C82.571 128.126 84.5564 127.796 85.7145 127.557C86.8726 127.318 88.8579 126.821 90.1263 126.436C91.3947 126.068 93.38 125.388 94.5381 124.928C95.6962 124.469 97.7735 123.532 99.1338 122.833C100.494 122.135 102.479 121.032 103.546 120.371C104.612 119.69 106.395 118.459 107.498 117.614C108.601 116.768 110.329 115.353 111.303 114.453C112.296 113.57 113.858 112.008 114.759 110.997C115.678 109.986 117.057 108.332 117.847 107.322C118.619 106.311 119.869 104.528 120.605 103.37C121.34 102.212 122.48 100.227 123.123 98.9591C123.766 97.691 124.649 95.7428 125.108 94.6401C125.55 93.519 126.064 92.1773 126.23 91.6444C126.395 91.1297 126.579 90.6886 126.653 90.6886C126.744 90.6886 130.568 91.8281 135.164 93.1882C139.759 94.5666 143.62 95.7612 143.712 95.8531C143.822 95.9634 143.583 96.9007 142.995 98.5364C142.498 99.9332 141.653 102.102 141.101 103.37C140.55 104.638 139.539 106.752 138.859 108.057C138.178 109.362 137.057 111.365 136.359 112.468C135.678 113.57 134.52 115.316 133.803 116.327C133.086 117.338 131.873 118.955 131.101 119.911C130.347 120.867 128.84 122.613 127.774 123.771C126.708 124.928 125.016 126.638 124.024 127.557C123.013 128.457 121.634 129.707 120.917 130.295C120.2 130.902 118.638 132.115 117.424 133.015C116.211 133.916 114.134 135.313 112.829 136.14C111.524 136.948 109.281 138.216 107.866 138.952C106.45 139.687 104.299 140.716 103.086 141.231C101.873 141.745 99.5933 142.609 98.0308 143.142C96.4683 143.693 94.0234 144.428 92.6079 144.778C91.1925 145.145 88.913 145.641 87.5527 145.899C86.1924 146.156 83.8762 146.505 82.4056 146.671C80.4203 146.928 78.3982 147.001 74.5011 147.001C70.604 147.001 68.5819 146.928 66.5966 146.671C65.126 146.505 62.8098 146.156 61.4494 145.899C60.0891 145.641 57.8097 145.145 56.3942 144.778C54.9788 144.428 52.4971 143.675 50.8794 143.124C49.2618 142.554 46.9088 141.653 45.6404 141.102C44.372 140.551 42.2212 139.521 40.8609 138.805C39.5006 138.088 37.5153 136.967 36.4491 136.305C35.3829 135.643 33.5814 134.43 32.4233 133.622C31.2652 132.795 29.4821 131.435 28.4711 130.589C27.4416 129.744 25.7872 128.273 24.7762 127.354C23.7651 126.417 22.0555 124.671 20.971 123.477C19.8864 122.264 18.379 120.499 17.6069 119.543C16.8349 118.588 15.2724 116.401 14.1326 114.673C12.9929 112.945 11.5591 110.685 10.9708 109.619C10.3826 108.553 9.46345 106.733 8.91197 105.576C8.36049 104.418 7.47813 102.341 6.94503 100.981C6.41194 99.6208 5.75017 97.8013 5.47443 96.9375C5.05163 95.6693 5.01486 95.3569 5.21707 95.2834Z" fill="black"></path><path d="M71.2657 7.64957C71.2106 7.48416 71.2106 7.22686 71.2657 7.09821C71.3392 6.96955 71.5782 6.87766 71.7988 6.91442C72.0929 6.95118 72.2032 7.09821 72.2032 7.42903C72.2032 7.77822 72.0929 7.90688 71.7988 7.92525C71.5231 7.96201 71.3392 7.85174 71.2657 7.64957Z" fill="white"></path><path d="M89.1152 9.35881C89.0601 9.21177 89.1152 8.95447 89.2439 8.80744C89.3542 8.64203 89.5748 8.53176 89.7402 8.56851C89.9057 8.60527 90.0527 8.8442 90.0895 9.13826C90.1263 9.56097 90.0527 9.63449 89.6667 9.63449C89.4094 9.63449 89.1704 9.50584 89.1152 9.35881Z" fill="white"></path><path d="M84.7586 10.0021C85.163 10.0021 85.2733 9.91017 85.3836 9.4507C85.4816 9.08312 85.6409 8.89933 85.8615 8.89933C86.1373 8.89933 86.1924 9.02799 86.1924 9.57935C86.174 10.2042 86.2292 10.2777 86.7255 10.3696C87.0748 10.4248 87.2954 10.5902 87.3505 10.8291C87.4057 11.1599 87.3505 11.1783 85.9902 10.921L85.7696 12.0789C85.6409 12.7038 85.5306 13.4389 85.5306 13.7146C85.5306 14.0087 85.6409 14.266 85.8064 14.3211C85.9534 14.3762 86.2476 14.413 86.4498 14.413C86.7255 14.413 86.799 14.5049 86.7255 14.7806C86.6642 15.0256 86.4804 15.1481 86.174 15.1481C85.9167 15.1481 85.4939 15.0379 85.2365 14.9092C84.9791 14.7989 84.7218 14.5233 84.685 14.3211C84.6299 14.1189 84.7034 13.2551 84.8321 12.4097C84.9792 11.5643 85.1078 10.8475 85.1262 10.8107C85.1446 10.774 84.9608 10.7372 84.7034 10.7372C84.3725 10.7372 84.2438 10.6453 84.2438 10.3696C84.2438 10.094 84.3725 10.0021 84.7586 10.0021Z" fill="white"></path><path d="M71.6334 14.0087C71.615 13.9719 71.5598 12.9059 71.5047 11.601L71.4128 9.26691H71.854C72.2768 9.26691 72.2952 9.28529 72.3319 11.5643C72.3871 13.733 72.3687 13.88 72.0194 13.9719C71.8172 14.027 71.6334 14.0454 71.6334 14.0087Z" fill="white"></path><path d="M74.6297 9.83666C74.1518 9.81828 73.9496 9.72638 73.9496 9.52422C73.9496 9.30367 74.2621 9.24853 75.6959 9.24853C77.3136 9.24853 77.4423 9.28529 77.4423 9.61611C77.4423 9.81828 76.854 10.7005 76.1555 11.5459C75.4386 12.4097 74.9239 13.1632 74.9974 13.2184C75.0709 13.2735 75.6592 13.3103 76.2842 13.3103C77.1849 13.3103 77.4423 13.3654 77.4423 13.5676C77.4423 13.8065 77.1114 13.8432 75.604 13.8432C73.8761 13.8432 73.7658 13.8249 73.7658 13.4757C73.7658 13.2919 74.3356 12.4281 76.3209 10.0756L75.8246 9.96531C75.5489 9.91017 75.0158 9.83666 74.6297 9.83666Z" fill="white"></path><path d="M66.1002 10.0388C66.137 10.2042 66.3208 10.1307 66.6701 9.85503C66.9826 9.61611 67.4605 9.43232 67.8098 9.43232C68.2326 9.43232 68.6002 9.59773 68.9495 9.94693C69.3723 10.3513 69.501 10.6821 69.6113 11.5459C69.6664 12.1524 69.7584 12.9611 69.8135 13.347C69.887 13.9719 69.8503 14.0454 69.4826 14.0454C69.0966 14.0454 69.0598 13.9168 68.8576 12.3362C68.7105 11.0497 68.5635 10.5718 68.3061 10.4064C68.1223 10.2777 67.8466 10.1675 67.6995 10.1675C67.5524 10.1675 67.1848 10.3513 66.3576 10.9945L66.4679 12.7038C66.5782 14.3211 66.5782 14.3946 66.2289 14.3946C65.9899 14.3946 65.8245 14.2476 65.7693 13.9903C65.7326 13.7697 65.6406 13.0346 65.5855 12.3729C65.512 11.7297 65.4201 10.8843 65.3465 10.4983C65.2178 9.85503 65.2546 9.7999 65.6223 9.7999C65.8612 9.7999 66.0634 9.91017 66.1002 10.0388Z" fill="white"></path><path d="M79.0416 9.98369C79.0232 9.91017 79.2254 9.78152 79.4644 9.67125C79.7217 9.56097 80.2732 9.46908 80.696 9.4507C81.1372 9.4507 81.6703 9.52422 81.8909 9.63449C82.1299 9.72638 82.424 10.0021 82.5526 10.2226C82.7549 10.5351 82.7916 11.0864 82.6997 12.52C82.5894 14.2476 82.5526 14.3946 82.2218 14.3946C82.0196 14.3946 81.8541 14.2843 81.8541 14.1189C81.8541 13.9719 81.7622 13.8432 81.6703 13.8432C81.56 13.8432 81.4497 13.9351 81.3945 14.027C81.3394 14.1373 80.8798 14.2108 80.3835 14.2108C79.6482 14.2108 79.3725 14.1189 79.0048 13.7514C78.7474 13.5124 78.5452 13.1081 78.5452 12.8875C78.5452 12.667 78.6372 12.2994 78.7658 12.0605C78.9129 11.8216 79.3173 11.5826 79.832 11.454C80.2916 11.3437 80.9717 11.2886 81.3394 11.3621C81.8909 11.4356 82.0379 11.3989 82.0379 11.1783C82.0379 11.0313 81.8725 10.7372 81.6703 10.5351C81.4497 10.3329 81.0637 10.1859 80.696 10.1859C80.3651 10.1859 79.9791 10.2594 79.832 10.3513C79.6482 10.4615 79.4644 10.4432 79.3173 10.2961C79.1886 10.1859 79.06 10.0388 79.0416 9.98369Z" fill="white"></path><path d="M59.9237 11.1599C60.034 10.9945 60.4016 10.7556 60.7509 10.6086C61.0818 10.4799 61.6149 10.3696 61.9457 10.3696C62.3685 10.3696 62.7178 10.5167 63.0671 10.8659C63.4715 11.2518 63.6553 11.6745 63.8391 12.6486C63.9678 13.3654 64.1333 14.1373 64.2252 14.3579C64.3722 14.7254 64.3355 14.7622 63.9311 14.7622C63.6737 14.7622 63.4715 14.6887 63.4715 14.5784C63.4715 14.4865 63.2141 14.6152 62.92 14.8541C62.5156 15.2033 62.1479 15.3136 61.5413 15.3136C60.8428 15.3136 60.6406 15.24 60.3281 14.8173C60.1259 14.5416 59.9604 14.1189 59.9604 13.8984C59.9788 13.6778 60.181 13.2735 60.4384 13.0162C60.6957 12.7773 61.3575 12.4465 61.909 12.281C62.8281 12.0421 62.9016 11.987 62.7362 11.6378C62.6259 11.4356 62.3685 11.2334 62.1296 11.1783C61.909 11.1232 61.5229 11.1599 61.2656 11.2702C61.0082 11.3805 60.659 11.5643 60.4935 11.6929C60.2362 11.8767 60.1259 11.8767 59.942 11.6929C59.7582 11.5275 59.7398 11.4172 59.9237 11.1599Z" fill="white"></path><path d="M88.2513 13.347C88.4902 12.2627 88.7108 11.2702 88.7476 11.1416C88.7844 11.0129 88.9866 10.9026 89.2072 10.9026C89.4094 10.9026 89.5748 10.9761 89.5748 11.0497C89.5748 11.1178 89.3693 12.0078 89.1195 13.0895L89.0601 13.347C88.6924 14.9276 88.4902 15.5157 88.288 15.5157C88.141 15.5157 87.9755 15.479 87.9204 15.4238C87.8652 15.3687 88.0123 14.4314 88.2513 13.347Z" fill="white"></path><path d="M56.9273 11.9686C56.8905 11.8951 56.9089 11.7481 56.9641 11.6378C57.0192 11.5275 57.203 11.4724 57.3685 11.4908C57.5707 11.5275 57.8832 12.281 58.3611 13.7514C58.7288 14.9644 59.0597 16.2876 59.0597 16.692C59.0597 17.1698 58.931 17.6293 58.692 17.9417C58.4898 18.2174 58.067 18.5666 57.7729 18.7136C57.4604 18.8791 56.7802 18.9893 56.2471 18.9893C55.714 18.9893 55.1809 18.9342 55.0523 18.8607C54.9236 18.7872 54.8684 18.6034 54.9236 18.438C54.9971 18.2358 55.3096 18.1623 56.2287 18.1623C57.3317 18.1623 57.4604 18.1255 57.9016 17.6109C58.2692 17.1698 58.3427 16.9493 58.2508 16.4163C58.1773 16.0671 58.0854 15.7363 58.0302 15.6811C57.9751 15.6444 57.8464 15.7363 57.7545 15.9201C57.6626 16.1038 57.2949 16.3612 56.9457 16.5082C56.5964 16.6736 56.1001 16.7839 55.8427 16.7839C55.5854 16.7839 55.1074 16.6736 54.7765 16.5266C54.4456 16.3795 54.0228 15.9752 53.839 15.6444C53.6368 15.3136 53.4897 14.7071 53.4714 14.3027C53.4714 13.8984 53.6 13.347 53.7839 13.0713C53.9493 12.7957 54.3537 12.4281 54.6846 12.2627C55.0706 12.0789 55.6037 11.987 56.1368 12.0421C56.6148 12.0789 56.9641 12.0421 56.9273 11.9686Z" fill="white"></path><path d="M91.0086 12.9243C91.1925 12.6854 91.6337 12.3178 91.9645 12.1524C92.4241 11.9135 92.8101 11.84 93.3432 11.9318C93.7477 11.987 94.3359 12.2443 94.6668 12.4832C95.0528 12.7589 95.3469 13.2 95.4572 13.6227C95.5492 14.027 95.5675 14.5416 95.4756 14.8541C95.4021 15.1665 95.2366 15.6076 95.108 15.8282C94.9977 16.0487 94.6484 16.3612 94.3543 16.5082C94.0418 16.6736 93.4903 16.8022 93.1043 16.8022C92.7366 16.8022 92.1484 16.6552 91.7991 16.4714C91.4682 16.2876 91.027 15.8649 90.8248 15.4973C90.5675 15.0563 90.4939 14.6519 90.5675 14.1189C90.6226 13.7146 90.8064 13.1816 91.0086 12.9243Z" fill="white"></path><path d="M50.6956 14.027C50.7507 13.8432 51.0081 13.5492 51.2654 13.4022C51.5412 13.2735 51.8353 13.1816 51.9272 13.2367C52.0375 13.2919 52.0927 13.4757 52.0927 13.6778C52.0743 13.88 52.0007 14.027 51.9272 14.027C51.8537 14.027 51.5963 14.1741 51.3757 14.3579C51.1184 14.56 50.9529 14.8725 50.9529 15.1849C50.9713 15.4606 51.1735 16.2141 51.4309 16.839C51.6882 17.4639 51.8537 18.0888 51.7985 18.2174C51.7434 18.3461 51.5963 18.4563 51.4676 18.4563C51.339 18.4563 50.861 17.519 50.3831 16.3795C49.7948 15.0011 49.5742 14.2476 49.6845 14.1189C49.8071 14.0087 49.9909 14.027 50.236 14.1741C50.5485 14.3762 50.6037 14.3579 50.6956 14.027Z" fill="white"></path><path d="M96.8176 15.9568C97.2403 14.946 97.6448 13.9903 97.6999 13.8065C97.7735 13.6227 97.9389 13.5308 98.1043 13.6043C98.2514 13.6595 98.3801 13.8249 98.3801 13.9719C98.3985 14.1373 98.6374 14.2108 99.2441 14.2108C99.961 14.2108 100.2 14.3211 100.623 14.7622C100.954 15.1114 101.156 15.5157 101.137 15.8282C101.137 16.1038 100.862 16.986 100.512 17.7947C100.163 18.6217 99.8139 19.3018 99.7404 19.3201C99.6485 19.3385 99.4647 19.2834 99.3176 19.1915C99.0786 19.0445 99.1338 18.8239 99.6485 17.6844C99.9794 16.9309 100.237 16.1222 100.237 15.8649C100.255 15.626 100.145 15.3136 100.016 15.2033C99.8874 15.0746 99.5749 14.9276 99.3176 14.8725C99.0051 14.7806 98.711 14.8541 98.3985 15.093C98.1411 15.2952 97.6815 16.0303 97.3874 16.7655C97.0749 17.4823 96.744 18.0704 96.6521 18.0704C96.5418 18.0704 96.3764 18.0152 96.2477 17.9417C96.1006 17.8498 96.2661 17.2801 96.8176 15.9568Z" fill="white"></path><path d="M42.1844 15.2033C42.5153 14.8357 43.1219 14.3762 43.5264 14.1924C44.0227 13.9535 44.5742 13.8616 45.2727 13.8984C46.008 13.9351 46.486 14.0822 46.9639 14.3946C47.3316 14.6519 47.8463 15.1849 48.1036 15.5892C48.361 15.9936 48.6367 16.7103 48.6919 17.1514C48.7654 17.6293 48.7103 18.3093 48.5816 18.7136C48.4529 19.1364 48.0301 19.7796 47.5889 20.2023C47.0742 20.7169 46.5411 21.011 45.9161 21.1764C45.4014 21.3051 44.7029 21.3602 44.3536 21.3051C44.0043 21.2499 43.3609 20.9559 42.9197 20.6618C42.4969 20.3494 41.9822 19.798 41.7984 19.412C41.5962 19.0261 41.394 18.438 41.3204 18.0704C41.2469 17.7212 41.2837 17.0779 41.394 16.6552C41.5043 16.2325 41.8535 15.5709 42.1844 15.2033Z" fill="white"></path><path d="M105.715 18.1807C106.009 17.7763 106.56 17.2617 106.965 17.0228C107.443 16.7471 107.976 16.6185 108.638 16.6185C109.226 16.6185 109.888 16.7471 110.292 16.9493C110.678 17.1331 111.211 17.5558 111.487 17.8682C111.763 18.1807 112.002 18.5299 112.002 18.6217C112.002 18.732 112.038 18.9342 112.094 19.0812C112.149 19.2834 112.057 19.3569 111.726 19.3569C111.377 19.3569 111.174 19.2099 110.935 18.7136C110.733 18.2726 110.366 17.9234 109.888 17.7028C109.483 17.5006 108.987 17.3536 108.785 17.3536C108.582 17.3536 108.068 17.519 107.627 17.7212C107.112 17.9601 106.707 18.3277 106.395 18.8607C106.101 19.3753 105.935 19.9266 105.935 20.4596C105.935 20.9742 106.082 21.5256 106.303 21.8932C106.505 22.224 106.928 22.6283 107.259 22.7938C107.59 22.9592 108.215 23.0878 108.638 23.0694C109.244 23.0511 109.446 23.1246 109.52 23.3635C109.575 23.5473 109.52 23.7495 109.391 23.823C109.263 23.8965 108.84 23.9516 108.454 23.9516C108.086 23.9516 107.461 23.8046 107.075 23.6208C106.707 23.4186 106.119 22.9775 105.788 22.61C105.457 22.224 105.145 21.6543 105.071 21.2499C105.016 20.864 105.016 20.184 105.071 19.7245C105.126 19.2466 105.384 18.6034 105.715 18.1807Z" fill="white"></path><path d="M34.8865 22.6651C35.1439 22.3527 35.5299 22.0218 35.7505 21.9299C35.9895 21.8564 36.4307 21.7645 36.7616 21.7645C37.2027 21.7645 37.552 21.9299 38.0483 22.4078C38.7285 23.0327 38.7285 23.0511 38.3792 23.3267C38.177 23.4738 37.5336 23.97 36.9454 24.4295C36.3755 24.8706 35.8976 25.33 35.8976 25.4219C35.8976 25.5322 36.1182 25.6792 36.3939 25.7711C36.7432 25.8814 37.0924 25.863 37.4969 25.6792C37.8829 25.5138 38.1954 25.2014 38.3792 24.7787C38.5631 24.3498 38.7775 24.1354 39.0226 24.1354C39.2248 24.1354 39.3903 24.2273 39.3903 24.3192C39.3903 24.4295 39.28 24.7787 39.1513 25.1095C39.0042 25.4403 38.655 25.8814 38.3608 26.1203C38.0667 26.3409 37.5336 26.5798 37.1844 26.6349C36.7248 26.7268 36.3204 26.6533 35.824 26.4144C35.438 26.2306 34.9601 25.8263 34.7762 25.5138C34.574 25.2014 34.427 24.6133 34.427 24.0986C34.427 23.437 34.5373 23.0878 34.8865 22.6651Z" fill="white"></path><path d="M110.954 23.823C111.101 23.5473 111.45 23.143 111.744 22.904C112.112 22.6283 112.535 22.4997 113.105 22.4997C113.619 22.4997 114.152 22.6283 114.52 22.8673C114.851 23.0694 115.255 23.4738 115.402 23.7678C115.549 24.0803 115.678 24.6316 115.678 25.0176C115.678 25.4035 115.513 25.9733 115.31 26.3041C115.108 26.6349 114.685 27.0209 114.391 27.1679C114.079 27.3333 113.582 27.4436 113.288 27.4436C112.976 27.4436 112.498 27.3333 112.222 27.2047C111.946 27.0576 111.487 26.6901 111.211 26.3776C110.843 25.9549 110.715 25.6057 110.715 25.0543C110.715 24.6684 110.825 24.0986 110.954 23.823Z" fill="white"></path><path d="M30.4012 27.4252C30.4196 26.5982 30.5115 26.396 31.1181 25.7711C31.6328 25.2565 31.9637 25.0543 32.3865 25.0543C32.8277 25.0543 32.9564 25.1462 32.9564 25.4219C32.9564 25.6792 32.8277 25.7895 32.5703 25.7895C32.3681 25.7895 31.9453 26.0468 31.6512 26.3409C31.3571 26.6533 31.1181 27.0944 31.1181 27.3517C31.1181 27.609 31.3571 28.1052 31.6696 28.4544C32.1108 28.969 32.3497 29.0977 32.8644 29.0977C33.324 29.0977 33.6549 28.969 33.9674 28.6382C34.2248 28.3993 34.427 28.0685 34.427 27.9031C34.427 27.756 34.5924 27.6274 34.7946 27.6274C35.052 27.6274 35.1623 27.756 35.1623 28.0869C35.1623 28.3625 34.9049 28.822 34.5556 29.1712C34.1696 29.5939 33.71 29.8512 33.2321 29.9247C32.7542 30.0166 32.313 29.9799 31.9637 29.8145C31.6696 29.6858 31.1916 29.2999 30.8975 28.969C30.4563 28.4728 30.3828 28.2155 30.4012 27.4252Z" fill="white"></path><path d="M115.016 29.5204C114.685 29.3182 114.796 29.1712 116.303 27.5723C117.608 26.1938 117.994 25.8814 118.197 26.0468C118.325 26.1571 118.417 26.3776 118.399 26.5247C118.362 26.6717 118.564 26.8371 118.932 26.929C119.263 27.0209 119.704 27.315 119.906 27.5906C120.108 27.8663 120.274 28.3625 120.274 28.6934C120.274 29.1528 120.016 29.5939 119.079 30.6599C118.417 31.4318 117.811 32.0567 117.737 32.0567C117.663 32.0567 117.48 31.928 117.333 31.781C117.075 31.5237 117.185 31.3583 118.288 30.2004C118.969 29.502 119.538 28.8036 119.538 28.6382C119.538 28.4912 119.336 28.1604 119.079 27.9031C118.822 27.6641 118.491 27.4436 118.344 27.4436C118.197 27.4436 117.829 27.5723 117.553 27.7009C117.277 27.8479 116.671 28.3625 116.211 28.8588C115.458 29.6307 115.31 29.7226 115.016 29.5204Z" fill="white"></path><path d="M26.2283 27.8663C26.1548 27.6825 26.1548 27.4436 26.2099 27.315C26.2835 27.1863 26.4857 27.076 26.7063 27.076C26.9085 27.076 27.1107 27.2414 27.1658 27.4436C27.221 27.6458 27.221 27.9031 27.1658 27.995C27.1107 28.1052 26.9085 28.1788 26.7063 28.1788C26.5041 28.1788 26.2835 28.0501 26.2283 27.8663Z" fill="white"></path><path d="M29.2982 30.8437C27.6805 29.2631 27.6254 29.1896 27.9379 28.8772C28.2504 28.5463 28.3239 28.6015 29.9232 30.2004C31.4858 31.7626 31.5593 31.8729 31.2652 32.1853C30.9894 32.4978 30.8791 32.4243 29.2982 30.8437Z" fill="white"></path><path d="M121.652 30.5312C121.45 30.2188 121.432 30.0534 121.597 29.888C121.763 29.6858 121.891 29.7226 122.572 30.4026L123.105 30.0166C123.546 29.6858 123.675 29.6674 123.895 29.8696C124.097 30.0718 124.061 30.2004 123.123 31.1194L123.583 31.5972C124.005 32.0199 124.024 32.0751 123.73 32.3691C123.454 32.6816 123.417 32.6632 123.141 32.1853C122.976 31.9097 122.755 31.6707 122.664 31.6707C122.553 31.6707 122.038 32.0567 121.505 32.5345C120.972 32.994 120.476 33.4902 120.402 33.6373C120.329 33.7843 120.421 34.0784 120.641 34.3357C120.844 34.593 120.972 34.887 120.917 34.9789C120.862 35.0892 120.715 35.1811 120.586 35.1811C120.458 35.1811 120.182 34.9973 119.961 34.7584C119.759 34.5378 119.52 34.1335 119.447 33.8762C119.336 33.4902 119.483 33.2697 120.623 32.1853C121.873 30.9907 121.91 30.9356 121.652 30.5312Z" fill="white"></path><path d="M26.982 32.461C26.2651 31.1378 26.1732 30.8988 26.3754 30.5496C26.5041 30.3475 26.6511 30.2372 26.7247 30.3291C26.7982 30.421 27.3497 31.4134 27.9379 32.5529C28.857 34.3541 28.9673 34.6481 28.7651 34.9789C28.5445 35.3465 28.5078 35.3465 26.2835 34.593C25.0518 34.1886 23.9856 33.7843 23.9121 33.7292C23.8386 33.6557 23.8754 33.4719 24.004 33.2881C24.2062 32.994 24.3349 33.0124 25.9158 33.527C26.8533 33.8211 27.6622 34.0416 27.7173 34.0232C27.7725 34.0049 27.4416 33.2881 26.982 32.461Z" fill="white"></path><path d="M121.432 36.4492C121.193 36.2103 121.358 36.0265 122.958 34.6849C123.969 33.8578 124.833 33.1778 124.906 33.1594C124.98 33.1594 125.09 33.2697 125.145 33.4167C125.2 33.5821 125.2 33.8211 125.145 33.9681C125.09 34.1519 125.164 34.2438 125.366 34.2438C125.55 34.2438 125.88 34.4092 126.101 34.6114C126.34 34.8135 126.524 35.0708 126.524 35.1627C126.524 35.273 126.395 35.42 126.248 35.4935C126.064 35.5854 125.807 35.4935 125.55 35.2179C125.329 34.9973 124.998 34.8135 124.814 34.8135C124.649 34.8135 124.318 34.9054 124.079 35.0157C123.858 35.1443 123.233 35.5671 122.7 35.9898C121.836 36.6514 121.689 36.7065 121.432 36.4492Z" fill="white"></path><path d="M22.5518 35.8611C22.4967 35.7325 22.5886 35.3098 22.7356 34.9238C22.993 34.3173 23.0849 34.2622 23.4158 34.4276C23.618 34.5378 23.7834 34.6849 23.7834 34.7584C23.7834 34.8319 23.6548 35.0157 23.4893 35.1627C23.3239 35.3281 23.1952 35.5854 23.1952 35.7692C23.2136 35.953 23.2871 36.2655 23.3974 36.4492C23.4893 36.6514 24.1143 37.2212 24.7577 37.699C25.8791 38.5261 25.9342 38.5996 25.6401 38.8753C25.346 39.1693 25.2173 39.0958 23.5812 37.9012C22.5886 37.166 21.8349 36.486 21.8349 36.3022C21.8349 36.1 21.9636 36.0081 22.2393 36.0449C22.5212 36.0694 22.6253 36.0081 22.5518 35.8611Z" fill="white"></path><path d="M124.649 37.846C124.943 37.4785 125.439 37.1293 125.807 37.019C126.138 36.9271 126.671 36.9087 126.983 36.9639C127.278 37.019 127.737 37.2028 127.994 37.3682C128.252 37.552 128.601 37.9931 128.767 38.3606C128.95 38.7282 129.097 39.2796 129.097 39.5737C129.097 39.8861 128.95 40.3823 128.767 40.6764C128.601 40.9888 128.123 41.4115 127.719 41.6321C127.149 41.9261 126.8 41.9997 126.248 41.9078C125.844 41.8526 125.311 41.6137 125.072 41.3748C124.833 41.1542 124.539 40.7315 124.391 40.4558C124.244 40.1801 124.134 39.6104 124.134 39.2061C124.134 38.6731 124.281 38.3055 124.649 37.846Z" fill="white"></path><path d="M19.3348 39.7207C19.5371 39.445 19.8496 39.0958 20.0334 38.9488C20.2172 38.8017 20.6768 38.6731 21.0444 38.6731C21.4305 38.6731 21.9819 38.7834 22.8459 39.2061L21.9268 40.6764C21.4121 41.4851 21.0077 42.2386 21.0077 42.3305C21.0077 42.4408 21.3018 42.5143 21.6511 42.5143C22.1474 42.5143 22.3864 42.404 22.7724 41.9261C23.1033 41.5218 23.232 41.1542 23.1768 40.805C23.14 40.4926 23.2136 40.2169 23.3974 40.125C23.5445 40.0331 23.7283 40.0147 23.8202 40.0883C23.8937 40.1618 23.9489 40.4926 23.9489 40.8234C23.9489 41.1542 23.7834 41.724 23.5996 42.1099C23.3974 42.4959 22.993 42.937 22.6805 43.1208C22.368 43.3046 21.8533 43.4332 21.5591 43.4332C21.2466 43.4332 20.7687 43.3229 20.4929 43.1943C20.2172 43.0473 19.7576 42.6797 19.4819 42.3672C19.0959 41.9261 18.9856 41.5953 18.9856 41.0072C18.9856 40.5293 19.1326 40.0331 19.3348 39.7207Z" fill="white"></path><path d="M128.031 43.3229C128.767 42.9186 130.237 42.0732 131.303 41.4667C133.05 40.4558 133.252 40.3639 133.454 40.658C133.583 40.8234 133.62 41.0256 133.546 41.0991C133.472 41.1726 132.002 42.018 130.292 42.9921C127.369 44.6462 127.149 44.7381 126.928 44.4257C126.726 44.1132 126.836 44.0213 128.031 43.3229Z" fill="white"></path><path d="M14.1509 43.9662C14.3348 43.5067 14.7208 43.0473 15.0333 42.8635C15.3274 42.6797 15.6399 42.5326 15.7135 42.5326C15.787 42.5326 15.8605 42.6062 15.8605 42.6981C15.8605 42.8083 15.8973 42.9921 15.9524 43.1208C16.0076 43.2494 15.8421 43.4516 15.5848 43.5802C15.3274 43.7089 14.9965 44.0948 14.8495 44.444C14.6289 44.9587 14.6105 45.1792 14.776 45.51C14.9046 45.7306 15.0885 45.9879 15.1988 46.0614C15.3091 46.1349 15.5664 46.19 15.7686 46.19C15.9708 46.19 16.5223 45.8225 17.0003 45.363C17.4782 44.9219 18.0664 44.4624 18.287 44.3338C18.526 44.2235 19.0223 44.1867 19.39 44.2419C19.8496 44.3154 20.2356 44.5543 20.5481 44.9035C20.8422 45.2711 21.0077 45.6938 21.0077 46.0981C21.0077 46.4657 20.8974 47.0171 20.7503 47.3479C20.6032 47.6787 20.254 48.1566 19.9782 48.4323C19.6841 48.6896 19.2981 48.9469 19.1143 49.0204C18.912 49.0939 18.765 49.0388 18.7098 48.855C18.6547 48.7079 18.6179 48.5058 18.6179 48.3955C18.6179 48.3036 18.8385 48.1198 19.0959 47.9912C19.3532 47.8625 19.6841 47.5317 19.8312 47.256C19.9782 46.9803 20.0885 46.5025 20.0885 46.19C20.0885 45.8347 19.9476 45.559 19.6657 45.363C19.4451 45.216 19.151 45.0873 19.0223 45.0873C18.8937 45.0873 18.4525 45.4181 18.0113 45.8041C17.5885 46.19 17.037 46.6495 16.7797 46.8149C16.5223 46.9803 16.026 47.1274 15.6767 47.109C15.3274 47.109 14.8495 46.9619 14.6289 46.7965C14.4267 46.6128 14.1509 46.2819 14.0407 46.0614C13.9304 45.8408 13.8384 45.4365 13.8384 45.1792C13.8384 44.9403 13.9855 44.3889 14.1509 43.9662Z" fill="white"></path><path d="M129.465 49.0571C129.52 49.0204 130.917 48.3955 132.59 47.6971C134.263 46.9803 135.697 46.429 135.807 46.4657C135.899 46.4841 136.211 47.0722 136.487 47.7706C136.763 48.469 136.984 49.3144 136.984 49.6453C137.002 49.9761 136.91 50.3988 136.818 50.601C136.708 50.8215 136.377 51.0972 136.083 51.2442C135.77 51.4096 135.292 51.5199 135.017 51.5199C134.741 51.5199 134.245 51.3177 133.325 50.601L131.23 53.6335L131.009 53.0821C130.807 52.5675 130.862 52.4572 131.873 51.1156C132.461 50.3253 132.958 49.6269 132.958 49.5534C132.958 49.4799 132.847 49.2593 132.7 49.0388C132.443 48.6896 132.425 48.6896 131.083 49.2593C129.796 49.8291 129.722 49.8291 129.557 49.4982C129.447 49.2961 129.41 49.1123 129.465 49.0571Z" fill="white"></path><path d="M86.0821 54.0929V51.6118V49.1307H88.4718C90.3285 49.1307 91.027 49.2042 91.6153 49.4615C92.0932 49.6636 92.516 50.0128 92.755 50.4172C93.0307 50.9318 93.1043 51.2442 93.0124 51.8875C92.9388 52.3837 92.7182 52.8983 92.4793 53.1556C92.2403 53.3946 91.7807 53.707 91.4498 53.854C91.0454 54.0194 90.0711 54.0929 86.0821 54.0929Z" fill="white"></path><path d="M44.5558 56.3903L45.861 53.9092L47.1661 51.428L49.6478 56.3903L48.3242 56.4454C47.6073 56.4822 46.4676 56.4822 44.5558 56.3903Z" fill="white"></path><path d="M99.3176 56.3903C99.3176 56.3535 99.8507 55.2324 100.512 53.9092C101.174 52.6043 101.744 51.5199 101.799 51.5199C101.854 51.5199 102.424 52.6043 103.086 53.9092C103.748 55.2324 104.281 56.3535 104.281 56.3903C104.281 56.4454 103.16 56.4822 101.799 56.4822C100.439 56.4822 99.3176 56.4454 99.3176 56.3903Z" fill="white"></path><path d="M10.3274 53.8173C10.456 53.5048 10.8053 53.4313 13.3973 53.1556C14.9965 53.0086 16.7061 52.8616 17.1841 52.8432C17.6804 52.8248 18.0664 52.8799 18.0664 52.9535C18.0664 53.027 17.9745 53.2291 17.8459 53.4129C17.6988 53.5967 17.2944 53.7437 15.9708 53.8173L14.8863 57.1255L15.5664 57.732C15.9341 58.0628 16.2282 58.4855 16.2282 58.6877C16.2282 58.9082 16.1363 59.1104 16.0444 59.1471C15.9341 59.2023 14.5737 58.1179 13.0112 56.7211C10.6031 54.5708 10.1987 54.1297 10.3274 53.8173Z" fill="white"></path><path d="M132.351 54.8649C132.517 54.6259 132.921 54.2767 133.234 54.0929C133.528 53.8908 134.097 53.7437 134.465 53.7437C134.851 53.7437 135.384 53.854 135.66 53.9827C135.954 54.1297 136.303 54.4421 136.469 54.6811C136.634 54.92 136.818 55.3611 136.892 55.6552C136.984 56.0227 136.928 56.4638 136.745 56.9049C136.579 57.2909 136.267 57.7136 136.028 57.8422C135.807 57.9893 135.458 58.1547 135.256 58.2282C134.925 58.3201 134.833 58.1363 134.336 56.5741C134.024 55.6184 133.693 54.8281 133.601 54.8281C133.491 54.8281 133.27 55.0303 133.086 55.2508C132.903 55.4714 132.774 55.8573 132.774 56.0779C132.774 56.2984 132.884 56.7211 133.013 56.9968C133.16 57.2725 133.399 57.5666 133.564 57.6401C133.73 57.7136 133.877 57.8422 133.877 57.9157C133.877 57.9893 133.803 58.1731 133.73 58.3017C133.62 58.5039 133.491 58.4855 133.068 58.2098C132.774 58.026 132.425 57.6033 132.278 57.2725C132.149 56.9417 132.039 56.3719 132.039 55.986C132.039 55.6 132.167 55.1038 132.351 54.8649Z" fill="white"></path><path d="M8.9119 59.3493C9.04058 59.0552 9.38985 58.6509 9.70236 58.4671C10.0884 58.2282 10.4377 58.1731 10.8972 58.2466C11.3016 58.3017 11.7428 58.559 12.0737 58.9266C12.57 59.478 12.6068 59.5882 12.4965 60.6174C12.4414 61.2423 12.3311 61.8488 12.2759 61.9959C12.184 62.2164 12.4965 62.3451 13.6914 62.6024C14.537 62.7861 15.2355 62.9516 15.2723 62.9699C15.3091 63.0067 15.2907 63.2089 15.1252 63.8337L12.6803 63.3191L12.4712 63.2726C11.1937 62.9887 9.71271 62.6596 8.23175 62.3634L8.45234 61.132C8.58102 60.452 8.80161 59.6434 8.9119 59.3493Z" fill="white"></path><path d="M130.991 60.8012C131.028 60.7093 132.37 60.3601 133.987 60.0477C135.586 59.7353 137.131 59.4596 137.406 59.4596C137.811 59.4412 137.921 59.5147 137.921 59.7904C137.921 60.0109 137.811 60.1947 137.682 60.2315C137.535 60.2805 137.602 60.452 137.884 60.7461C138.105 60.985 138.344 61.518 138.399 61.904C138.473 62.3941 138.417 62.8229 138.234 63.1905C138.087 63.5029 137.811 63.8889 137.609 64.0727C137.425 64.2565 136.947 64.477 136.542 64.5689C136.064 64.6608 135.568 64.6608 135.164 64.5321C134.814 64.4219 134.336 64.1278 134.097 63.8705C133.859 63.5948 133.638 63.1353 133.564 62.8229C133.509 62.5288 133.546 61.9959 133.675 61.6283C133.785 61.2791 133.859 60.985 133.822 60.9666C133.803 60.9483 133.197 61.0402 132.498 61.1872C131.469 61.4077 131.175 61.4077 131.083 61.2239C131.009 61.0953 130.972 60.9115 130.991 60.8012Z" fill="white"></path><path d="M7.60674 66.0943C7.69865 65.8187 7.97439 65.3959 8.1766 65.1754C8.39719 64.9548 8.61778 64.7527 8.67293 64.7527C8.72808 64.7527 8.89352 64.9181 9.00382 65.1203C9.20603 65.4511 9.18764 65.543 8.85676 65.8187C8.65455 66.0024 8.39719 66.4252 8.30528 66.7744C8.19498 67.1419 8.15822 67.6749 8.25013 67.969C8.32366 68.2814 8.5994 68.7777 8.85676 69.0717C9.11411 69.3658 9.61044 69.715 9.92295 69.8436C10.2538 69.9907 10.8421 70.0826 11.2097 70.0826C11.5958 70.0826 12.184 69.9539 12.5333 69.7701C12.8825 69.5863 13.3237 69.2371 13.5076 68.9798C13.6914 68.7409 13.8936 68.1895 13.9671 67.7852C14.0407 67.2155 13.9855 66.8846 13.6362 66.2965C13.2318 65.5981 13.2318 65.4878 13.4708 65.2305C13.6914 64.9916 13.7833 64.9916 14.0039 65.1754C14.1326 65.3041 14.3532 65.6349 14.5002 65.9106C14.6473 66.1862 14.7576 66.8479 14.7576 67.3809C14.7576 68.0057 14.6105 68.6306 14.3348 69.1636C14.0958 69.6415 13.6362 70.1744 13.1951 70.4501C12.7355 70.7442 12.1472 70.9464 11.5406 70.9831C11.0443 71.0199 10.2906 70.9464 9.88618 70.8177C9.48176 70.6891 8.87514 70.3215 8.52587 70.009C8.1766 69.6966 7.79056 69.182 7.6435 68.8512C7.51482 68.5203 7.40453 67.8771 7.40453 67.4176C7.40453 66.9765 7.49644 66.37 7.60674 66.0943Z" fill="white"></path><path d="M134.704 67.1419C134.851 66.8479 135.2 66.4803 135.476 66.3333C135.77 66.1862 136.45 66.0576 137.002 66.0576C137.903 66.0576 138.068 66.1311 138.564 66.6457C138.877 66.9765 139.171 67.5279 139.245 67.8771C139.318 68.2447 139.281 68.8328 139.189 69.2187C139.098 69.6047 138.785 70.1009 138.473 70.3582C138.16 70.6155 137.609 70.8728 137.223 70.9464C136.818 71.0015 136.285 70.9464 135.899 70.7993C135.55 70.6523 135.072 70.248 134.833 69.8988C134.557 69.4761 134.41 68.9982 134.428 68.4836C134.428 68.0609 134.557 67.4544 134.704 67.1419Z" fill="white"></path><path d="M136.377 73.3907C134.814 73.3907 134.796 73.3907 134.796 72.9313V72.4718H137.094C139.263 72.4718 139.392 72.5086 139.392 72.8394C139.392 73.0599 139.281 73.2437 139.153 73.2805C138.987 73.3172 139.024 73.4459 139.245 73.7767C139.428 74.0156 139.576 74.42 139.576 74.6405C139.576 74.9529 139.465 75.0448 139.153 75.0448C138.84 75.0448 138.73 74.9346 138.712 74.5486C138.693 74.2729 138.528 73.9054 138.326 73.7216C138.031 73.4643 137.627 73.3907 136.377 73.3907Z" fill="white"></path><path d="M9.73912 73.6297C7.51482 73.501 7.2207 73.4459 7.2207 73.1702C7.2207 72.8761 7.51482 72.8394 14.2061 72.8394V73.2989C14.2061 73.7399 14.1509 73.7767 13.2318 73.7767C12.7171 73.7767 11.1362 73.7032 9.73912 73.6297Z" fill="white"></path><path d="M7.36776 78.7206C7.331 78.2979 7.60674 78.1325 10.7134 76.5703C12.5884 75.6513 14.1326 74.8794 14.1509 74.8794C14.1877 74.8794 14.2061 75.1 14.2061 75.3757C14.2061 75.7984 14.059 75.9454 12.4597 76.7357L12.5884 77.5995C12.6803 78.0774 12.7355 78.8493 12.7355 80.1909L13.6546 80.4666C14.4451 80.7055 14.5737 80.8158 14.5737 81.2018C14.5737 81.4774 14.4818 81.6429 14.3348 81.6245C14.2061 81.6061 12.5884 81.0364 10.7502 80.3747C7.66189 79.2904 7.40453 79.1617 7.36776 78.7206Z" fill="white"></path><path d="M138.564 76.9011L138.693 76.3497C138.767 76.0373 138.951 75.78 139.116 75.78C139.3 75.78 139.392 75.9638 139.392 76.3314C139.392 76.846 139.447 76.8827 140.035 76.8827C140.605 76.8827 140.678 76.9562 140.678 77.3422C140.678 77.7649 140.623 77.8017 140.072 77.7098C139.502 77.6179 139.484 77.6546 139.337 78.353C139.263 78.8309 139.098 79.0882 138.932 79.0882C138.73 79.0882 138.656 78.886 138.656 77.6179L137.498 77.5995C136.873 77.5811 136.156 77.5811 135.899 77.5995C135.642 77.6179 135.403 77.673 135.348 77.7282C135.292 77.7833 135.274 78.0774 135.292 78.3714C135.329 78.8125 135.274 78.9044 134.98 78.9044C134.667 78.9044 134.612 78.7941 134.612 78.0774C134.612 77.5382 134.716 77.1645 134.925 76.9562C135.2 76.6989 135.513 76.6806 138.564 76.9011Z" fill="white"></path><path d="M134.226 81.4958C134.208 80.7607 134.3 80.485 134.704 80.0255C134.961 79.7131 135.219 79.4558 135.274 79.4558C135.311 79.4558 135.421 79.6212 135.531 79.8233C135.678 80.1174 135.623 80.2828 135.348 80.5585C135.145 80.7791 134.98 81.165 134.961 81.4407C134.961 81.7164 135.09 82.0656 135.256 82.2126C135.476 82.4148 135.642 82.4515 135.844 82.3045C135.991 82.2126 136.248 81.7899 136.414 81.3672C136.579 80.9628 136.855 80.485 137.002 80.3012C137.149 80.1358 137.498 80.0071 137.774 80.0071C138.068 80.0071 138.454 80.1725 138.656 80.3747C138.914 80.6504 139.024 80.9996 139.024 81.6245C139.024 82.1023 138.895 82.6905 138.748 82.911C138.601 83.1315 138.344 83.3153 138.197 83.3153C138.05 83.3153 137.884 83.1867 137.829 83.0029C137.774 82.8191 137.848 82.5618 138.013 82.3964C138.16 82.2494 138.289 81.9185 138.289 81.6612C138.289 81.4223 138.197 81.1099 138.068 80.9812C137.866 80.7974 137.774 80.8158 137.535 81.0731C137.388 81.2569 137.094 81.7531 136.892 82.1942C136.708 82.6353 136.395 83.0764 136.211 83.1683C136.046 83.2602 135.734 83.3153 135.531 83.3153C135.329 83.3153 134.961 83.1132 134.704 82.8559C134.336 82.5067 134.245 82.1942 134.226 81.4958Z" fill="white"></path><path d="M56.578 85.1165C57.0376 84.7856 57.8097 84.3813 58.2876 84.1975C58.8207 84.0137 59.7214 83.8851 60.659 83.8851C61.7252 83.8851 62.4788 83.977 63.1406 84.2343C63.6921 84.4364 64.5561 84.9878 65.0892 85.4657C65.7509 86.0538 66.2657 86.7522 66.6517 87.5425C67.1296 88.5533 67.2399 89.0128 67.3135 90.3912C67.3686 91.7145 67.2951 92.321 66.9826 93.3318C66.762 94.1037 66.3208 95.0043 65.898 95.5373C65.512 96.0519 64.7583 96.7319 64.2068 97.0627C63.6369 97.3935 62.8649 97.7611 62.4605 97.8714C62.056 97.9817 61.0634 98.0368 60.2545 98C59.17 97.9449 58.5082 97.7979 57.7729 97.4671C57.2214 97.2097 56.4493 96.6951 56.0633 96.3092C55.6957 95.9416 55.1809 95.28 54.9236 94.8573C54.6846 94.4345 54.3353 93.534 54.1699 92.8723C53.9493 92.0453 53.8942 91.2734 53.9677 90.2993C54.0045 89.5458 54.2067 88.5533 54.3905 88.1122C54.5559 87.6527 54.942 86.9176 55.2361 86.4949C55.5118 86.0722 56.1185 85.4473 56.578 85.1165Z" fill="white"></path><path d="M20.3091 111.49C20.5297 111.306 21.8716 110.369 23.2871 109.395C24.7026 108.421 25.8607 107.631 25.8791 107.649C25.8974 107.667 26.4857 108.513 27.1842 109.524C27.9011 110.534 28.5261 111.435 28.5813 111.545C28.6548 111.637 28.471 111.858 27.6254 112.372L26.7063 110.994C26.1916 110.222 25.732 109.597 25.6401 109.597C25.5665 109.597 25.1989 109.818 24.1327 110.534L25.0886 111.913C26.0261 113.254 26.0445 113.31 25.6952 113.549C25.493 113.696 25.2173 113.824 25.0886 113.824C24.9783 113.824 24.482 113.254 23.9856 112.538C23.5077 111.821 23.1033 111.251 23.0665 111.251C23.0481 111.251 22.4783 111.656 21.8165 112.133C20.8055 112.85 20.5665 112.96 20.4378 112.74C20.3275 112.574 20.1804 112.317 20.0885 112.133C19.9415 111.894 19.9966 111.729 20.3091 111.49Z" fill="white"></path><path d="M123.289 110.571C123.417 110.295 123.803 109.836 124.116 109.56C124.447 109.285 124.833 109.064 124.98 109.064C125.127 109.064 125.237 109.248 125.237 109.524C125.237 109.781 124.998 110.204 124.686 110.534C124.373 110.828 124.134 111.196 124.134 111.361C124.134 111.508 124.263 111.637 124.41 111.637C124.557 111.637 125.035 111.343 125.458 110.994C125.954 110.59 126.45 110.351 126.8 110.351C127.094 110.351 127.535 110.461 127.755 110.608C128.086 110.828 128.178 111.067 128.178 111.674C128.178 112.133 128.013 112.74 127.755 113.181C127.535 113.585 127.075 114.063 126.744 114.229C126.432 114.412 126.119 114.541 126.064 114.523C126.028 114.504 125.936 114.229 125.88 113.935C125.77 113.438 125.825 113.346 126.322 113.144C126.634 113.016 126.965 112.722 127.057 112.501C127.13 112.28 127.186 111.986 127.149 111.858C127.112 111.729 126.947 111.637 126.8 111.637C126.653 111.637 126.138 111.968 125.641 112.372C125.164 112.777 124.594 113.107 124.355 113.107C124.134 113.107 123.748 112.887 123.491 112.648C123.197 112.354 123.031 111.968 123.031 111.637C123.031 111.325 123.141 110.847 123.289 110.571Z" fill="white"></path><path d="M121.285 113.457L121.708 112.905C122.112 112.372 122.13 112.372 123.031 113.016L122.149 114.118L123.141 114.89C123.675 115.313 124.263 115.68 124.41 115.68C124.557 115.68 124.833 115.46 124.998 115.203C125.311 114.762 125.347 114.762 125.66 115.074C125.844 115.258 125.972 115.497 125.972 115.625C125.972 115.754 125.697 116.14 125.347 116.508C124.998 116.857 124.539 117.151 124.281 117.151C124.042 117.151 123.344 116.765 122.664 116.232C122.002 115.717 121.413 115.313 121.322 115.313C121.248 115.313 120.862 115.736 120.458 116.269C120.035 116.802 119.704 117.39 119.722 117.61C119.722 117.812 120.255 118.474 122.204 120.294L121.211 121.286L117.498 117.794L117.921 117.371C118.16 117.132 118.454 116.967 118.601 117.004C118.766 117.041 118.913 116.838 118.969 116.489C119.024 116.177 119.391 115.625 120.458 114.578L119.355 113.659L120.09 112.556L121.285 113.457Z" fill="white"></path><path d="M24.7393 115.46C24.9783 115.148 25.4563 114.78 25.8055 114.651C26.1548 114.504 26.596 114.394 26.7982 114.394C27.0004 114.394 27.5335 114.559 27.9931 114.798C28.4526 115.019 29.0041 115.497 29.2431 115.864C29.5372 116.305 29.6475 116.765 29.6659 117.426C29.6659 118.051 29.5372 118.492 29.2798 118.842C29.0776 119.117 28.6548 119.467 28.3607 119.632C28.0482 119.779 27.46 119.889 27.0188 119.889C26.5592 119.889 26.0261 119.742 25.6952 119.522C25.3827 119.32 24.9599 118.86 24.7209 118.474C24.4636 118.015 24.3165 117.482 24.3165 116.912C24.3165 116.287 24.4268 115.883 24.7393 115.46Z" fill="white"></path><path d="M27.9011 121.929L29.5188 120.183C30.4196 119.209 31.2468 118.419 31.3571 118.419C31.4858 118.419 31.7431 118.584 31.9453 118.787C32.1659 119.025 32.2578 119.264 32.1659 119.43C32.074 119.632 32.1291 119.724 32.4049 119.724C32.6071 119.724 32.9747 119.834 33.2321 120C33.4895 120.147 33.6917 120.367 33.6917 120.496C33.6917 120.624 33.5262 120.882 32.9564 121.47L32.5336 121.029C32.313 120.808 31.8902 120.606 31.6144 120.606C31.2284 120.588 30.824 120.863 28.8203 122.848L27.9011 121.929Z" fill="white"></path><path d="M114.685 120.422C114.888 120.238 115.274 119.981 115.586 119.816C115.88 119.669 116.432 119.54 116.781 119.54C117.13 119.54 117.7 119.705 118.013 119.908C118.344 120.11 118.748 120.459 118.895 120.68C119.042 120.9 119.226 121.378 119.281 121.746C119.373 122.223 119.299 122.609 118.969 123.271C118.693 123.841 118.288 124.319 117.884 124.557C117.535 124.76 116.947 124.962 116.597 124.999C116.23 125.054 115.715 124.98 115.402 124.815C115.09 124.649 114.649 124.3 114.391 124.025C114.079 123.694 113.913 123.271 113.858 122.683C113.821 122.15 113.895 121.617 114.079 121.286C114.226 120.974 114.502 120.588 114.685 120.422Z" fill="white"></path><path d="M31.1181 125.09C31.1181 125.017 31.7799 124.098 32.6071 123.069C33.4159 122.04 34.1328 121.194 34.2064 121.194C34.2799 121.194 34.4821 121.341 34.6659 121.507C34.8498 121.69 34.9784 121.911 34.9784 122.021C34.9784 122.113 35.2174 122.26 35.5299 122.334C35.824 122.407 36.3204 122.72 36.6329 123.032C36.927 123.326 37.1844 123.767 37.1844 123.988C37.1844 124.355 37.2763 124.41 37.9013 124.41C38.4528 124.41 38.7653 124.539 39.1881 124.962C39.6109 125.366 39.7579 125.679 39.7579 126.156C39.7579 126.524 39.5925 127.057 39.3351 127.443C39.1145 127.792 38.5631 128.509 37.3682 130.016L36.3571 129.152L37.2027 128.068C37.6623 127.461 38.1403 126.781 38.2506 126.561C38.3976 126.267 38.416 126.028 38.2873 125.789C38.177 125.568 37.938 125.366 37.7358 125.329C37.5336 125.274 37.2211 125.274 37.0373 125.311C36.8719 125.366 36.2652 125.991 34.7027 127.994L34.2431 127.572C33.9858 127.351 33.7652 127.167 33.7284 127.167C33.71 127.167 34.1328 126.579 34.6659 125.881C35.2174 125.164 35.7138 124.447 35.7689 124.263C35.8424 124.061 35.7689 123.804 35.5299 123.583C35.3277 123.363 34.9601 123.216 34.7027 123.216C34.3718 123.216 34.0409 123.455 33.5446 124.061C33.177 124.521 32.699 125.127 32.4968 125.366C32.1475 125.807 32.1108 125.826 31.6144 125.532C31.3387 125.366 31.1181 125.164 31.1181 125.09Z" fill="white"></path><path d="M109.777 124.613C109.98 124.319 110.421 123.969 110.752 123.841C111.082 123.694 111.542 123.583 111.763 123.583C112.002 123.583 112.48 123.694 112.829 123.859C113.178 124.006 113.674 124.429 113.932 124.815C114.281 125.329 114.391 125.734 114.373 126.432C114.373 127.241 114.299 127.425 113.674 128.031C113.16 128.527 112.81 128.729 112.388 128.729C112.075 128.729 111.818 128.803 111.818 128.913C111.818 129.005 112.167 129.557 113.38 131.137L112.921 131.486C112.663 131.688 112.406 131.836 112.314 131.836C112.241 131.836 111.23 130.549 107.902 126.065L108.343 125.734C108.582 125.55 108.932 125.44 109.097 125.495C109.299 125.55 109.428 125.495 109.428 125.366C109.41 125.238 109.575 124.907 109.777 124.613Z" fill="white"></path><path d="M39.7028 128.729C39.8866 128.38 40.3094 127.902 40.6587 127.664C41.0263 127.425 41.5778 127.259 41.9455 127.259C42.3131 127.259 42.9565 127.425 43.3793 127.627C43.8572 127.847 44.28 128.197 44.4455 128.546C44.5926 128.84 44.7212 129.373 44.7212 129.74C44.7212 130.09 44.5926 130.623 44.4455 130.935C44.2984 131.229 44.1146 131.468 44.0227 131.468C43.9492 131.468 43.1955 131.064 42.3315 130.549C41.1734 129.869 40.7322 129.685 40.6403 129.851C40.5851 129.998 40.5851 130.255 40.6403 130.457C40.7138 130.641 40.9712 130.953 41.2285 131.137C41.4859 131.339 41.9638 131.486 42.2763 131.486C42.6991 131.486 42.9381 131.597 43.0668 131.854C43.1587 132.056 43.2506 132.295 43.2506 132.405C43.2506 132.497 42.8646 132.589 42.3683 132.589C41.7616 132.589 41.3204 132.46 40.8793 132.166C40.53 131.946 40.0888 131.541 39.905 131.303C39.7212 131.045 39.519 130.512 39.4638 130.108C39.3903 129.593 39.4822 129.152 39.7028 128.729Z" fill="white"></path><path d="M104.41 128.141C104.685 127.866 105.126 127.553 105.384 127.461C105.641 127.351 106.046 127.259 106.303 127.259C106.56 127.259 107.038 127.388 107.369 127.572C107.7 127.755 108.123 128.16 108.693 129.097L107.038 130.053C105.715 130.825 105.439 131.064 105.623 131.247C105.733 131.394 106.082 131.486 106.395 131.486C106.726 131.486 107.093 131.321 107.332 131.064C107.535 130.843 107.774 130.512 107.829 130.328C107.921 130.09 108.086 130.034 108.454 130.108C108.748 130.181 109.005 130.255 109.06 130.31C109.116 130.365 108.968 130.696 108.748 131.082C108.527 131.468 108.031 131.927 107.553 132.166C107.112 132.405 106.487 132.589 106.156 132.589C105.843 132.589 105.31 132.46 105.016 132.313C104.704 132.148 104.299 131.799 104.097 131.523C103.876 131.247 103.674 130.77 103.601 130.475C103.546 130.163 103.601 129.63 103.711 129.281C103.803 128.913 104.134 128.399 104.41 128.141Z" fill="white"></path><path d="M97.6999 128.932C98.5455 128.527 99.3911 128.16 99.5933 128.105C99.7955 128.049 100.255 128.049 100.604 128.086C101.027 128.123 101.413 128.344 101.744 128.711C102.13 129.134 102.259 129.465 102.259 130.053C102.259 130.549 102.13 131.008 101.523 131.854L104.557 133.839L103.086 134.592L101.652 133.582C100.88 133.03 100.126 132.589 99.9977 132.589C99.8875 132.589 99.6669 132.644 99.5382 132.718C99.336 132.828 99.4279 133.159 100.604 135.713L99.9977 135.952C99.6852 136.099 99.3544 136.155 99.2808 136.099C99.2073 136.026 98.4904 134.556 96.1925 129.648L97.6999 128.932Z" fill="white"></path><path d="M48.3058 135.53C48.361 135.364 49.0411 133.729 49.8132 131.891C50.5669 130.053 51.2287 128.546 51.2654 128.546C51.3022 128.546 51.5779 128.656 52.4419 129.097L52.1478 129.777C51.9825 130.163 51.3219 131.74 50.6608 133.32L50.6588 133.324C50.0154 134.886 49.4639 136.191 49.4456 136.21C49.4272 136.228 49.1331 136.155 48.8022 136.026C48.3794 135.86 48.2323 135.713 48.3058 135.53Z" fill="white"></path><path d="M44.3536 133.82C44.3536 133.747 44.8131 132.736 45.383 131.578C45.9529 130.402 46.4492 129.465 46.486 129.465C46.5227 129.465 46.7985 129.575 47.111 129.74C47.4051 129.887 47.6257 130.108 47.5705 130.237C47.5154 130.402 47.6441 130.439 47.975 130.402C48.2691 130.365 48.7103 130.439 48.986 130.549C49.4823 130.733 49.4823 130.751 49.225 131.303C49.0228 131.688 48.8573 131.817 48.6183 131.725C48.4529 131.67 48.0485 131.578 47.7544 131.523C47.4419 131.486 47.0926 131.56 46.9455 131.688C46.8168 131.836 46.4124 132.497 46.0815 133.177C45.7323 133.857 45.4198 134.427 45.3646 134.427C45.3095 134.427 45.0521 134.317 44.8131 134.188C44.5558 134.059 44.3352 133.894 44.3536 133.82Z" fill="white"></path><path d="M88.5454 132.81C88.7108 132.479 89.1152 132.056 89.4277 131.854C89.8138 131.615 90.3469 131.486 90.8984 131.486C91.4682 131.486 91.9645 131.597 92.3322 131.854C92.6263 132.056 93.0859 132.607 93.3249 133.085C93.5638 133.563 93.8579 134.482 93.9682 135.107C94.0969 135.897 94.1153 136.467 93.9866 136.945C93.8763 137.331 93.6925 137.754 93.5638 137.919C93.4352 138.066 93.141 138.342 92.8837 138.525C92.5896 138.709 92.0748 138.838 91.4498 138.838C90.6594 138.838 90.3836 138.746 89.8873 138.305C89.5748 138.011 89.0969 137.331 88.8579 136.798C88.6005 136.228 88.3799 135.291 88.3248 134.611C88.2513 133.729 88.3064 133.251 88.5454 132.81Z" fill="white"></path><path d="M52.203 135.824C52.1294 134.997 52.0191 133.802 51.9456 133.177C51.8721 132.368 51.8904 132.038 52.0375 132.038C52.1662 132.038 52.4603 132.13 52.6993 132.258C53.0118 132.424 53.1956 132.699 53.2508 133.122C53.3059 133.49 53.3611 134.206 53.3611 134.739C53.3611 135.272 53.4346 135.75 53.5449 135.787C53.6368 135.842 54.1883 135.309 54.7398 134.592C55.2912 133.894 55.7692 133.306 55.7876 133.306C55.8243 133.306 56.1185 133.398 56.431 133.49C56.7618 133.6 57.0376 133.729 57.0376 133.765C57.0376 133.82 55.953 135.107 54.6478 136.614C52.975 138.562 52.111 139.408 51.7434 139.5C51.4676 139.555 50.9346 139.518 50.5485 139.408C50.1809 139.297 49.8316 139.114 49.7765 139.022C49.7213 138.911 49.7948 138.617 49.9051 138.378C50.089 138.029 50.2176 137.956 50.4566 138.103C50.6404 138.195 50.9346 138.286 51.1 138.286C51.2838 138.286 51.6331 138.066 51.8904 137.809C52.3316 137.349 52.35 137.276 52.203 135.824Z" fill="white"></path><path d="M60.5854 133.876C60.7509 133.49 61.1369 133.085 61.4862 132.901C61.8171 132.736 62.4605 132.589 62.92 132.589C63.3796 132.589 64.0781 132.736 64.4825 132.92C64.887 133.104 65.3281 133.398 65.4384 133.563C65.6406 133.82 65.5855 133.912 65.0708 134.225C64.5009 134.574 64.4642 134.574 64.1149 134.243C63.9127 134.059 63.545 133.876 63.2877 133.82C63.0303 133.747 62.6627 133.765 62.4605 133.857C62.2582 133.931 62.0377 134.133 61.9457 134.298C61.8722 134.464 61.8722 134.739 61.9457 134.905C62.0377 135.07 62.4605 135.419 62.92 135.677C63.3796 135.916 63.9678 136.338 64.2619 136.614C64.6664 137 64.7583 137.239 64.7583 137.956C64.7583 138.691 64.6664 138.93 64.1333 139.481C63.5634 140.051 63.4163 140.124 62.4788 140.124C61.909 140.124 61.1369 139.977 60.7509 139.83C60.3832 139.665 59.9237 139.408 59.7398 139.224C59.556 139.058 59.4089 138.838 59.4273 138.746C59.4273 138.636 59.6663 138.415 59.9788 138.231C60.5119 137.919 60.5303 137.919 60.9347 138.36C61.1737 138.617 61.5597 138.875 61.8171 138.93C62.0744 138.985 62.4788 138.948 62.7362 138.838C62.9935 138.746 63.2509 138.507 63.3061 138.323C63.3796 138.139 63.3612 137.864 63.2693 137.68C63.1774 137.496 62.7178 137.147 62.2215 136.871C61.7435 136.596 61.1737 136.21 60.9347 135.989C60.7141 135.787 60.4751 135.364 60.4016 135.07C60.3465 134.739 60.42 134.243 60.5854 133.876Z" fill="white"></path><path d="M81.8173 133.416L83.8946 133.012C85.0527 132.791 86.1924 132.607 86.4498 132.589C86.799 132.571 86.9277 132.681 87.038 133.085C87.1299 133.434 86.8909 134.556 85.2549 140.198L84.5196 140.345C84.1152 140.437 83.7659 140.492 83.7475 140.455C83.7291 140.418 84.1336 139.003 84.6666 137.312C85.1997 135.622 85.549 134.188 85.4755 134.096C85.3836 134.023 84.6115 134.096 83.7291 134.262C82.8468 134.427 82.1115 134.537 82.0931 134.537C82.0747 134.519 82.0012 134.262 81.8173 133.416Z" fill="white"></path><path d="M65.0892 140.602C65.0708 140.547 65.9531 138.948 67.0193 137.018L68.9863 133.508L69.5929 133.618C69.9054 133.692 70.1995 133.747 70.1995 133.747C70.2179 133.765 70.7878 135.346 71.4679 137.276C72.1481 139.187 72.7363 140.86 72.7731 140.988C72.8282 141.135 72.6444 141.209 72.24 141.209C71.9275 141.209 71.5415 141.154 71.4312 141.08C71.3025 141.007 71.1003 140.621 70.9532 140.216C70.7326 139.555 70.6039 139.463 69.9789 139.352C69.5745 139.279 68.8392 139.205 68.3429 139.205C67.4421 139.187 67.4054 139.205 67.0561 139.941C66.7068 140.639 66.6333 140.676 65.898 140.676C65.4752 140.676 65.1075 140.639 65.0892 140.602Z" fill="white"></path><path d="M74.0783 134.39C74.354 134.114 74.9239 133.802 75.3283 133.71C75.7327 133.618 76.3945 133.582 76.7989 133.618C77.2033 133.673 77.718 133.839 78.3614 134.243L77.9386 134.739C77.718 135.015 77.5158 135.272 77.479 135.291C77.4607 135.327 77.2585 135.217 77.0195 135.07C76.7989 134.905 76.3945 134.795 76.1555 134.795C75.8981 134.795 75.5121 134.905 75.2731 135.07C75.0525 135.217 74.8687 135.511 74.8687 135.713C74.8687 135.916 75.0525 136.191 75.2731 136.338C75.5121 136.485 75.9349 136.669 76.2474 136.724C76.5415 136.798 77.1114 137.018 77.479 137.202C77.8651 137.386 78.2511 137.717 78.3614 137.919C78.4533 138.121 78.5452 138.562 78.5452 138.93C78.5452 139.279 78.4349 139.794 78.2879 140.069C78.1592 140.345 77.7364 140.731 77.3688 140.896C76.9643 141.098 76.2842 141.227 75.6408 141.227C74.9055 141.227 74.4091 141.117 73.9864 140.86C73.6555 140.657 73.3981 140.418 73.3797 140.345C73.3797 140.271 73.6003 140.032 74.3172 139.389L74.8136 139.757C75.0893 139.959 75.5305 140.124 75.7878 140.124C76.0268 140.124 76.4312 139.996 76.6518 139.849C76.9092 139.683 77.0746 139.389 77.0746 139.114C77.0746 138.838 76.9092 138.544 76.6518 138.378C76.4312 138.25 75.9901 138.066 75.6959 137.992C75.3834 137.919 74.8503 137.717 74.5011 137.551C74.1334 137.368 73.7474 137 73.6003 136.706C73.4533 136.393 73.3981 135.897 73.4716 135.53C73.5268 135.162 73.8025 134.666 74.0783 134.39Z" fill="white"></path><path d="M79.4274 12.7238C79.409 12.5584 79.5561 12.3195 79.7583 12.2276C79.9421 12.1173 80.4936 12.0254 80.9716 12.0254C81.7253 12.0254 81.8539 12.0805 81.8539 12.393C81.8539 12.5951 81.6333 12.9811 81.3392 13.2568C80.9348 13.6427 80.7326 13.7162 80.2914 13.606C79.9789 13.5325 79.6848 13.3854 79.6113 13.2568C79.5377 13.1281 79.4458 12.8892 79.4274 12.7238Z" fill="#0077C0"></path><path d="M54.5006 13.5508C54.6293 13.2935 54.9786 12.9627 55.2911 12.8341C55.5852 12.7054 55.8977 12.5951 55.9712 12.5768C56.0631 12.5768 56.3389 12.687 56.5962 12.7973C56.872 12.926 57.2029 13.2568 57.3315 13.5325C57.4786 13.8265 57.5889 14.2309 57.5889 14.4514C57.6073 14.6903 57.4418 15.0763 57.258 15.3336C57.0742 15.5909 56.6698 15.8666 56.3756 15.9401C56.0264 16.032 55.6587 15.9952 55.3095 15.8482C55.0153 15.7195 54.6661 15.3887 54.5374 15.0947C54.3903 14.819 54.28 14.4698 54.28 14.3227C54.28 14.1757 54.3903 13.8265 54.5006 13.5508Z" fill="#0077C0"></path><path d="M91.707 13.5141C91.8725 13.2752 92.185 12.9627 92.3872 12.8341C92.6078 12.687 92.9938 12.6319 93.2512 12.687C93.5085 12.7422 93.8945 12.9076 94.1151 13.0546C94.3541 13.2016 94.5931 13.5876 94.6482 13.9C94.7218 14.286 94.6482 14.7271 94.4644 15.0947C94.299 15.4255 94.0048 15.7931 93.8026 15.885C93.6004 15.9768 93.2328 16.0687 92.9754 16.0687C92.7181 16.0687 92.2769 15.8298 91.9644 15.5174C91.6151 15.1682 91.4129 14.7822 91.4129 14.4514C91.4313 14.1757 91.56 13.753 91.707 13.5141Z" fill="#0077C0"></path><path d="M61.1184 13.3854C61.247 13.2752 61.5963 13.0914 61.9088 12.9811C62.2029 12.8708 62.6073 12.7789 62.7728 12.7789C63.0118 12.7605 63.1037 12.9076 63.1037 13.3119C63.1037 13.6244 62.9382 14.0287 62.736 14.2309C62.4787 14.4882 62.1662 14.5801 61.6698 14.5433C61.1 14.5065 60.9713 14.433 60.9345 14.0471C60.8978 13.7898 60.9713 13.4957 61.1184 13.3854Z" fill="#0077C0"></path><path d="M43.4894 15.113C43.71 15.0028 44.1328 14.8557 44.4269 14.7822C44.7027 14.7271 45.199 14.7271 45.5299 14.819C45.8424 14.8925 46.302 15.113 46.5593 15.2968C46.8167 15.4806 47.2027 15.9952 47.4417 16.4547C47.7358 17.0244 47.8461 17.4839 47.8093 17.9985C47.7542 18.4029 47.5704 18.9726 47.3498 19.285C47.1476 19.5975 46.688 19.9834 46.302 20.1488C45.9343 20.3326 45.3828 20.4797 45.0887 20.4797C44.7762 20.4797 44.2247 20.3326 43.8571 20.1488C43.4894 19.9834 42.9747 19.5056 42.7174 19.1196C42.3681 18.5683 42.2394 18.1639 42.2394 17.4655C42.2394 16.7855 42.3681 16.3628 42.6622 15.9217C42.9012 15.6093 43.2688 15.2417 43.4894 15.113Z" fill="#0077C0"></path><path d="M35.1437 24.0819C35.1437 23.5857 35.2724 23.3468 35.7136 22.9792C36.0445 22.7219 36.4305 22.5013 36.596 22.5013C36.7798 22.5013 37.0739 22.6116 37.2761 22.7586C37.4783 22.9057 37.607 23.0527 37.5519 23.1078C37.4967 23.1446 37.0004 23.5122 36.4489 23.9349C35.8974 24.3576 35.3827 24.7068 35.2908 24.7068C35.2173 24.7068 35.1621 24.4311 35.1437 24.0819Z" fill="#0077C0"></path><path d="M111.523 24.7987C111.579 24.4863 111.891 24.0268 112.185 23.7327C112.498 23.457 112.902 23.2365 113.104 23.2365C113.307 23.2365 113.693 23.3468 113.968 23.4938C114.262 23.6225 114.593 24.0268 114.74 24.3576C114.961 24.909 114.961 25.056 114.685 25.5706C114.52 25.9014 114.134 26.3058 113.84 26.4528C113.49 26.6366 113.123 26.6733 112.792 26.5815C112.535 26.5079 112.112 26.2139 111.854 25.9014C111.523 25.4787 111.432 25.2214 111.523 24.7987Z" fill="#0077C0"></path><path d="M124.888 39.4834C124.906 39.2077 125.163 38.7299 125.513 38.3807C125.899 37.9947 126.303 37.7558 126.597 37.7558C126.855 37.7558 127.241 37.8293 127.443 37.9396C127.645 38.0499 127.921 38.3807 128.049 38.6931C128.178 39.0056 128.27 39.465 128.233 39.704C128.196 39.9429 127.958 40.3472 127.663 40.6045C127.314 40.9353 126.965 41.0824 126.469 41.064C125.935 41.064 125.678 40.9353 125.329 40.5126C125.071 40.2002 124.869 39.7407 124.888 39.4834Z" fill="#0077C0"></path><path d="M19.9965 40.1634C20.1435 39.8694 20.3825 39.5937 20.5112 39.5385C20.6215 39.4834 20.9156 39.4283 21.1362 39.4283C21.3752 39.4099 21.5957 39.465 21.6325 39.5385C21.6877 39.6304 21.3935 40.2186 20.9707 40.8802C20.2722 42.0197 20.2171 42.0565 19.9781 41.7073C19.831 41.5051 19.7207 41.1926 19.7207 41.0089C19.7207 40.8434 19.8494 40.4575 19.9965 40.1634Z" fill="#0077C0"></path><path d="M133.472 48.5258C133.454 48.3788 133.803 48.1215 134.336 47.9009C134.851 47.6988 135.292 47.515 135.347 47.4966C135.402 47.4966 135.55 47.7171 135.678 47.9928C135.789 48.2685 135.991 48.7831 136.083 49.0956C136.23 49.6102 136.211 49.7756 135.899 50.1615C135.697 50.4188 135.347 50.621 135.108 50.621C134.888 50.6394 134.575 50.4924 134.41 50.3086C134.244 50.1248 133.969 49.7021 133.803 49.3712C133.638 49.0588 133.491 48.6728 133.472 48.5258Z" fill="#0077C0"></path><path d="M11.6324 54.2416C11.6324 54.1681 12.1103 54.0946 12.6802 54.0579C13.2684 54.0211 14.0221 53.9843 14.3346 53.966C14.6655 53.9476 14.9412 53.9843 14.9412 54.0579C14.9412 54.1497 14.8126 54.6644 14.6471 55.2157C14.4817 55.7671 14.2979 56.2817 14.2427 56.3552C14.1692 56.4287 13.5442 56.0244 12.864 55.4363C12.1839 54.8665 11.614 54.3335 11.6324 54.2416Z" fill="#0077C0"></path><path d="M134.906 56.0428C134.722 55.4363 134.52 54.8298 134.465 54.7011C134.41 54.5908 134.465 54.4806 134.575 54.4806C134.704 54.4806 134.998 54.5541 135.255 54.6644C135.513 54.7746 135.844 55.1422 135.991 55.4914C136.211 56.0244 136.23 56.2266 136.027 56.5941C135.917 56.8514 135.678 57.1087 135.531 57.1455C135.384 57.2006 135.255 57.219 135.237 57.2006C135.237 57.1639 135.09 56.6493 134.906 56.0428Z" fill="#0077C0"></path><path d="M9.40808 60.5824C9.54289 59.9452 9.7451 59.5348 10.0147 59.351C10.2537 59.2039 10.5294 59.112 10.6581 59.1672C10.7868 59.2223 10.9706 59.2591 11.0809 59.2591C11.1728 59.2591 11.3934 59.4429 11.5588 59.6634C11.7978 60.031 11.8162 60.2148 11.3566 62.0527L10.4375 61.9424C9.92279 61.8689 9.44485 61.7586 9.37132 61.6851C9.2794 61.6116 9.29779 61.1153 9.40808 60.5824Z" fill="#0077C0"></path><path d="M134.538 61.3175C134.704 61.0786 135.016 60.8213 135.237 60.7294C135.439 60.6375 135.825 60.564 136.083 60.5456C136.34 60.5456 136.744 60.6926 137.002 60.8764C137.259 61.0602 137.535 61.4645 137.608 61.7586C137.7 62.1078 137.664 62.4754 137.516 62.8246C137.388 63.1186 137.057 63.4678 136.763 63.5965C136.487 63.7435 136.064 63.8538 135.807 63.8538C135.55 63.8538 135.108 63.6149 134.796 63.3024C134.447 62.9532 134.244 62.5673 134.244 62.2365C134.244 61.9608 134.373 61.5564 134.538 61.3175Z" fill="#0077C0"></path><path d="M135.458 67.5663C135.623 67.3274 135.936 67.0701 136.156 66.9782C136.358 66.8863 136.689 66.8128 136.855 66.8128C137.039 66.7944 137.425 66.9231 137.737 67.0701C138.086 67.2355 138.362 67.5663 138.472 67.9339C138.619 68.4117 138.583 68.669 138.344 69.1837C138.123 69.588 137.811 69.8821 137.461 69.9923C137.149 70.0658 136.689 70.1026 136.395 70.0291C136.119 69.9739 135.733 69.735 135.531 69.4961C135.329 69.2756 135.164 68.8345 135.164 68.5404C135.164 68.2463 135.292 67.8052 135.458 67.5663Z" fill="#0077C0"></path><path d="M8.91175 78.6488C8.91175 78.5385 9.53676 78.1709 10.2904 77.8033L11.6691 77.1417L11.853 78.4466C11.9449 79.1634 12 79.7699 11.9633 79.7883C11.9265 79.825 11.228 79.6045 10.4007 79.3288C9.55514 79.0531 8.89337 78.759 8.91175 78.6488Z" fill="#0077C0"></path><path d="M25.5115 116.968C25.5667 116.71 25.8241 116.324 26.0814 116.104C26.3388 115.865 26.7248 115.681 26.9454 115.681C27.166 115.663 27.552 115.828 27.8094 116.012C28.0667 116.196 28.3241 116.582 28.416 116.839C28.4895 117.17 28.4528 117.537 28.2689 117.887C28.1219 118.199 27.7726 118.511 27.4969 118.603C27.2027 118.677 26.8167 118.695 26.6145 118.622C26.4123 118.548 26.063 118.254 25.8241 117.96C25.5299 117.592 25.438 117.298 25.5115 116.968Z" fill="black"></path><path d="M115.127 122.297C115.145 121.948 115.329 121.544 115.586 121.287C115.862 120.993 116.23 120.827 116.597 120.827C116.947 120.827 117.314 120.993 117.608 121.287C117.866 121.544 118.068 121.967 118.068 122.261C118.086 122.555 117.884 122.959 117.59 123.272C117.277 123.584 116.91 123.768 116.579 123.768C116.248 123.768 115.862 123.584 115.586 123.308C115.292 123.014 115.127 122.647 115.127 122.297Z" fill="black"></path><path d="M110.145 126.396C110.145 125.973 110.292 125.698 110.715 125.348C111.046 125.091 111.45 124.871 111.652 124.871C111.836 124.871 112.259 125.128 112.553 125.422C112.866 125.734 113.105 126.175 113.105 126.433C113.105 126.69 112.921 127.113 112.7 127.37C112.424 127.701 112.075 127.866 111.689 127.885C111.303 127.903 110.954 127.756 110.641 127.444C110.31 127.149 110.145 126.782 110.145 126.396Z" fill="black"></path><path d="M41.5044 128.877C41.3757 128.767 41.4493 128.62 41.6882 128.436C41.8904 128.289 42.111 128.179 42.1846 128.179C42.2765 128.179 42.589 128.307 42.8831 128.454C43.1956 128.601 43.4897 128.914 43.5449 129.153C43.6184 129.373 43.6184 129.667 43.5449 129.796C43.4713 129.961 43.214 129.888 42.5706 129.539C42.0743 129.263 41.6147 128.969 41.5044 128.877Z" fill="black"></path><path d="M104.851 129.208C104.98 128.969 105.2 128.675 105.366 128.565C105.531 128.454 105.862 128.363 106.119 128.363C106.377 128.344 106.689 128.473 106.818 128.638C107.002 128.877 106.891 129.006 105.991 129.539C105.127 130.053 104.906 130.127 104.796 129.906C104.704 129.759 104.741 129.447 104.851 129.208Z" fill="black"></path><path d="M98.1412 130.017C98.1964 129.961 98.5824 129.778 99.0052 129.612C99.428 129.447 99.9243 129.3 100.108 129.3C100.274 129.281 100.549 129.484 100.696 129.741C100.899 130.072 100.917 130.292 100.788 130.568C100.696 130.77 100.2 131.138 98.7662 131.854L98.3986 130.991C98.1964 130.494 98.0861 130.072 98.1412 130.017Z" fill="black"></path><path d="M89.6117 134.519C89.5198 133.711 89.5565 133.545 89.9977 133.104C90.2551 132.81 90.6227 132.59 90.8065 132.59C90.9904 132.571 91.3764 132.81 91.6521 133.086C91.9279 133.362 92.2955 134.023 92.461 134.519C92.6264 135.034 92.7551 135.732 92.7551 136.082C92.7551 136.431 92.6632 136.89 92.5713 137.092C92.461 137.295 92.1485 137.515 91.8544 137.607C91.4867 137.699 91.1926 137.662 90.9168 137.46C90.6779 137.313 90.3102 136.798 90.108 136.321C89.8874 135.824 89.6668 135.034 89.6117 134.519Z" fill="black"></path><path d="M68.0673 138.011C68.0673 137.956 68.3246 137.387 68.6555 136.725C68.968 136.063 69.3173 135.53 69.4276 135.53C69.5379 135.53 69.7769 136.118 69.9423 136.817C70.1261 137.534 70.2732 138.122 70.2732 138.158C70.2732 138.177 69.7769 138.177 69.1702 138.158C68.5636 138.122 68.0673 138.067 68.0673 138.011Z" fill="black"></path></svg>