<svg xmlns="http://www.w3.org/2000/svg" width="180" height="80" viewBox="0 0 180 80" fill="none"><path d="M19.7472 40.1096C19.0744 39.1195 18.164 38.6245 17.0162 38.6245C16.5412 38.6245 16.1058 38.7483 15.6309 38.9958C15.1955 39.2433 14.958 39.6146 14.958 40.1921C14.958 40.6458 15.1559 40.9759 15.5121 41.1821C15.8684 41.3884 16.3433 41.5534 16.8975 41.6771C17.4516 41.8009 18.0453 41.9659 18.7181 42.1309C19.3514 42.2959 19.9847 42.5022 20.5388 42.8322C21.093 43.1622 21.5679 43.5747 21.9241 44.111C22.2804 44.6472 22.4783 45.3897 22.4783 46.3386C22.4783 47.2049 22.2804 47.9473 21.9241 48.5249C21.5679 49.1025 21.093 49.5974 20.5388 49.9688C19.9847 50.34 19.3119 50.5874 18.5994 50.7526C17.887 50.9175 17.1745 51 16.4621 51C15.3934 51 14.3643 50.835 13.454 50.505C12.5436 50.175 11.7124 49.5974 11 48.7311L13.3352 46.4624C13.7706 46.9986 14.2456 47.4111 14.7601 47.7411C15.2747 48.0711 15.9079 48.2361 16.6204 48.2361C16.8579 48.2361 17.1349 48.1949 17.412 48.1536C17.6891 48.1124 17.9265 47.9887 18.164 47.8649C18.4015 47.7411 18.5994 47.5348 18.7181 47.3287C18.8369 47.1224 18.9556 46.8748 18.9556 46.5861C18.9556 46.091 18.7577 45.7198 18.4015 45.4723C18.0453 45.2248 17.5703 45.0185 17.0162 44.8948C16.4621 44.7297 15.8684 44.6059 15.1955 44.4823C14.5622 44.3585 13.9289 44.1522 13.3748 43.8635C12.8207 43.5747 12.3457 43.1622 11.9895 42.6259C11.6333 42.0897 11.4354 41.3884 11.4354 40.4396C11.4354 39.6146 11.5937 38.9133 11.9103 38.3358C12.227 37.7582 12.6624 37.2632 13.1769 36.8507C13.6915 36.4794 14.2852 36.1907 14.9976 35.9844C15.6705 35.8194 16.3829 35.6956 17.0558 35.6956C17.9661 35.6956 18.916 35.8607 19.8264 36.1907C20.7367 36.5207 21.4887 37.0982 22.0429 37.882L19.7472 40.1096Z" fill="black"></path><path d="M23.4348 39.1829V36.084H26.4119V31.8696H30.0007V36.084H33.9566V39.1829H30.0007V45.5459C30.0007 46.2897 30.123 46.8681 30.4084 47.2813C30.6939 47.6944 31.2241 47.901 31.999 47.901C32.3253 47.901 32.6515 47.8598 33.0593 47.777C33.4263 47.6944 33.7526 47.5706 33.9566 47.4466V50.5042C33.5894 50.6694 33.1 50.7934 32.5699 50.876C32.0397 50.9586 31.5504 51 31.1018 51C30.1638 51 29.3481 50.876 28.7365 50.6694C28.1247 50.4628 27.6353 50.1322 27.309 49.7191C26.942 49.2645 26.7381 48.7275 26.575 48.1076C26.4526 47.4466 26.3711 46.7029 26.3711 45.8765V39.1829H23.4348Z" fill="black"></path><path d="M35.9119 36.0543H39.6364V38.2862H39.6788C40.102 37.4493 40.6946 36.8514 41.4563 36.3732C42.2182 35.9348 43.107 35.6956 44.0804 35.6956C44.292 35.6956 44.5459 35.6956 44.7576 35.7355C44.9692 35.7754 45.1808 35.8152 45.4348 35.8949V39.2826C45.1384 39.2029 44.7999 39.1232 44.5037 39.0833C44.2074 39.0435 43.9112 39.0036 43.6149 39.0036C42.7261 39.0036 42.0488 39.163 41.4987 39.442C40.9908 39.7608 40.5675 40.0797 40.2713 40.4782C39.975 40.8768 39.8058 41.2753 39.721 41.634C39.6364 42.0326 39.5941 42.3116 39.5941 42.5108V50.0435H35.8696L35.9119 36.0543Z" fill="black"></path><path d="M49.0117 44.5954C49.1323 45.6766 49.5342 46.5501 50.2576 47.1738C50.9811 47.7977 51.8251 48.0888 52.8297 48.0888C53.714 48.0888 54.4776 47.8808 55.0402 47.5066C55.6431 47.1323 56.1655 46.6747 56.6076 46.0925L59.1396 48.0888C58.2957 49.1286 57.3712 49.9187 56.3665 50.3345C55.3617 50.792 54.2766 51 53.1513 51C52.1064 51 51.1016 50.8335 50.137 50.4593C49.2126 50.085 48.3687 49.586 47.6854 48.9206C47.0022 48.2551 46.4395 47.4234 46.0376 46.5084C45.6358 45.552 45.4348 44.5122 45.4348 43.3478C45.4348 42.1833 45.6358 41.1436 46.0376 40.1871C46.4395 39.2306 47.0022 38.4404 47.6854 37.775C48.3687 37.1096 49.1724 36.569 50.137 36.2363C51.0614 35.862 52.0661 35.6956 53.1513 35.6956C54.1159 35.6956 55.0402 35.862 55.844 36.2363C56.6478 36.6106 57.3712 37.1096 57.9338 37.775C58.4966 38.4404 58.9789 39.2722 59.3004 40.2703C59.6219 41.2684 59.7826 42.3913 59.7826 43.6805V44.6786H49.0117V44.5954ZM56.2861 41.8506C56.2861 40.7694 55.9245 39.9376 55.3216 39.3138C54.6786 38.69 53.8346 38.3989 52.7091 38.3989C51.6642 38.3989 50.8202 38.7316 50.1772 39.3554C49.5743 39.9792 49.1725 40.8109 49.0519 41.8922L56.2861 41.8506Z" fill="black"></path><path d="M71.739 48.6075H71.6564C71.1191 49.4324 70.4577 50.0512 69.6726 50.4225C68.8459 50.7937 67.9779 51 66.986 51C66.3247 51 65.6633 50.9175 65.0434 50.7112C64.4234 50.5463 63.8448 50.2575 63.3488 49.8861C62.8528 49.5149 62.4395 49.0612 62.1502 48.5249C61.8608 47.9887 61.6956 47.3287 61.6956 46.6274C61.6956 45.8436 61.8196 45.1834 62.1089 44.6059C62.3982 44.0697 62.7702 43.5747 63.2661 43.2035C63.7207 42.8322 64.2994 42.5434 64.9194 42.2959C65.5394 42.0897 66.2007 41.9246 66.8619 41.8009C67.5232 41.6771 68.2259 41.6359 68.9285 41.5946C69.6312 41.5534 70.2512 41.5534 70.8711 41.5534H71.7804V41.1408C71.7804 40.2333 71.4497 39.532 70.8298 39.0783C70.2098 38.6245 69.3831 38.377 68.4325 38.377C67.6472 38.377 66.9446 38.5008 66.2833 38.7895C65.622 39.0783 65.0434 39.4495 64.5474 39.9033L62.6461 38.0057C63.4728 37.1807 64.3822 36.5619 65.498 36.2319C66.5726 35.8606 67.6886 35.6956 68.8459 35.6956C69.8791 35.6956 70.7472 35.8194 71.4497 36.0257C72.1523 36.2732 72.731 36.5619 73.227 36.9332C73.6817 37.3045 74.0536 37.717 74.3016 38.1707C74.5496 38.6658 74.7563 39.1195 74.8389 39.6146C74.963 40.1096 75.0042 40.5633 75.0456 41.0171C75.0456 41.4709 75.0869 41.8834 75.0869 42.2134V50.5874H71.8218V48.6075H71.739ZM71.5325 44.0697H70.7884C70.2924 44.0697 69.7138 44.0697 69.0938 44.111C68.4739 44.1522 67.8953 44.2347 67.3167 44.3997C66.7793 44.5648 66.2833 44.771 65.9114 45.0598C65.5394 45.3485 65.3327 45.7611 65.3327 46.2973C65.3327 46.6274 65.4154 46.9161 65.5807 47.1636C65.7461 47.4111 65.9114 47.5761 66.1593 47.7411C66.4073 47.9062 66.6553 48.0298 66.986 48.0711C67.2753 48.1536 67.606 48.1949 67.8953 48.1949C69.1352 48.1949 70.0858 47.9062 70.6644 47.2874C71.2432 46.7098 71.5737 45.8847 71.5737 44.8535V44.0697H71.5325Z" fill="black"></path><path d="M78.9128 36.0534H82.1503V38.2393H82.1888C82.4972 37.5636 82.9597 37.0072 83.6534 36.4905C84.3086 35.9739 85.2336 35.7354 86.3513 35.7354C88.4711 35.7354 89.8971 36.6098 90.5908 38.3188C91.0919 37.4047 91.7085 36.7687 92.4408 36.3316C93.1731 35.8944 94.0595 35.6956 95.0615 35.6956C95.9865 35.6956 96.7188 35.8546 97.3356 36.1726C97.9522 36.4905 98.4532 36.9277 98.8386 37.4444C99.224 38.0008 99.4938 38.6368 99.6865 39.3522C99.8407 40.0676 99.9563 40.8625 99.9563 41.6971V50.0435H96.5647V42.0945C96.5647 41.6573 96.5261 41.2599 96.449 40.8625C96.372 40.465 96.2563 40.1073 96.0636 39.8291C95.871 39.5111 95.6011 39.2727 95.2928 39.1137C94.9845 38.9547 94.5606 38.8355 94.0595 38.8355C93.5199 38.8355 93.096 38.9547 92.7106 39.1534C92.3251 39.3522 92.0553 39.6304 91.8241 39.9881C91.5928 40.3458 91.4001 40.7035 91.323 41.1407C91.2075 41.5779 91.1689 42.0151 91.1689 42.4523V50.0435H87.7773V41.6971C87.7773 40.8227 87.5846 40.1073 87.2377 39.5906C86.8909 39.0739 86.2743 38.8355 85.4648 38.8355C84.8868 38.8355 84.4243 38.915 84.0388 39.1137C83.6534 39.3124 83.3451 39.5906 83.0754 39.9086C82.8056 40.2265 82.6513 40.624 82.5358 41.0612C82.4201 41.4984 82.3815 41.9356 82.3815 42.4125V50.0435H78.9899V36.0534H78.9128Z" fill="black"></path><path d="M111.228 29H115.628L124.826 50.0435H101.87L111.228 29Z" fill="black"></path><path d="M130.565 29H126.739V50.0435H130.565V29Z" fill="black"></path><path d="M134.391 31.3913C134.391 30.7596 134.601 30.1731 135.062 29.7219C135.524 29.2256 136.069 29 136.741 29C137.412 29 137.999 29.2256 138.461 29.6768C138.922 30.128 139.174 30.7145 139.174 31.3913C139.174 32.0681 138.922 32.6546 138.461 33.1058C137.999 33.557 137.412 33.7826 136.741 33.7826C136.069 33.7826 135.524 33.557 135.062 33.0607C134.643 32.5644 134.391 32.023 134.391 31.3913Z" fill="#FF0064"></path><path d="M138.217 36.6522H134.391V50.0435H138.217V36.6522Z" fill="black"></path><path d="M140.13 36.6522H144.038L147.864 46.0108H147.905L151.772 36.6522H155.435L149.777 50.0435H145.951L140.13 36.6522Z" fill="black"></path><path d="M159.011 44.5954C159.132 45.6766 159.535 46.5501 160.258 47.1738C160.981 47.7977 161.826 48.0888 162.829 48.0888C163.715 48.0888 164.438 47.8808 165.04 47.5066C165.643 47.1323 166.166 46.6747 166.607 46.0925L169.14 48.0888C168.296 49.1286 167.372 49.9187 166.367 50.3345C165.362 50.792 164.277 51 163.151 51C162.106 51 161.101 50.8335 160.137 50.4593C159.172 50.085 158.369 49.586 157.686 48.9206C157.003 48.2551 156.44 47.4234 156.039 46.5084C155.636 45.552 155.435 44.5122 155.435 43.3478C155.435 42.1833 155.636 41.1436 156.039 40.1871C156.44 39.2306 157.003 38.4404 157.686 37.775C158.369 37.1096 159.172 36.569 160.137 36.2363C161.101 35.862 162.066 35.6956 163.151 35.6956C164.116 35.6956 165.04 35.862 165.844 36.2363C166.647 36.6106 167.372 37.1096 167.934 37.775C168.496 38.4404 168.979 39.2722 169.301 40.2703C169.622 41.2684 169.783 42.3913 169.783 43.6805V44.6786H159.011V44.5954ZM166.287 41.8506C166.287 40.7694 165.924 39.9376 165.322 39.3138C164.678 38.69 163.834 38.3989 162.71 38.3989C161.665 38.3989 160.821 38.7316 160.177 39.3554C159.575 39.9792 159.172 40.8109 159.052 41.8922L166.287 41.8506Z" fill="black"></path><path d="M103.783 50.0435C112.847 50.0435 110.172 39.5217 115.003 39.5217C118.996 39.5217 118.318 50.0435 124.826 50.0435H103.783Z" fill="#FF0064"></path><path d="M102.826 50.0435C107.11 50.0435 106.569 41.4348 110.977 41.4348C116.259 41.4348 112.558 50.0435 123.87 50.0435H102.826Z" fill="#00E1FA"></path><path d="M112.292 41.4348C110.86 44.7084 110.206 50.0435 103.783 50.0435H123.87C113.683 50.0435 115.81 42.6876 112.292 41.4348Z" fill="#FFFF00"></path></svg>