<svg xmlns="http://www.w3.org/2000/svg" width="200" height="80" viewBox="0 0 200 80" fill="none"><path d="M56.9488 28.2459H51.5835V23.6233H67.4607V28.2459H62.0903V55.979H56.9539L56.9488 28.2459Z" fill="#172C54"></path><path d="M70.8653 23.6232H78.4776C79.5154 23.5314 80.5611 23.6454 81.5547 23.9588C82.5484 24.2722 83.4703 24.7787 84.2676 25.4494C84.9276 26.2187 85.4283 27.1113 85.7409 28.0755C86.0535 29.0397 86.1717 30.0563 86.0887 31.0665V33.0541C86.0887 36.4139 84.9679 38.5402 82.7263 39.4329V39.5258C83.3083 39.6803 83.8478 39.9642 84.3047 40.3564C84.7617 40.7486 85.1241 41.2389 85.3651 41.7907C85.9359 43.2469 86.1984 44.8058 86.1358 46.3687V52.0545C86.1275 52.8029 86.1585 53.5513 86.2286 54.2965C86.294 54.8801 86.4516 55.4497 86.6953 55.984H81.4648C81.289 55.5054 81.1637 55.0097 81.0909 54.5051C81.0126 53.6754 80.9816 52.8419 80.9981 52.0087V46.0915C81.1013 45.008 80.8472 43.9205 80.2745 42.9949C79.9495 42.6719 79.5566 42.4254 79.1243 42.2733C78.692 42.1213 78.2312 42.0677 77.7756 42.1162H75.9953V55.9777H70.8589L70.8653 23.6232ZM77.8697 37.4847C78.2882 37.517 78.7089 37.464 79.1064 37.3289C79.5038 37.1938 79.8696 36.9795 80.1817 36.6988C80.7681 35.9524 81.0441 35.0086 80.9523 34.0638V31.5624C81.0263 30.6677 80.8028 29.7737 80.3165 29.019C80.069 28.7433 79.7608 28.5288 79.4164 28.3924C79.0719 28.2561 78.7005 28.2015 78.3313 28.2331H75.9965V37.4783L77.8697 37.4847Z" fill="#172C54"></path><path d="M90.6167 23.6233H95.7531V55.979H90.6167V23.6233Z" fill="#172C54"></path><path d="M100.517 23.6233H114.106V28.2459H105.655V37.2597H112.285V41.8823H105.655V55.979H100.518L100.517 23.6233Z" fill="#172C54"></path><path d="M117.515 23.6233H131.524V28.2459H122.651V36.798H129.703V41.4207H122.651V51.359H131.524V55.979H117.515V23.6233Z" fill="#172C54"></path><path d="M137.011 54.3627C135.632 52.7289 134.937 50.6252 135.073 48.4913V31.1059C134.938 28.9725 135.632 26.8693 137.011 25.2358C137.749 24.5109 138.631 23.9507 139.601 23.5921C140.571 23.2335 141.606 23.0846 142.638 23.1553C143.67 23.0847 144.705 23.2336 145.675 23.5922C146.645 23.9508 147.528 24.511 148.265 25.2358C149.644 26.8695 150.338 28.9725 150.203 31.1059V34.5268H145.347V30.788C145.347 28.7847 144.491 27.783 142.778 27.783C141.066 27.783 140.209 28.7847 140.209 30.788V48.8626C140.209 50.8354 141.066 51.8214 142.778 51.8206C144.491 51.8197 145.347 50.8337 145.347 48.8626V43.9157H150.203V48.4938C150.339 50.6277 149.645 52.7313 148.265 54.3652C147.528 55.0901 146.645 55.6503 145.675 56.0089C144.705 56.3676 143.67 56.5164 142.638 56.4457C141.606 56.5161 140.571 56.3668 139.601 56.0078C138.631 55.6487 137.748 55.088 137.011 54.3627V54.3627Z" fill="#172C54"></path><path d="M158.234 28.2459H152.864V23.6233H168.741V28.2459H163.371V55.979H158.234V28.2459Z" fill="#172C54"></path><path d="M173.971 23.6233H180.93L186.253 55.9816H181.117L180.184 49.5557V49.6485H174.347L173.413 55.9816H168.651L173.971 23.6233ZM179.576 45.2574L177.287 29.2633H177.193L174.952 45.2574H179.576Z" fill="#172C54"></path><circle cx="31.8035" cy="39.532" r="16.532" fill="#E35205"></circle><path d="M44.3383 42.4555L31.1847 29.3585L18.0686 42.4181C17.7304 42.7549 17.7304 43.2788 18.0686 43.6155L23.9314 49.453C24.2696 49.7898 24.7958 49.7898 25.134 49.453L31.1847 43.4284L37.2353 49.453C37.5736 49.7898 38.0997 49.7898 38.438 49.453L44.3007 43.6155C44.6765 43.3536 44.6765 42.7923 44.3383 42.4555ZM31.3229 40.523L24.6618 47.0411L23.4128 45.819L31.3229 38.0787L39.233 45.819L37.984 47.0411L31.3229 40.523ZM40.7088 44.3766L31.3229 34.9267L21.937 44.3766L20.7356 43.167L31.3229 32.5075L41.9102 43.167L40.7088 44.3766Z" fill="white"></path></svg>