<svg xmlns="http://www.w3.org/2000/svg" width="150" height="150" viewBox="0 0 150 150" fill="none"><path d="M0 75C0 33.5786 33.5786 0 75 0V0C116.421 0 150 33.5786 150 75V75C150 116.421 116.421 150 75 150V150C33.5786 150 0 116.421 0 75V75Z" fill="white"></path><path d="M66.9472 2.26589C67.6211 2.21409 68.2172 2.13639 68.269 2.08459C68.3467 2.03279 71.3272 1.98099 74.9555 2.00689C78.5579 2.03279 81.5383 2.05869 81.5643 2.08459C81.5902 2.08459 82.0567 2.16229 82.6009 2.21409C83.1452 2.26589 84.3373 2.39539 85.2703 2.49899C86.2033 2.57669 87.0845 2.73209 87.2141 2.80979C87.3696 2.88749 87.7324 3.017 88.0694 3.0688C88.3803 3.0947 88.9246 3.1983 89.2874 3.276C89.6503 3.3537 90.1945 3.4573 90.5314 3.5091C90.8424 3.5868 91.3867 3.6904 91.7495 3.7681C92.1124 3.8458 92.7603 4.0012 93.1749 4.0789C93.5896 4.1566 94.082 4.312 94.2116 4.3897C94.3671 4.4933 94.6263 4.5969 94.8077 4.62281C94.9632 4.67461 95.326 4.75231 95.5852 4.80411C95.8184 4.88181 96.0517 4.93361 96.1035 4.93361C96.1294 4.95951 96.2849 5.01131 96.4145 5.08901C96.57 5.16671 96.7255 5.21851 96.8033 5.21851C96.881 5.21851 97.0624 5.27031 97.192 5.34801C97.3475 5.42571 97.503 5.47751 97.5808 5.47751C97.6585 5.47751 97.8399 5.52931 97.9695 5.60701C98.125 5.68471 98.2805 5.73651 98.3583 5.73651C98.436 5.73651 98.6174 5.78831 98.747 5.86601C98.9025 5.94371 99.0321 5.99551 99.0839 6.02141C99.1099 6.02141 99.4209 6.09911 99.7837 6.15091C100.147 6.22861 100.483 6.35812 100.561 6.46172C100.639 6.56532 100.924 6.69482 101.209 6.72072C101.494 6.77252 101.779 6.90202 101.857 6.97972C101.935 7.08332 102.22 7.21282 102.505 7.23872C102.79 7.29052 103.049 7.44592 103.101 7.57542C103.127 7.70492 103.282 7.75672 103.412 7.67902C103.568 7.60132 103.671 7.65312 103.671 7.80852C103.671 7.93803 103.749 8.04163 103.879 8.01573C103.982 7.98983 104.423 8.14523 104.837 8.40423C105.252 8.63733 105.693 8.74093 105.822 8.63733C105.926 8.53373 106.004 8.61143 106.004 8.76683C106.004 8.94813 106.133 9.05173 106.263 8.97403C106.418 8.89633 106.522 8.94813 106.522 9.10353C106.522 9.23303 106.652 9.31073 106.781 9.23303C106.937 9.15533 107.04 9.20713 107.04 9.36253C107.04 9.49203 107.17 9.56974 107.3 9.49203C107.455 9.41433 107.559 9.46614 107.559 9.62154C107.559 9.75104 107.688 9.82874 107.818 9.75104C107.973 9.67334 108.077 9.72514 108.077 9.88054C108.077 10.01 108.207 10.0877 108.336 10.01C108.492 9.93234 108.595 9.98414 108.595 10.1395C108.595 10.269 108.725 10.3467 108.855 10.269C109.01 10.1913 109.114 10.2431 109.114 10.3985C109.114 10.528 109.243 10.6057 109.373 10.528C109.528 10.4503 109.632 10.5021 109.632 10.6575C109.632 10.787 109.917 10.9683 110.28 11.046C110.643 11.1237 110.928 11.2791 110.928 11.4345C110.928 11.564 111.057 11.6417 111.187 11.564C111.343 11.4863 111.446 11.5381 111.446 11.6935C111.446 11.823 111.576 11.9007 111.705 11.823C111.861 11.7453 112.016 11.8748 112.094 12.0821C112.172 12.2893 112.301 12.4188 112.431 12.3411C112.535 12.2893 112.872 12.4447 113.209 12.7296C113.52 13.0145 113.908 13.2476 114.038 13.2476C114.193 13.2476 114.297 13.3512 114.297 13.5066C114.297 13.6361 114.478 13.7656 114.686 13.7656C114.893 13.7656 115.075 13.8692 115.075 14.0246C115.075 14.1541 115.256 14.2836 115.463 14.2836C115.671 14.2836 115.852 14.3872 115.852 14.5426C115.852 14.6721 116.033 14.8016 116.241 14.8016C116.448 14.8016 116.63 14.9052 116.63 15.0606C116.63 15.1901 116.811 15.3196 117.018 15.3196C117.226 15.3196 117.459 15.5009 117.537 15.7081C117.614 15.9153 117.848 16.0966 118.055 16.0966C118.262 16.0966 118.47 16.2779 118.521 16.4851C118.547 16.6923 118.755 16.8736 118.962 16.8736C119.169 16.8736 119.61 17.1326 119.921 17.4434C120.232 17.7801 120.828 18.2981 121.217 18.6348C121.606 18.9456 122.746 19.9298 123.757 20.8363C124.741 21.7169 125.778 22.6752 126.089 22.986C126.374 23.2709 127.333 24.2551 128.214 25.1875C129.095 26.094 129.821 27.0005 129.847 27.1559C129.847 27.3372 130.132 27.6998 130.443 27.9329C130.78 28.1919 131.583 29.1244 132.205 30.0309C132.827 30.9115 133.424 31.6626 133.553 31.6367C133.657 31.6367 133.735 31.7921 133.735 31.9475C133.709 32.1288 134.02 32.595 134.382 32.9835C134.745 33.3979 135.03 33.8123 135.03 33.9677C135.03 34.1231 135.16 34.2267 135.29 34.2267C135.419 34.2267 135.549 34.408 135.549 34.6152C135.549 34.8224 135.678 35.0037 135.808 35.0037C135.937 35.0037 136.067 35.185 136.067 35.3922C136.067 35.5994 136.197 35.7807 136.326 35.7807C136.456 35.7807 136.559 35.8584 136.534 35.962C136.482 36.0915 136.689 36.5577 136.974 37.0239C137.259 37.4901 137.57 37.8527 137.7 37.8527C137.803 37.8527 137.829 37.9563 137.752 38.1117C137.674 38.2671 137.752 38.3707 137.933 38.3707C138.089 38.3707 138.14 38.4225 138.063 38.5002C137.959 38.5779 138.4 39.588 139.073 40.7535C139.721 41.9449 140.758 44.0946 141.406 45.5451C142.028 47.0214 142.546 48.2646 142.546 48.3423C142.546 48.42 142.728 48.8862 142.935 49.3783C143.142 49.8704 143.324 50.3366 143.324 50.4143C143.324 50.492 143.505 51.0359 143.738 51.6316C143.946 52.2532 144.49 54.0921 144.905 55.7238C145.319 57.3555 145.838 59.5829 146.045 60.6448C146.252 61.7068 146.589 64.0637 146.822 65.8767C147.056 67.8969 147.211 71.3416 147.211 74.6827C147.211 78.6714 147.082 81.2355 146.693 83.955C146.434 86.027 146.071 88.358 145.915 89.135C145.76 89.912 145.423 91.4919 145.138 92.6315C144.853 93.7711 144.179 96.0504 143.609 97.6821C143.065 99.3138 142.235 101.567 141.795 102.655C141.354 103.769 140.395 105.867 139.669 107.317C138.918 108.793 137.57 111.202 136.637 112.704C135.704 114.206 134.253 116.356 133.398 117.496C132.542 118.635 131.065 120.5 130.08 121.64C129.121 122.779 127.074 124.929 125.545 126.431C124.016 127.933 122.772 129.228 122.798 129.332C122.824 129.462 122.772 129.513 122.668 129.487C122.539 129.436 121.295 130.342 119.869 131.482C118.444 132.621 116.293 134.201 115.126 134.978C113.934 135.755 112.975 136.532 113.001 136.662C113.001 136.791 112.949 136.843 112.872 136.714C112.794 136.61 112.016 136.947 111.135 137.439C110.228 137.957 108.492 138.889 107.248 139.511C105.978 140.158 103.723 141.194 102.194 141.816C100.639 142.438 98.4619 143.24 97.3216 143.603C96.1813 143.966 94.6003 144.432 93.8229 144.665C93.0453 144.872 91.2312 145.287 89.8058 145.571C88.3803 145.882 86.7476 146.193 86.1774 146.271C85.6073 146.348 85.0889 146.452 85.0112 146.504C84.9334 146.556 83.6117 146.685 82.0308 146.815C80.4758 146.918 76.666 147.022 73.6078 146.996C70.4978 146.996 66.9991 146.841 65.7032 146.659C64.4333 146.478 62.2045 146.089 60.7791 145.83C59.3536 145.546 57.4876 145.131 56.6324 144.924C55.7771 144.717 54.1444 144.251 53.0041 143.888C51.8637 143.525 49.8163 142.826 48.4686 142.334C47.121 141.816 44.607 140.728 42.8965 139.899C41.186 139.071 38.8017 137.776 37.5836 137.024C36.3655 136.299 35.2252 135.678 35.0697 135.678C34.8883 135.678 34.7846 135.6 34.8624 135.522C34.9142 135.445 33.9035 134.616 32.5817 133.709C31.2599 132.803 29.1089 131.145 27.813 130.031C26.4913 128.892 25.3769 128.037 25.3509 128.115C25.2991 128.192 24.9363 127.856 23.7182 126.561L24.5994 127.338C25.0918 127.752 24.2624 126.82 22.7334 125.266C21.2302 123.686 19.2087 121.484 18.2498 120.345C17.3168 119.205 15.373 116.511 13.9735 114.388C12.574 112.238 11.3041 110.399 11.2004 110.244C11.0968 110.088 10.9672 109.933 10.9413 109.855C10.9413 109.777 10.1638 108.146 9.23076 106.229C8.32367 104.313 6.97601 100.971 6.22442 98.8476C5.49875 96.7238 4.61759 93.7971 4.28067 92.3725C3.94375 90.948 3.555 89.0314 3.37358 88.099C3.21808 87.1666 2.95892 85.8975 2.85525 85.25C2.72567 84.6025 2.49242 82.4528 2.311 80.4585C2.12958 78.4642 2 75.7187 2 74.3719C2 73.0251 2.07775 71.0308 2.18142 69.9689C2.28508 68.907 2.4665 66.9645 2.622 65.6954C2.7775 64.4263 2.933 63.0795 2.95892 62.7169C3.01075 62.3543 3.19217 61.4219 3.37358 60.6448C3.555 59.8678 3.91784 58.2361 4.177 57.0188C4.46209 55.8015 4.82492 54.4029 4.98042 53.9108C5.13592 53.4187 5.75792 51.5539 6.40584 49.7668C7.02784 47.9797 8.40142 44.7681 9.41218 42.6442C10.4488 40.4945 11.4078 38.6297 11.5373 38.4743C11.6928 38.3189 12.0298 37.7491 12.3148 37.1793C12.5999 36.6354 12.9109 36.1174 12.9887 36.0397C13.0664 35.962 13.6884 35.0555 14.4141 34.0195C15.1138 32.9835 15.8395 31.8698 15.995 31.559C16.1764 31.2482 16.5911 30.7043 16.928 30.3417C17.2649 29.9791 17.9647 29.1244 18.483 28.3992C19.0014 27.6998 21.282 25.2911 23.5109 23.0896C25.7656 20.8622 27.9944 18.7384 28.4609 18.3499C28.9015 17.9614 29.4199 17.6506 29.5494 17.6506C29.7049 17.6506 29.9382 17.4175 30.0678 17.1326C30.2233 16.8477 30.5084 16.6146 30.7157 16.6146C30.923 16.6146 31.1563 16.4333 31.234 16.2261C31.3118 16.0189 31.4932 15.8894 31.6228 15.9671C31.7783 16.0448 31.9338 15.9153 32.0115 15.7081C32.0893 15.5009 32.3225 15.3196 32.5299 15.3196C32.7372 15.3196 32.9705 15.1383 33.0482 14.9311C33.126 14.7239 33.3592 14.5426 33.5665 14.5426C33.7739 14.5426 33.9553 14.4131 33.9553 14.2836C33.9553 14.1541 34.1367 14.0246 34.344 14.0246C34.5514 14.0246 34.7328 13.8951 34.7328 13.7656C34.7328 13.6361 34.8624 13.5584 34.992 13.6361C35.1475 13.7138 35.303 13.6102 35.3807 13.4548C35.4325 13.2735 35.9768 12.885 36.547 12.6001C37.1171 12.3152 37.5836 12.0043 37.5836 11.9007C37.5836 11.7712 37.7132 11.7453 37.8428 11.823C37.9983 11.9007 38.102 11.823 38.102 11.6935C38.102 11.564 38.2315 11.4345 38.387 11.4345C38.5425 11.4345 38.8276 11.2532 39.035 11.046C39.2423 10.8388 39.5274 10.7093 39.657 10.787C39.8125 10.8647 39.9161 10.8388 39.9161 10.7352C39.9161 10.6057 40.875 10.0618 42.0413 9.49203C43.2335 8.92223 44.2701 8.48193 44.3997 8.53373C44.5034 8.55963 44.5811 8.50783 44.5811 8.40423C44.5811 8.27473 44.944 8.04163 45.4105 7.88623C45.877 7.70492 46.3176 7.60132 46.3953 7.62722C46.473 7.65312 46.8618 7.47182 47.2506 7.23872C47.6393 6.97972 47.9503 6.82432 47.9503 6.90202C47.9503 6.97972 48.2095 6.90202 48.5464 6.72072C48.8574 6.53942 49.1943 6.35812 49.3239 6.33222C49.4276 6.28042 49.5571 6.25452 49.6349 6.25452C49.7126 6.25452 49.8422 6.20271 49.9718 6.17681L49.9719 6.17679C50.0756 6.12497 50.3347 5.9955 50.542 5.91781C50.7493 5.81421 51.6046 5.50341 52.4339 5.21851C53.2373 4.93361 53.9111 4.77821 53.9111 4.90771C53.8852 5.01131 54.0407 4.95951 54.2221 4.77821C54.4036 4.62281 54.9219 4.4156 55.3366 4.3638C55.7771 4.2861 56.3732 4.1566 56.7101 4.0789C57.0211 4.0012 57.5395 3.8458 57.8764 3.7681C58.1874 3.6904 58.6798 3.5868 58.9649 3.535C59.25 3.4832 59.7683 3.3537 60.1311 3.276C60.494 3.1983 61.1419 3.0688 61.5566 2.9911C61.9972 2.91339 62.6969 2.78389 63.1116 2.70619C63.5522 2.65439 64.3037 2.52489 64.7962 2.47309C65.2886 2.39539 66.2475 2.29179 66.9472 2.26589Z" fill="#401078"></path><path d="M21.1265 25.2892L23.1998 23.1653C24.3401 21.9739 25.2991 21.0156 25.325 21.0156C25.3768 21.0156 25.4027 21.0415 25.4027 21.0933C25.4027 21.1192 24.4438 22.0775 21.1265 25.2892Z" fill="white"></path><path d="M147.393 76.96C147.367 78.4622 147.315 77.2967 147.315 74.3699C147.315 71.4432 147.367 70.2259 147.393 71.6504C147.444 73.0749 147.444 75.4578 147.393 76.96Z" fill="white"></path><path d="M122.72 129.356C122.15 129.796 123.264 128.631 125.182 126.766C127.1 124.875 128.733 123.347 128.81 123.321C128.862 123.321 127.774 124.487 126.348 125.937C124.923 127.362 123.29 128.916 122.72 129.356Z" fill="white"></path><path d="M27.6056 130.107C27.0355 129.667 25.9211 128.631 25.1436 127.828C23.77 126.377 23.7959 126.377 25.6619 128.113C26.7245 129.097 27.8389 130.133 28.124 130.418C28.4091 130.677 28.1758 130.547 27.6056 130.107Z" fill="white"></path><path d="M72.3119 44.0668C72.7266 43.4193 73.1413 42.5905 73.219 42.202C73.3227 41.7875 73.53 41.4767 73.6855 41.4767C73.841 41.4767 74.2298 42.202 74.5667 43.1085C74.9036 43.9891 75.4479 44.9992 75.7589 45.3618C76.0699 45.7244 76.977 46.5273 77.7545 47.1748C78.506 47.8223 79.3872 48.4957 79.6723 48.6511C79.9833 48.8324 81.0459 49.3763 82.0307 49.8684C83.0415 50.3605 84.9334 51.1116 86.2551 51.5519C87.551 51.9922 89.417 52.4843 90.4018 52.6397C91.3607 52.7951 92.216 52.9505 92.3456 53.0282C92.4492 53.08 92.527 53.6239 92.527 54.2455C92.527 54.8412 92.3456 56.3175 92.1382 57.5348C91.9309 58.7522 91.6458 60.3321 91.4903 61.0314C91.3607 61.7566 91.0497 62.9739 90.8165 63.7509C90.5832 64.5279 90.1167 65.8747 89.8057 66.7294C89.4688 67.5841 88.7691 69.0863 88.2507 70.0964C87.7324 71.1065 87.0585 72.3238 86.7475 72.8159C86.4625 73.308 85.5554 74.5253 84.726 75.5355C83.9226 76.5456 82.5231 77.996 81.616 78.7989C80.709 79.5759 79.5427 80.5342 79.0503 80.8968C78.5579 81.2594 77.1325 82.1141 73.6078 83.953L71.353 82.7616C70.0831 82.1141 68.6577 81.2594 68.1653 80.8968C67.6729 80.5342 66.5066 79.5759 65.5995 78.7989C64.6924 77.996 63.267 76.4938 62.4377 75.4837C61.5824 74.4476 60.9086 73.5152 60.9086 73.4116C60.9086 73.2821 60.7272 73.0231 60.5458 72.8159C60.3384 72.6087 59.7423 71.5468 59.1722 70.4849C58.6279 69.423 57.8504 67.7395 57.4617 66.7294C57.0988 65.7452 56.5546 64.1135 56.2695 63.1034C55.9844 62.0933 55.5179 60.1508 55.2328 58.7781C54.9218 57.3794 54.6886 55.5405 54.6886 53.1318L55.6734 52.8728C56.1918 52.7433 56.8138 52.6138 57.0211 52.6138C57.2284 52.6138 58.6279 52.2512 60.1311 51.8109C61.6343 51.3706 63.6817 50.6195 64.6665 50.1533C65.6773 49.713 67.1286 48.8842 67.9061 48.3662C68.6836 47.8223 69.8239 46.8899 70.4459 46.2942C71.0679 45.7244 71.8973 44.7143 72.3119 44.0668Z" fill="white"></path><path d="M54.3776 96.2556C53.1336 92.9922 52.1228 90.1431 52.1228 89.9877C52.0969 89.7805 52.4338 89.651 53.7815 89.651L55.7253 94.9606C56.7878 97.8614 57.7208 100.192 57.7986 100.115C57.8763 100.037 58.7575 97.6801 61.6343 89.7805L63.5003 89.651L62.8783 91.2827C62.5673 92.1633 61.4788 95.0124 58.7057 102.368L56.6583 102.213L54.3776 96.2556Z" fill="white"></path><path d="M66.7658 95.6081C67.8284 92.6814 68.7614 90.1431 68.8391 89.9618C68.9169 89.7546 69.3056 89.651 70.8865 89.7805L73.1413 95.9966C74.4112 99.4154 75.4219 102.239 75.4219 102.29C75.4219 102.316 74.9814 102.316 74.463 102.29C73.5819 102.213 73.5041 102.135 72.6489 99.6226L67.2582 99.4672L66.7399 100.84C66.2474 102.135 66.1697 102.213 65.2367 102.29C64.2778 102.342 64.2778 102.342 64.5629 101.643C64.7184 101.228 65.7032 98.5348 66.7658 95.6081Z" fill="white"></path><path d="M77.2361 102.342V95.9966V89.651H79.776C81.1495 89.651 82.7045 89.7546 83.197 89.91C83.6894 90.0395 84.4669 90.5057 84.8815 90.946C85.5035 91.5936 85.685 92.0338 85.7368 93.0958C85.8145 94.1836 85.7109 94.6239 85.2185 95.3491C84.8815 95.8412 84.2595 96.4369 83.8449 96.6441C83.4043 96.8513 82.1603 97.0585 79.0503 97.1621V102.342H77.2361Z" fill="white"></path><path d="M88.8468 91.0237C87.1622 90.946 87.0845 90.9201 87.0845 90.2985V89.651H95.8961V90.2985C95.8961 90.9201 95.8184 90.946 92.3974 91.0755L92.2678 102.342H90.7128L90.5832 91.0755L88.8468 91.0237Z" fill="white"></path><path d="M72.6231 19.5947C73.0377 18.3256 73.4524 17.1083 73.5301 16.9011C73.6338 16.6939 73.7375 16.5903 73.7634 16.6421C73.7893 16.6939 74.0485 17.445 74.3336 18.2997C74.6186 19.1544 74.9815 20.3458 75.4221 22.0552H78.4802C81.1756 22.0811 81.4607 22.107 80.9942 22.4437C80.7091 22.6509 80.0871 23.0653 79.6206 23.402C79.1282 23.7387 78.558 24.205 78.3247 24.464C78.0656 24.6971 77.7805 24.9043 77.625 24.9043C77.4954 24.8784 77.2362 25.0338 77.0548 25.2151C76.8216 25.4741 76.8216 25.8367 77.1066 26.8468C77.2881 27.572 77.6768 28.6857 77.936 29.3591C78.1951 30.0325 78.3247 30.6282 78.2211 30.7059C78.0915 30.7836 77.7286 30.6541 77.3917 30.421C77.0548 30.162 76.5106 29.7735 76.1996 29.5663C75.8886 29.3591 75.2147 28.867 74.7482 28.4785C74.2558 28.0641 73.7375 27.831 73.5561 27.9346C73.3747 28.0382 72.6491 28.5302 71.9235 29.0223L71.9233 29.0224C71.2236 29.5145 70.3942 30.1361 70.1091 30.421C69.8241 30.68 69.4612 30.8613 69.2798 30.8095C69.0725 30.7577 69.1502 30.2397 69.5649 29.0483C69.9018 28.1159 70.2387 26.9504 70.3424 26.4583C70.5238 25.5777 70.472 25.5 69.0206 24.3863C68.1913 23.7387 67.1805 22.9876 65.9625 22.1847L71.8715 21.9257L72.6231 19.5947Z" fill="#FFCF01"></path><path d="M47.0174 27.831C47.1988 27.2871 47.5616 26.1734 47.8208 25.3446C48.0799 24.464 48.3909 23.8683 48.5724 23.946C48.7279 23.9978 49.2203 25.0856 50.4124 28.6598L52.8745 28.7375C54.2222 28.7893 55.4403 28.8929 55.544 28.9965C55.6476 29.1001 54.8183 29.8771 53.652 30.7318C52.5117 31.5865 51.5787 32.3117 51.5787 32.3635C51.5787 32.3894 51.9415 33.4772 52.3562 34.7463C52.7968 36.0154 53.1337 37.1809 53.1337 37.3363C53.1337 37.4917 52.9264 37.4917 52.5635 37.3104C52.2266 37.1291 51.5009 36.637 50.9308 36.1967C50.3606 35.7305 49.5831 35.1866 49.1944 34.9276C48.4687 34.4873 48.4687 34.4873 46.7323 35.8082C45.7474 36.5334 44.7626 37.2327 44.5294 37.3622C44.2702 37.4917 44.0369 37.5953 44.011 37.5953C43.9592 37.5953 44.1406 36.8701 44.3998 35.9636C44.6849 35.083 45.0736 33.9175 45.7474 32.4153L44.9959 31.8455C44.5812 31.5088 44.037 31.1462 43.8037 30.9908L43.8037 30.9908C43.5704 30.8354 42.9484 30.421 42.4301 30.0325C41.9118 29.6181 41.523 29.2037 41.6008 29.0483C41.6785 28.8929 42.8189 28.7893 46.6545 28.7893L47.0174 27.831Z" fill="#FFCF01"></path><path d="M97.0107 28.6598L97.7882 26.2511C98.2288 24.9302 98.6953 23.8942 98.8248 23.9201C98.9544 23.9719 99.4209 25.0856 100.691 28.7893H103.231C104.656 28.7893 105.796 28.8929 105.874 29.0483C105.952 29.2037 105.693 29.5145 105.304 29.7476C104.889 30.0066 104.06 30.6023 103.412 31.0944C102.764 31.5865 102.168 32.0527 102.039 32.1304C101.935 32.234 102.22 33.4513 102.661 34.8758C103.101 36.3003 103.386 37.5176 103.308 37.5953C103.231 37.673 102.505 37.2068 101.676 36.5593C100.846 35.9118 99.8356 35.1866 99.395 34.9017C98.9026 34.5909 98.5916 34.5391 98.5657 34.7204C98.5138 34.8758 98.3843 35.0053 98.2288 35.0053C98.0733 35.0053 97.1921 35.601 96.2332 36.3003C95.2483 37.0255 94.4449 37.5694 94.3931 37.5435C94.3672 37.4917 94.5227 36.7665 94.73 35.9118C94.9633 35.0571 95.2743 33.9175 95.4038 33.3995C95.5593 32.6743 95.5593 32.2858 95.3261 32.0009C95.1447 31.7678 94.1858 31.0426 93.2268 30.3692C92.2679 29.7217 91.5941 29.1001 91.7237 28.9965C91.8792 28.8929 93.1232 28.7634 97.0107 28.6598Z" fill="#FFCF01"></path><path d="M28.9793 45.1064C29.3422 44.0445 29.7309 42.9049 29.8346 42.5941C29.9642 42.2574 30.1197 41.9984 30.1974 41.9984C30.2752 41.9984 30.5084 42.4905 30.6898 43.1121C30.8972 43.7078 31.26 44.8733 32.0116 47.2043L34.6551 47.1784C36.2619 47.1784 37.3245 47.282 37.3245 47.4374C37.3245 47.5928 37.0394 47.9036 36.7025 48.1626C36.3397 48.3957 35.4067 49.0691 34.6292 49.6389C33.8517 50.2087 33.2556 50.7785 33.3074 50.9339C33.3593 51.0893 33.6962 52.2548 34.0849 53.5239C34.4737 54.793 34.7069 55.9067 34.6292 55.9844C34.5514 56.0621 34.2145 55.8808 33.8776 55.57C33.5666 55.2592 32.6077 54.5599 30.1974 52.9282L29.0312 53.7311C28.3832 54.1714 27.3984 54.8448 26.8282 55.2333C26.2581 55.6218 25.7397 55.9067 25.662 55.8549C25.5842 55.8031 25.8693 54.793 26.2581 53.6016C26.6468 52.4102 27.0356 51.2706 27.1133 51.0634C27.217 50.8044 26.5691 50.1828 25.1696 49.1986C24.0033 48.3698 23.0703 47.5928 23.0703 47.4374C23.0703 47.282 24.1588 47.1525 28.3314 47.0489L28.9793 45.1064Z" fill="#FFCF01"></path><path d="M115.515 46.4791C115.671 46.0906 116.085 44.8992 116.422 43.8891C116.733 42.8531 117.07 41.9984 117.148 41.9984C117.226 41.9725 117.407 42.3092 117.563 42.6977C117.718 43.0862 118.055 44.0186 118.314 44.7179C118.547 45.4431 118.807 46.2719 118.858 46.6086C118.962 47.1525 119.066 47.1784 121.554 47.1784C123.031 47.1784 124.197 47.282 124.275 47.4374C124.353 47.5928 123.472 48.3698 122.331 49.1986C121.191 50.0015 120.258 50.7526 120.258 50.8821C120.258 50.9857 120.362 51.3224 120.491 51.6591C120.621 51.9699 120.984 53.0577 121.295 54.0419C121.606 55.0261 121.787 55.9067 121.709 55.9844C121.632 56.0621 120.88 55.5959 120.077 54.9484C119.247 54.3009 118.211 53.5498 117.796 53.2908C117.355 53.0318 116.967 52.9282 116.889 53.0318C116.811 53.1613 115.904 53.8606 114.893 54.5599C113.857 55.2851 112.924 55.7513 112.82 55.6477C112.69 55.5441 112.924 54.4822 113.338 53.3167C113.727 52.1512 114.038 50.9857 114.038 50.7526C114.038 50.4936 113.831 50.2087 113.571 50.131C113.338 50.0533 112.405 49.4317 111.524 48.7842C110.643 48.1108 109.969 47.4892 110.047 47.3856C110.099 47.2561 111.291 47.1784 112.664 47.1784C115.204 47.2043 115.204 47.2043 115.515 46.4791Z" fill="#FFCF01"></path><path d="M22.4742 69.7115C22.9148 68.3647 23.3036 67.1992 23.3036 67.1215C23.3036 67.0438 23.4332 67.0956 23.5887 67.251C23.7182 67.4064 24.0033 68.0798 24.2107 68.805C24.418 69.5043 24.7549 70.5662 25.351 72.172L28.0982 72.2238C29.6013 72.2756 30.8453 72.3792 30.8453 72.4828C30.8453 72.6124 30.0419 73.2081 29.1089 73.8556C28.15 74.5031 27.1652 75.2283 26.906 75.4614C26.4654 75.9017 26.4654 76.0053 27.0356 77.7924C27.3725 78.8284 27.7872 79.9421 27.9427 80.2529C28.15 80.6414 28.15 80.9004 27.9945 80.9781C27.839 81.0558 26.8023 80.4083 25.662 79.5536C24.5217 78.6989 23.5368 77.9996 23.4591 77.9996C23.3813 77.9996 22.8889 78.3104 22.3447 78.6989C21.8263 79.1133 21.3339 79.4759 21.2562 79.5536C21.1784 79.6313 20.7378 79.9421 20.2713 80.2529C19.8307 80.5896 19.3124 80.8486 19.1828 80.8486C19.0273 80.8486 19.0014 80.5119 19.0792 79.9939C19.1828 79.5536 19.4679 78.6212 19.7271 77.9478C20.0122 77.2485 20.2195 76.4197 20.2195 76.0571C20.2195 75.5391 19.8826 75.2024 18.6645 74.4254C17.7833 73.9074 17.0836 73.3894 17.1095 73.2599C17.1095 73.1563 16.8762 73.0268 16.5911 72.9491C16.3061 72.8714 16.0728 72.716 16.0728 72.5606C16.0728 72.4051 17.2131 72.2757 21.6449 72.172L22.4742 69.7115Z" fill="#FFCF01"></path><path d="M122.487 70.9547C122.798 70.2036 123.187 69.0899 123.368 68.4683C123.549 67.8467 123.834 67.4064 123.99 67.4582C124.145 67.51 124.482 68.2352 124.742 69.0899C125.001 69.9187 125.389 71.0065 125.96 72.3015L131.532 72.431L129.899 73.5966C128.992 74.2441 127.955 74.9952 126.919 75.7981L127.722 78.3881C128.188 79.8126 128.499 81.004 128.422 81.0558C128.344 81.0817 127.307 80.4083 123.886 77.9996L122.254 79.1651C121.372 79.8126 120.388 80.5378 120.051 80.7968C119.74 81.0299 119.403 81.1853 119.351 81.1076C119.299 81.0299 119.61 79.8385 120.077 78.4658C120.828 76.2125 120.854 75.9017 120.517 75.5391C120.31 75.2801 119.532 74.7103 118.833 74.2182C118.107 73.752 117.252 73.1304 116.241 72.3015H121.943L122.487 70.9547Z" fill="#FFCF01"></path><path d="M116.111 95.0937C116.293 94.6016 116.552 93.7469 116.707 93.203C116.863 92.685 117.07 92.2447 117.2 92.2447C117.303 92.2447 117.407 92.2706 117.407 92.2965C117.407 92.3483 117.796 93.4879 119.144 97.2952L121.761 97.347C123.316 97.3988 124.405 97.5283 124.405 97.6837C124.405 97.8391 123.783 98.3312 123.031 98.8233C122.305 99.3154 121.346 99.9888 120.206 100.921L120.647 102.346C120.88 103.123 121.243 104.211 121.45 104.729C121.657 105.272 121.813 105.894 121.813 106.101C121.813 106.36 121.295 106.101 120.31 105.324C119.506 104.703 118.522 103.952 118.107 103.641C117.718 103.356 117.329 103.123 117.2 103.123C117.096 103.123 116.085 103.822 114.945 104.677C113.701 105.609 112.846 106.101 112.794 105.92C112.742 105.739 113.027 104.651 113.39 103.511C113.753 102.372 114.038 101.232 114.038 100.973C114.038 100.74 113.831 100.455 113.571 100.351C113.338 100.274 112.664 99.8075 112.094 99.3672C111.524 98.901 110.798 98.4089 110.461 98.2276C110.15 98.0722 109.943 97.8391 110.021 97.6837C110.099 97.5283 111.239 97.4247 115.204 97.4506L115.489 96.7254C115.645 96.3369 115.93 95.5858 116.111 95.0937Z" fill="#FFCF01"></path><path d="M28.772 96.0002C29.0312 95.275 29.394 94.2131 29.5754 93.5915C29.7309 92.9699 30.016 92.5037 30.1715 92.5555C30.327 92.6332 30.6639 93.3584 30.9231 94.2131C31.1823 95.0419 31.571 96.1297 32.1412 97.4247H34.7328C36.2101 97.4247 37.3763 97.5283 37.4541 97.6837C37.5318 97.8391 37.3763 98.0204 37.1172 98.124C36.8839 98.2276 35.8991 98.8492 34.9143 99.5485C33.3333 100.688 33.2038 100.844 33.3333 101.491C33.437 101.905 33.6184 102.449 33.7739 102.734C33.9035 103.019 34.1886 103.9 34.37 104.677C34.5773 105.454 34.681 106.153 34.6033 106.231C34.5514 106.308 33.9813 105.946 33.3852 105.454C32.7632 104.936 31.7783 104.211 30.0678 103.123L29.2903 103.693C28.8757 104.029 28.1759 104.547 27.7353 104.858C27.3207 105.195 26.8801 105.454 26.7505 105.454C26.6468 105.428 26.4136 105.609 26.2322 105.842C26.0767 106.049 25.7916 106.179 25.662 106.101C25.5065 106.024 25.7657 104.936 27.217 100.921L26.6209 100.481C26.3099 100.222 25.4028 99.6003 24.6253 99.0564C23.8478 98.5125 23.1222 97.9686 23.0185 97.8132C22.8889 97.6578 23.796 97.5024 28.3055 97.2952L28.772 96.0002Z" fill="#FFCF01"></path><path d="M47.2765 113.871C47.5357 113.017 47.9244 111.903 48.1318 111.411L48.5205 110.504L48.8574 111.152C49.0648 111.514 49.3758 112.447 49.5831 113.224C49.7754 113.944 50.0122 114.732 50.1076 115.049L50.1274 115.115C50.2051 115.348 50.4384 115.555 50.5939 115.581H53.4447C54.9738 115.555 55.9845 115.658 55.9845 115.814C55.9845 115.969 55.207 116.617 54.274 117.316C53.341 117.989 52.3303 118.715 52.0711 118.922C51.5787 119.31 51.5787 119.362 52.3821 121.9C52.8227 123.325 53.1078 124.516 53.03 124.568C52.9523 124.594 52.5635 124.387 52.1489 124.076C51.7601 123.791 50.8012 123.092 50.0237 122.522C49.2462 121.952 48.5464 121.512 48.4687 121.512C48.3909 121.512 47.6394 122.03 46.7841 122.651C45.9289 123.299 45.0218 123.998 44.7626 124.205C44.5294 124.439 44.1924 124.62 44.0629 124.62C43.9074 124.62 43.9851 124.102 44.2184 123.403C44.4516 122.703 44.8663 121.512 45.1514 120.735C45.4105 119.958 45.5401 119.259 45.4364 119.181C45.3069 119.103 44.322 118.352 43.2076 117.549C42.1191 116.746 41.212 115.969 41.212 115.814C41.212 115.658 42.3524 115.529 46.7841 115.425L47.2765 113.871Z" fill="#FFCF01"></path><path d="M97.6586 113.379C97.6327 113.198 97.8918 112.473 98.2028 111.773L98.7989 110.504L99.1358 111.152C99.3432 111.514 99.4987 112.006 99.4987 112.24C99.4987 112.499 99.7838 113.353 100.691 115.555H103.464C104.993 115.555 106.263 115.633 106.263 115.736C106.263 115.866 105.796 116.332 105.226 116.772C104.656 117.238 104.086 117.627 103.982 117.627C103.879 117.653 103.334 118.041 101.728 119.44L102.142 120.424C102.375 120.942 102.764 122.056 103.049 122.859C103.308 123.687 103.438 124.413 103.334 124.49C103.231 124.568 102.609 124.231 101.961 123.765C101.339 123.325 100.354 122.6 99.8356 122.211C99.2913 121.823 98.7989 121.486 98.7471 121.512C98.6693 121.512 97.7623 122.159 96.7256 122.936C95.6889 123.713 94.73 124.361 94.6004 124.361C94.4449 124.361 94.3413 124.283 94.3413 124.18C94.3413 124.05 94.6263 123.04 94.9892 121.9C95.352 120.761 95.6371 119.621 95.6371 119.388C95.6371 119.129 95.5075 118.922 95.3779 118.922C95.2224 118.922 94.9633 118.766 94.7818 118.611C94.6004 118.43 93.9784 117.912 93.4082 117.471C92.864 117.031 92.1383 116.539 91.8014 116.384C91.4904 116.202 91.2831 115.969 91.3608 115.814C91.4127 115.658 92.6567 115.555 96.9329 115.555L97.3217 114.648C97.529 114.156 97.6845 113.586 97.6586 113.379Z" fill="#FFCF01"></path><path d="M72.7008 119.828C73.1932 118.404 73.582 117.212 73.582 117.187C73.582 117.135 73.6597 117.109 73.7375 117.109C73.8152 117.109 74.2558 118.326 75.5257 122.548L81.2015 122.677L78.9467 124.309C77.2621 125.526 76.7438 126.018 76.8475 126.381C76.9252 126.614 77.0548 127.106 77.1326 127.469C77.2103 127.831 77.4954 128.686 77.7546 129.36C78.0396 130.033 78.247 130.706 78.247 130.836C78.247 130.991 78.1692 131.095 78.0656 131.095C77.9619 131.121 77.2881 130.732 76.5624 130.266C75.8626 129.8 74.9815 129.152 74.6186 128.842C74.2817 128.505 73.8671 128.246 73.7116 128.246C73.582 128.272 73.1673 128.505 72.8045 128.79C72.4676 129.075 71.5605 129.748 70.8089 130.266C70.0314 130.784 69.3316 131.147 69.2539 131.017C69.1502 130.914 69.3316 129.981 69.6686 128.945C70.0055 127.935 70.3942 126.847 70.4979 126.562C70.6793 126.122 70.3683 125.785 66.1957 122.677L71.8196 122.418L72.7008 119.828Z" fill="#FFCF01"></path><path d="M72.4934 46.5296C72.8044 46.0893 73.1154 45.4418 73.219 45.0533V45.0274C73.3227 44.6389 73.5041 44.3281 73.6337 44.3281C73.7633 44.3281 73.867 44.4317 73.867 44.5871C73.867 44.7166 74.1002 45.3382 74.3853 45.9339C74.6704 46.5555 75.396 47.5656 75.9921 48.2131C76.6141 48.8607 77.7545 49.819 78.532 50.337C79.3095 50.855 80.4757 51.5025 81.1236 51.7874C81.7716 52.0723 83.1711 52.5903 84.2336 52.9529C85.2962 53.3155 86.929 53.7558 87.862 53.9112C88.795 54.0925 89.6502 54.3256 89.7539 54.4033C89.8576 54.481 89.8316 55.7242 89.6761 57.1487C89.5206 58.5732 89.1319 60.6193 88.8468 61.6812C88.5617 62.7431 87.862 64.841 87.2918 66.3433C86.7216 67.8455 85.7886 69.8139 85.1926 70.7463C84.5965 71.6787 83.8449 72.7924 83.508 73.2068C83.1711 73.6212 82.4454 74.45 81.9011 75.0198C81.3569 75.5896 80.4757 76.4702 79.9315 76.9623C79.3613 77.4803 78.5579 78.1019 78.1432 78.3609C77.7285 78.6458 76.5105 79.3192 73.6078 80.8473L72.1305 80.1221C71.3012 79.7077 69.9276 78.9307 69.0724 78.3868C68.2171 77.8429 66.714 76.5479 65.7032 75.5119C64.6924 74.4759 63.5262 73.1032 63.0856 72.5075C62.645 71.8859 61.7379 70.3319 61.09 69.0628C60.468 67.7678 59.6905 66.1361 59.3795 65.4368C59.0944 64.7115 58.7316 63.6237 58.5502 62.9762C58.3947 62.3287 58.0578 60.4639 57.7727 58.8322C57.5135 57.2005 57.2803 55.5429 57.2803 55.1285C57.2803 54.5328 57.4358 54.4033 58.2392 54.1702C58.7834 54.0407 59.8201 53.8076 60.5199 53.6781C61.2196 53.5227 62.5154 53.1601 63.3707 52.8752C64.2259 52.5644 65.5477 52.0205 66.2993 51.6838C67.025 51.3471 68.269 50.6219 68.9946 50.0521C69.7462 49.5082 70.731 48.6535 71.1716 48.1872C71.6122 47.6951 72.2083 46.944 72.4934 46.5296Z" fill="#401078"></path><path d="M79.0503 95.6363V93.4348V91.2333H80.994C82.6009 91.2333 83.0415 91.3369 83.4561 91.7513C83.819 92.1139 83.9745 92.606 83.9745 93.4348C83.9745 94.3931 83.8449 94.678 83.2747 95.1183C82.7046 95.5327 82.1603 95.6622 79.0503 95.6363Z" fill="#401078"></path><path d="M67.6988 98.0968L68.7355 95.1183C69.3056 93.4866 69.8499 92.2434 69.9795 92.3988C70.0831 92.5283 70.5755 93.8751 71.1198 95.3773C71.6381 96.8795 72.0269 98.1227 72.001 98.1745C71.9491 98.2004 70.9643 98.2005 67.6988 98.0968Z" fill="#401078"></path><path d="M69.9018 55.1262C70.3164 54.7377 71.0939 54.2456 71.6641 54.0384C72.2343 53.8312 73.1154 53.6758 73.6079 53.6758C74.1003 53.6758 75.0592 53.883 75.7071 54.1161C76.4069 54.3751 77.2362 54.9449 77.6509 55.437C78.2988 56.214 78.4024 56.5766 78.4543 58.2342C78.532 60.0731 78.5579 60.1249 79.3095 60.3839C79.9834 60.617 80.087 60.7724 80.1129 61.6012C80.1389 62.1451 80.1389 64.6314 80.1389 67.1177V67.118C80.1389 71.262 80.1129 71.6764 79.6724 71.9872C79.3095 72.2203 77.7286 72.298 73.8152 72.298C70.0313 72.298 68.2431 72.1944 67.7766 71.9613C67.4138 71.8059 67.0768 71.4174 67.025 71.1325C66.9732 70.8476 66.9473 68.5166 66.9732 65.9266C66.9991 62.171 67.0768 61.1609 67.3878 60.7983C67.5952 60.5652 67.9839 60.358 68.2172 60.3839C68.6059 60.3839 68.6837 60.1508 68.6837 59.1666C68.6837 58.4673 68.8133 57.4572 68.9428 56.8874C69.0724 56.3176 69.513 55.5406 69.9018 55.1262Z" fill="white"></path><path d="M70.446 56.2403C70.7052 55.8777 71.2235 55.4374 71.5604 55.282C71.8973 55.1007 72.8822 54.9453 73.7374 54.9453C74.8518 54.9453 75.5257 55.1007 76.1218 55.4633C76.7438 55.8518 77.0548 56.2921 77.2621 57.0691C77.4176 57.6907 77.4953 58.649 77.3658 60.2548H69.8499L69.9017 58.5713C69.9277 57.354 70.0832 56.7065 70.446 56.2403Z" fill="#401078"></path><path d="M72.1824 65.4349C72.0528 64.8651 72.1306 64.5284 72.4675 64.1917C72.7008 63.9586 73.2968 63.7514 73.7633 63.7514C74.3335 63.7514 74.7223 63.9068 74.8778 64.1917C74.9814 64.4507 75.0592 65.5903 74.9814 68.8019H73.5819C72.2343 68.8019 72.1824 68.776 72.2343 68.1544C72.2602 67.7918 72.312 67.222 72.312 66.8594C72.3379 66.4968 72.2861 65.8493 72.1824 65.4349Z" fill="#401078"></path></svg>