<svg xmlns="http://www.w3.org/2000/svg" width="149" height="41" viewBox="0 0 149 41" fill="none"><path fill-rule="evenodd" clip-rule="evenodd" d="M17.7003 8.19995C20.5617 8.2017 22.6382 21.1944 22.1205 27.188C22.1186 27.1949 21.331 27.1982 20.2266 27.1994L18.1948 27.1995L17.9978 27.1994L17.6025 27.199C15.4278 27.1969 13.2846 27.1913 13.28 27.188C12.7594 21.1935 14.8389 8.19849 17.7003 8.19995ZM17.6999 15.1999C16.8715 15.1999 16.1999 15.8715 16.1999 16.6999C16.1999 17.5283 16.8715 18.1999 17.6999 18.1999C18.5283 18.1999 19.1999 17.5283 19.1999 16.6999C19.1999 15.8715 18.5283 15.1999 17.6999 15.1999ZM17.6999 28.2C17.976 28.2 18.1999 28.4239 18.1999 28.7V31.7C18.1999 31.9762 17.976 32.2 17.6999 32.2C17.4237 32.2 17.1999 31.9762 17.1999 31.7V28.7C17.1999 28.4239 17.4237 28.2 17.6999 28.2ZM15.6999 28.2C15.976 28.2 16.1999 28.4239 16.1999 28.7V29.7C16.1999 29.9762 15.976 30.2 15.6999 30.2C15.4237 30.2 15.1999 29.9762 15.1999 29.7V28.7C15.1999 28.4239 15.4237 28.2 15.6999 28.2ZM19.6999 28.2C19.976 28.2 20.1999 28.4239 20.1999 28.7V29.7C20.1999 29.9762 19.976 30.2 19.6999 30.2C19.4237 30.2 19.1999 29.9762 19.1999 29.7V28.7C19.1999 28.4239 19.4237 28.2 19.6999 28.2ZM23.1998 20.2001L27.1367 24.629C27.1773 24.6748 27.1998 24.7339 27.1998 24.7951V27.891C27.1998 28.1672 26.976 28.391 26.6998 28.391C26.6222 28.391 26.5456 28.3729 26.4762 28.3382L23.1998 26.7V20.2001ZM12.1999 20.2001V26.7L8.92356 28.3382C8.85413 28.3729 8.77757 28.391 8.69995 28.391C8.42381 28.391 8.19995 28.1672 8.19995 27.891V24.7951C8.19995 24.7339 8.22242 24.6748 8.2631 24.629L12.1999 20.2001ZM71.5828 26.9533V23.2383H72.6344L74.639 26.9533H77.7939L75.4277 22.6958C76.0302 22.3561 76.5067 21.8958 76.8573 21.315C77.2078 20.7342 77.3831 20.104 77.3831 19.4246C77.3831 18.2629 76.9833 17.315 76.1836 16.5808C75.3949 15.8246 74.4145 15.4465 73.2424 15.4465H68.6416V26.9533H71.5828ZM73.316 20.7392L71.5828 20.7396V18.1588H73.2095C73.571 18.1588 73.8668 18.2794 74.0968 18.5205C74.3268 18.7616 74.4419 19.0739 74.4419 19.4575C74.4419 19.841 74.3268 20.1534 74.0968 20.3944C73.8898 20.6114 73.6295 20.7263 73.316 20.7392ZM73.2095 20.7396C73.2456 20.7407 73.2811 20.7406 73.316 20.7392L73.2095 20.7396ZM84.4157 27.1999C86.0917 27.1999 87.5158 26.6245 88.6879 25.4739C89.86 24.3013 90.4461 22.8766 90.4461 21.1999C90.4461 19.5123 89.86 18.0931 88.6879 16.9424C87.5268 15.7808 86.1027 15.2 84.4157 15.2C82.7178 15.2 81.2883 15.7808 80.1271 16.9424C78.966 18.0931 78.3854 19.5123 78.3854 21.1999C78.3854 22.8876 78.966 24.3122 80.1271 25.4739C81.2883 26.6245 82.7178 27.1999 84.4157 27.1999ZM84.4157 24.3232C83.5394 24.3232 82.8 24.0328 82.1975 23.452C81.606 22.8602 81.3102 22.1095 81.3102 21.1999C81.3102 20.2794 81.606 19.5342 82.1975 18.9643C82.789 18.3725 83.5284 18.0766 84.4157 18.0766C85.303 18.0766 86.0425 18.3725 86.634 18.9643C87.2255 19.5342 87.5213 20.2794 87.5213 21.1999C87.5213 22.1095 87.2255 22.8602 86.634 23.452C86.0315 24.0328 85.2921 24.3232 84.4157 24.3232ZM97.3637 27.1999C98.4153 27.1999 99.382 26.9561 100.264 26.4684C101.146 25.9807 101.839 25.315 102.343 24.4711L99.7956 22.9917C99.5765 23.4081 99.2506 23.7342 98.8179 23.9698C98.3852 24.2054 97.9005 24.3232 97.3637 24.3232C96.4435 24.3232 95.6987 24.0383 95.129 23.4684C94.5704 22.8985 94.291 22.1424 94.291 21.1999C94.291 20.2794 94.5704 19.5287 95.129 18.9479C95.7096 18.3671 96.4545 18.0766 97.3637 18.0766C97.9005 18.0766 98.3852 18.1945 98.8179 18.4301C99.2506 18.6657 99.5765 18.9862 99.7956 19.3917L102.343 17.9287C101.839 17.0958 101.143 16.4328 100.256 15.9397C99.3683 15.4465 98.4044 15.2 97.3637 15.2C95.622 15.2 94.187 15.7753 93.0587 16.926C91.9304 18.0547 91.3662 19.4794 91.3662 21.1999C91.3662 22.9205 91.9304 24.3506 93.0587 25.4903C94.1979 26.63 95.6329 27.1999 97.3637 27.1999ZM106.565 26.9533V21.8081L109.868 26.9533H113.154L109.342 21.0355L112.99 15.4465H109.704L106.565 20.2794V15.4465H103.624V26.9533H106.565ZM121.387 26.9533V24.1917H116.934V22.4985H120.894V19.7862H116.934V18.1917H121.304V15.4465H113.992V26.9533H121.387ZM127.828 26.9533V18.2903H130.67V15.4465H122.044V18.2903H124.886V26.9533H127.828ZM135.83 27.1999C137.144 27.1999 138.201 26.8821 139.001 26.2465C139.801 25.6109 140.201 24.7287 140.201 23.5999C140.201 22.4492 139.801 21.6109 139.001 21.0849C138.618 20.8218 138.245 20.6136 137.884 20.4602C137.566 20.3287 137.117 20.1753 136.536 19.9999C135.759 19.7698 135.236 19.5671 134.967 19.3917C134.699 19.2164 134.565 19.0027 134.565 18.7506C134.565 18.5205 134.658 18.3369 134.844 18.1999C135.03 18.063 135.293 17.9945 135.633 17.9945C136.465 17.9945 137.062 18.4219 137.424 19.2766L139.888 17.8301C139.494 16.9862 138.924 16.3369 138.179 15.8821C137.435 15.4273 136.58 15.2 135.616 15.2C134.488 15.2 133.535 15.5287 132.757 16.1862C132.001 16.8438 131.623 17.704 131.623 18.7671C131.623 19.7095 131.914 20.4657 132.494 21.0355C133.075 21.6054 133.924 22.0492 135.041 22.367C135.83 22.5972 136.312 22.7451 136.487 22.8109C137.002 23.03 137.259 23.304 137.259 23.6328C137.259 24.1479 136.81 24.4054 135.912 24.4054C134.827 24.4054 134.072 23.8958 133.644 22.8766L131.13 24.3396C131.459 25.2383 132.026 25.9396 132.831 26.4437C133.636 26.9478 134.636 27.1999 135.83 27.1999ZM37.1411 26.9532V20.7724L39.9181 25.3751H40.2138L43.0072 20.756V26.9532H45.932V15.4464H43.0072L40.0659 20.3615L37.1411 15.4464H34.1999V26.9532H37.1411ZM54.0655 26.9532L57.779 15.4464H54.5585L52.3074 23.3697L50.0727 15.4464H46.8521L50.5656 26.9532H54.0655ZM61.624 26.9532V23.5012H63.1521C64.3133 23.5012 65.2882 23.1231 66.0769 22.3669C66.8656 21.6108 67.26 20.6464 67.26 19.4738C67.26 18.3012 66.8656 17.3368 66.0769 16.5807C65.2882 15.8245 64.3133 15.4464 63.1521 15.4464H58.6828V21.1998V26.9532H61.624ZM63.1521 20.7067H61.624V18.2574H63.1521C63.4807 18.2574 63.7573 18.3697 63.9819 18.5943C64.2065 18.819 64.3187 19.1121 64.3187 19.4738C64.3187 19.8354 64.2065 20.1313 63.9819 20.3615C63.7573 20.5916 63.4807 20.7067 63.1521 20.7067Z" fill="url(#paint0_linear_84_2)"></path><defs><linearGradient id="paint0_linear_84_2" x1="74.2002" y1="8.19995" x2="74.2002" y2="32.2" gradientUnits="userSpaceOnUse"><stop stop-color="#E74177"></stop></linearGradient></defs></svg>